G04 start of page 6 for group -4063 idx -4063 *
G04 Title: (unknown), componentmask *
G04 Creator: pcb 20140316 *
G04 CreationDate: Fri 13 Apr 2018 03:31:12 AM GMT UTC *
G04 For: railfan *
G04 Format: Gerber/RS-274X *
G04 PCB-Dimensions (mil): 2100.00 2700.00 *
G04 PCB-Coordinate-Origin: lower left *
%MOIN*%
%FSLAX25Y25*%
%LNTOPMASK*%
%ADD49R,0.0560X0.0560*%
%ADD48R,0.0300X0.0300*%
%ADD47R,0.0400X0.0400*%
%ADD46R,0.0572X0.0572*%
%ADD45R,0.0227X0.0227*%
%ADD44C,0.0860*%
%ADD43C,0.1560*%
%ADD42C,0.0740*%
%ADD41C,0.0001*%
G54D41*G36*
X196300Y23700D02*Y16300D01*
X203700D01*
Y23700D01*
X196300D01*
G37*
G54D42*X200000Y30000D03*
Y40000D03*
Y50000D03*
Y60000D03*
Y70000D03*
G54D43*X140000Y10000D03*
G54D44*X115000Y23000D03*
G54D42*X10000Y130000D03*
Y120000D03*
Y110000D03*
Y100000D03*
G54D41*G36*
X6300Y163700D02*Y156300D01*
X13700D01*
Y163700D01*
X6300D01*
G37*
G54D42*X10000Y150000D03*
Y140000D03*
G54D43*Y215000D03*
G54D42*X200000Y80000D03*
Y90000D03*
Y106000D03*
Y116000D03*
Y126000D03*
Y136000D03*
Y146000D03*
Y156000D03*
Y166000D03*
Y176000D03*
Y186000D03*
Y196000D03*
G54D43*Y210000D03*
G54D42*X10000Y90000D03*
Y70000D03*
Y60000D03*
Y50000D03*
Y40000D03*
Y30000D03*
Y20000D03*
G54D43*X30000Y10000D03*
G54D41*G36*
X50700Y27300D02*Y18700D01*
X59300D01*
Y27300D01*
X50700D01*
G37*
G54D44*X75000Y23000D03*
G54D41*G36*
X90700Y27300D02*Y18700D01*
X99300D01*
Y27300D01*
X90700D01*
G37*
G54D45*X86575Y75783D02*Y73913D01*
X83425Y75783D02*Y73913D01*
Y69087D02*Y67217D01*
X86575Y69087D02*Y67217D01*
G54D46*X101457Y48893D02*Y48107D01*
X108543Y48893D02*Y48107D01*
X61457Y48893D02*Y48107D01*
X68543Y48893D02*Y48107D01*
G54D47*X100100Y60100D02*Y59500D01*
G54D46*X132607Y23457D02*X133393D01*
X132607Y30543D02*X133393D01*
G54D47*X107900Y60100D02*Y59500D01*
G54D48*X112500Y111000D02*Y104500D01*
X107500Y111000D02*Y104500D01*
Y90500D02*Y84000D01*
X112500Y90500D02*Y84000D01*
G54D47*X104000Y68300D02*Y67700D01*
G54D48*X102500Y111000D02*Y104500D01*
X97500Y111000D02*Y104500D01*
Y90500D02*Y84000D01*
X102500Y90500D02*Y84000D01*
X62500Y111000D02*Y104500D01*
Y90500D02*Y84000D01*
X67500Y90500D02*Y84000D01*
X72500Y90500D02*Y84000D01*
G54D45*X87413Y160425D02*X89283D01*
X87413Y163575D02*X89283D01*
X80717D02*X82587D01*
X80717Y160425D02*X82587D01*
X89724Y150283D02*Y148413D01*
Y143587D02*Y141717D01*
X86575Y150283D02*Y148413D01*
Y143587D02*Y141717D01*
X83425Y150283D02*Y148413D01*
Y143587D02*Y141717D01*
X80276Y150283D02*Y148413D01*
Y143587D02*Y141717D01*
G54D47*X60100Y60100D02*Y59500D01*
X67900Y60100D02*Y59500D01*
X64000Y68300D02*Y67700D01*
G54D46*X41107Y101043D02*X41893D01*
X41107Y93957D02*X41893D01*
G54D48*X72500Y111000D02*Y104500D01*
X67500Y111000D02*Y104500D01*
X57500Y111000D02*Y104500D01*
Y90500D02*Y84000D01*
G54D46*X36607Y23457D02*X37393D01*
X36607Y30543D02*X37393D01*
G54D45*X86575Y130283D02*Y128413D01*
X83425Y130283D02*Y128413D01*
Y123587D02*Y121717D01*
X86575Y123587D02*Y121717D01*
G54D46*X61043Y163893D02*Y163107D01*
X53957Y163893D02*Y163107D01*
X61043Y154893D02*Y154107D01*
X53957Y154893D02*Y154107D01*
G54D49*X150996Y171000D02*X160484D01*
X150996Y181000D02*X160484D01*
X150996Y191000D02*X160484D01*
X133516D02*X143004D01*
X133516Y181000D02*X143004D01*
X133516Y171000D02*X143004D01*
X150996Y133000D02*X160484D01*
X133516D02*X143004D01*
X150996Y143000D02*X160484D01*
G54D45*X147000Y103935D02*Y102065D01*
X143850Y103935D02*Y102065D01*
Y97239D02*Y95369D01*
X147000Y97239D02*Y95369D01*
G54D49*X150996Y153000D02*X160484D01*
X133516D02*X143004D01*
X133516Y143000D02*X143004D01*
M02*
