M48
INCH
T40C0.020
T39C0.048
T38C0.129
T37C0.038
%
T40
X003700Y005900
X005400Y016950
X005400Y014850
X005900Y006500
X006500Y007900
X006750Y016000
X006750Y014550
X006900Y006500
X007650Y010500
X007700Y013850
X008250Y011200
X008250Y008100
X008750Y011200
X008750Y008100
X009300Y013850
X010500Y007900
X011650Y010500
X014700Y005900
X016650Y014300
T37
X001000Y016000
X001000Y015000
X001000Y014000
X001000Y013000
X001000Y012000
X001000Y011000
X001000Y010000
X001000Y009000
X001000Y007000
X001000Y006000
X001000Y005000
X001000Y004000
X001000Y003000
X001000Y002000
X020000Y019600
X020000Y018600
X020000Y017600
X020000Y016600
X020000Y015600
X020000Y014600
X020000Y013600
X020000Y012600
X020000Y011600
X020000Y010600
X020000Y009000
X020000Y008000
X020000Y007000
X020000Y006000
X020000Y005000
X020000Y004000
X020000Y003000
X020000Y002000
T39
X005500Y002300
X007500Y002300
X009500Y002300
X011500Y002300
T38
X001000Y021500
X003000Y001000
X014000Y001000
X020000Y021000
M30
