G04 start of page 10 for group -4015 idx -4015 *
G04 Title: (unknown), toppaste *
G04 Creator: pcb 20140316 *
G04 CreationDate: Fri 13 Apr 2018 03:31:12 AM GMT UTC *
G04 For: railfan *
G04 Format: Gerber/RS-274X *
G04 PCB-Dimensions (mil): 2100.00 2700.00 *
G04 PCB-Coordinate-Origin: lower left *
%MOIN*%
%FSLAX25Y25*%
%LNTOPPASTE*%
%ADD62R,0.0500X0.0500*%
%ADD61R,0.0200X0.0200*%
%ADD60R,0.0340X0.0340*%
%ADD59R,0.0512X0.0512*%
%ADD58R,0.0167X0.0167*%
G54D58*X86575Y75783D02*Y73913D01*
X83425Y75783D02*Y73913D01*
Y69087D02*Y67217D01*
X86575Y69087D02*Y67217D01*
X87413Y160425D02*X89283D01*
X87413Y163575D02*X89283D01*
X80717D02*X82587D01*
X80717Y160425D02*X82587D01*
X89724Y150283D02*Y148413D01*
X86575Y150283D02*Y148413D01*
X83425Y150283D02*Y148413D01*
X80276Y150283D02*Y148413D01*
Y143587D02*Y141717D01*
X83425Y143587D02*Y141717D01*
X86575Y143587D02*Y141717D01*
X89724Y143587D02*Y141717D01*
G54D59*X101457Y48893D02*Y48107D01*
X108543Y48893D02*Y48107D01*
X61457Y48893D02*Y48107D01*
X68543Y48893D02*Y48107D01*
G54D60*X100100Y60100D02*Y59500D01*
X107900Y60100D02*Y59500D01*
X104000Y68300D02*Y67700D01*
X60100Y60100D02*Y59500D01*
X67900Y60100D02*Y59500D01*
X64000Y68300D02*Y67700D01*
G54D58*X86575Y130283D02*Y128413D01*
X83425Y130283D02*Y128413D01*
Y123587D02*Y121717D01*
X86575Y123587D02*Y121717D01*
G54D59*X41107Y101043D02*X41893D01*
X41107Y93957D02*X41893D01*
G54D61*X112500Y111000D02*Y104500D01*
X107500Y111000D02*Y104500D01*
X102500Y111000D02*Y104500D01*
X97500Y111000D02*Y104500D01*
Y90500D02*Y84000D01*
X102500Y90500D02*Y84000D01*
X107500Y90500D02*Y84000D01*
X112500Y90500D02*Y84000D01*
X72500Y111000D02*Y104500D01*
X67500Y111000D02*Y104500D01*
X62500Y111000D02*Y104500D01*
X57500Y111000D02*Y104500D01*
Y90500D02*Y84000D01*
X62500Y90500D02*Y84000D01*
X67500Y90500D02*Y84000D01*
X72500Y90500D02*Y84000D01*
G54D59*X61043Y163893D02*Y163107D01*
X53957Y163893D02*Y163107D01*
X61043Y154893D02*Y154107D01*
X53957Y154893D02*Y154107D01*
G54D62*X150996Y171000D02*X160484D01*
X150996Y181000D02*X160484D01*
X150996Y191000D02*X160484D01*
X133516D02*X143004D01*
X133516Y181000D02*X143004D01*
X133516Y171000D02*X143004D01*
X150996Y133000D02*X160484D01*
X150996Y143000D02*X160484D01*
X150996Y153000D02*X160484D01*
X133516D02*X143004D01*
X133516Y143000D02*X143004D01*
X133516Y133000D02*X143004D01*
G54D59*X36607Y23457D02*X37393D01*
X36607Y30543D02*X37393D01*
X132607Y23457D02*X133393D01*
X132607Y30543D02*X133393D01*
G54D58*X147000Y103935D02*Y102065D01*
X143850Y103935D02*Y102065D01*
Y97239D02*Y95369D01*
X147000Y97239D02*Y95369D01*
M02*
