G04 start of page 8 for group -4079 idx -4079 *
G04 Title: (unknown), topsilk *
G04 Creator: pcb 20140316 *
G04 CreationDate: Fri 13 Apr 2018 03:31:12 AM GMT UTC *
G04 For: railfan *
G04 Format: Gerber/RS-274X *
G04 PCB-Dimensions (mil): 2100.00 2700.00 *
G04 PCB-Coordinate-Origin: lower left *
%MOIN*%
%FSLAX25Y25*%
%LNTOPSILK*%
%ADD56C,0.0080*%
%ADD55C,0.0100*%
%ADD54C,0.0001*%
G54D54*G36*
X129543Y219709D02*X129147Y219980D01*
X129011Y220425D01*
X129065Y220740D01*
X129261Y220990D01*
X129391Y221104D01*
Y222986D01*
X128718D01*
X128241Y222981D01*
X128045Y222964D01*
X127953Y222840D01*
X127600Y222617D01*
X127172D01*
X126873Y222807D01*
X126689Y223100D01*
X126662Y223431D01*
X126770Y223724D01*
X126987Y223946D01*
X127302Y224066D01*
X127682Y224012D01*
X127991Y223773D01*
X128056Y223675D01*
X128724D01*
X129391Y223670D01*
Y225167D01*
X127058D01*
Y225900D01*
X127053Y226627D01*
X126955Y226697D01*
X126787Y226876D01*
X126678Y227093D01*
X126689Y227527D01*
X126873Y227815D01*
X127161Y227994D01*
X127497Y228026D01*
X127790Y227923D01*
X128013Y227701D01*
X128132Y227381D01*
X128078Y227006D01*
X127839Y226697D01*
X127742Y226627D01*
Y225851D01*
X129391D01*
Y228156D01*
X129857Y228748D01*
X130329Y229339D01*
Y231406D01*
X129418D01*
Y232193D01*
X133802D01*
Y233566D01*
X130986D01*
Y232193D01*
X130329D01*
Y233566D01*
X129418D01*
Y234325D01*
X130319D01*
Y235692D01*
X131002Y235719D01*
X130997Y235057D01*
X130991Y234586D01*
X131002Y234368D01*
X131067Y234358D01*
X131290Y234347D01*
X131724Y234341D01*
X132407Y234336D01*
X133802D01*
Y235719D01*
X131002D01*
X130319Y235692D01*
X129418D01*
Y236452D01*
X130329D01*
X130986Y236479D01*
X133802D01*
Y237852D01*
X130986D01*
Y236479D01*
X130329Y236452D01*
Y237824D01*
X129418D01*
Y238584D01*
X130319D01*
X130329Y239962D01*
X130986Y240005D01*
Y239327D01*
X130991Y238844D01*
X131008Y238627D01*
X131420Y238617D01*
X132407Y238611D01*
X133791D01*
X133796Y239300D01*
Y239316D01*
X133807Y240005D01*
X130986D01*
X130329Y239962D01*
X129418D01*
Y240722D01*
X130319D01*
Y242094D01*
X131002Y242148D01*
X130997Y241492D01*
X130991Y241015D01*
X131002Y240797D01*
X131067Y240787D01*
X131290Y240776D01*
X131724Y240770D01*
X132407Y240765D01*
X133807D01*
X133796Y241459D01*
X133791Y242148D01*
X131002D01*
X130319Y242094D01*
X129418D01*
Y242854D01*
X130329D01*
Y244096D01*
X130986D01*
Y242854D01*
X133802D01*
Y244096D01*
X134491D01*
Y242854D01*
X135402D01*
Y242094D01*
X134491D01*
Y240694D01*
X135402D01*
Y239935D01*
X134491D01*
Y238541D01*
X135402D01*
Y237781D01*
X134491D01*
Y236408D01*
X135402D01*
Y235649D01*
X134491D01*
Y234255D01*
X135402D01*
Y233495D01*
X134491D01*
Y232122D01*
X135402D01*
Y231336D01*
X134491D01*
X134485Y230750D01*
Y230158D01*
X133069Y228368D01*
X131648Y226583D01*
Y222574D01*
X132624Y221597D01*
X135044D01*
Y223719D01*
X135039Y224543D01*
Y225216D01*
X135033Y225672D01*
X135028Y225834D01*
X134903Y225927D01*
X134659Y226393D01*
X134794Y226909D01*
X135370Y227218D01*
X135972Y226947D01*
X136129Y226382D01*
X135831Y225872D01*
X135733Y225802D01*
Y220914D01*
X132342D01*
X130986Y222270D01*
Y226844D01*
X132396Y228623D01*
X133802Y230403D01*
Y231341D01*
X130986D01*
Y229003D01*
X130074Y227853D01*
Y221022D01*
X130140Y220990D01*
X130319Y220821D01*
X130449Y220588D01*
X130416Y220073D01*
X130069Y219693D01*
X129803Y219633D01*
X129543Y219644D01*
Y219709D01*
G37*
G36*
X145385Y220729D02*X143567Y221071D01*
X141983Y221793D01*
X140876Y222671D01*
X139932Y223778D01*
X139070Y225341D01*
X138424Y227196D01*
X138326Y227565D01*
X140746Y228081D01*
X141679Y228281D01*
X142455Y228444D01*
X142981Y228547D01*
X143182Y228580D01*
X143236Y228368D01*
X143285Y228118D01*
X143367Y227782D01*
X143730Y226757D01*
X144245Y225932D01*
X144891Y225324D01*
X145662Y224961D01*
X145900Y224918D01*
X146296Y224901D01*
X146687Y224918D01*
X146942Y224961D01*
X147962Y225547D01*
X148521Y226583D01*
X148575Y227212D01*
X148521Y227809D01*
X149123Y227983D01*
X149161Y226567D01*
X148803Y225617D01*
X148173Y224885D01*
X147316Y224424D01*
X146280Y224256D01*
X144951Y224559D01*
X143882Y225384D01*
X143090Y226627D01*
X142889Y227153D01*
X142743Y227657D01*
X142694Y227826D01*
X142645Y227842D01*
X142493Y227815D01*
X142135Y227739D01*
X141609Y227625D01*
X140979Y227489D01*
X139829Y227245D01*
X139292Y227126D01*
X139129Y227077D01*
Y227044D01*
X139178Y226860D01*
X139303Y226491D01*
X139449Y226084D01*
X139574Y225758D01*
X140572Y223979D01*
X141858Y222650D01*
X143432Y221782D01*
X145303Y221364D01*
X145699Y221353D01*
X146247D01*
X146795Y221369D01*
X147218Y221402D01*
X148548Y221657D01*
X149709Y222091D01*
X150609Y222623D01*
X151363Y223279D01*
X151966Y224060D01*
X152432Y224966D01*
X152660Y225661D01*
X152817Y226447D01*
X152866Y227402D01*
X152817Y228336D01*
X152590Y229323D01*
X152232Y230213D01*
X151711Y231032D01*
X151027Y231813D01*
X150327Y232459D01*
X149519Y233056D01*
X148445Y233717D01*
X146953Y234547D01*
X145808Y235182D01*
X145016Y235660D01*
X144463Y236061D01*
X144034Y236463D01*
X143486Y237249D01*
X143318Y238117D01*
X143464Y239159D01*
X143898Y239973D01*
X144603Y240537D01*
X145558Y240819D01*
X146139Y240836D01*
X146714Y240770D01*
X147484Y240477D01*
X148152Y239951D01*
X148727Y239186D01*
X149221Y238166D01*
X149307Y237966D01*
X149367Y237922D01*
X149530Y237971D01*
X149909Y238074D01*
X150419Y238226D01*
X151005Y238394D01*
X151581Y238562D01*
X152080Y238714D01*
X152438Y238817D01*
X152579Y238861D01*
X152552Y238985D01*
X152465Y239262D01*
X152340Y239604D01*
X152221Y239919D01*
X151543Y241134D01*
X150653Y242138D01*
X149579Y242913D01*
X148325Y243440D01*
X146568Y243743D01*
X144647Y243657D01*
X142900Y243196D01*
X141500Y242360D01*
X140800Y241633D01*
X140258Y240749D01*
X139889Y239723D01*
X139688Y238573D01*
X139661Y237797D01*
X139699Y237087D01*
X139938Y236105D01*
X140377Y235199D01*
X141017Y234358D01*
X141880Y233566D01*
X142422Y233159D01*
X143052Y232746D01*
X143855Y232269D01*
X144940Y231661D01*
X145667Y231260D01*
X146209Y230951D01*
X146633Y230696D01*
X147007Y230457D01*
X148439Y229247D01*
X149123Y227983D01*
X148521Y227809D01*
X147924Y228878D01*
X146665Y229925D01*
X146302Y230158D01*
X145895Y230403D01*
X145379Y230696D01*
X144685Y231075D01*
X143307Y231851D01*
X142292Y232480D01*
X141517Y233045D01*
X140860Y233625D01*
X140111Y234466D01*
X139574Y235350D01*
X139156Y236533D01*
X139026Y237846D01*
X139118Y239132D01*
X139411Y240331D01*
X140171Y241855D01*
X141332Y243038D01*
X142862Y243863D01*
X144734Y244302D01*
X146193Y244384D01*
X147577Y244259D01*
X148852Y243933D01*
X149991Y243407D01*
X151130Y242561D01*
X152069Y241476D01*
X152796Y240174D01*
X153289Y238671D01*
X153349Y238416D01*
X151147Y237776D01*
X150284Y237532D01*
X149579Y237331D01*
X149101Y237201D01*
X148922Y237157D01*
X148846Y237358D01*
X148618Y237960D01*
X148358Y238535D01*
X147598Y239604D01*
X146649Y240136D01*
X146014Y240201D01*
X145363Y240152D01*
X144506Y239680D01*
X144169Y239219D01*
X143985Y238622D01*
X143947Y238139D01*
X143985Y237727D01*
X144332Y237076D01*
X145059Y236408D01*
X145412Y236164D01*
X145851Y235888D01*
X146426Y235562D01*
X147197Y235139D01*
X148065Y234667D01*
X148748Y234282D01*
X149307Y233951D01*
X149785Y233642D01*
X151011Y232714D01*
X151977Y231726D01*
X152704Y230674D01*
X153192Y229534D01*
X153468Y228162D01*
X153474Y226730D01*
X153219Y225330D01*
X152709Y224066D01*
X151912Y222948D01*
X150870Y222037D01*
X149600Y221359D01*
X148135Y220914D01*
X146757Y220740D01*
X145385Y220735D01*
Y220729D01*
G37*
G36*
X155970Y232535D02*X156610Y232540D01*
X156604Y221641D01*
X168030D01*
Y224798D01*
X160256D01*
Y231319D01*
X165941D01*
Y234488D01*
X160256D01*
Y240271D01*
X167716D01*
Y243440D01*
X156621D01*
X156610Y232540D01*
X155970Y232535D01*
Y244064D01*
X168350D01*
Y239653D01*
X160890D01*
Y235133D01*
X166571D01*
Y230723D01*
X160907D01*
X160896Y228091D01*
X160890Y225460D01*
X168654D01*
Y221022D01*
X155970D01*
Y232535D01*
G37*
G36*
X133107Y222623D02*X132825Y222812D01*
X132646Y223100D01*
X132641Y223534D01*
X132868Y223887D01*
X132999Y223979D01*
X133010Y224440D01*
X133015Y225552D01*
Y227126D01*
X134111Y228504D01*
X135201Y229887D01*
X136531D01*
X136617Y230007D01*
X136845Y230202D01*
X136997Y230267D01*
X137203Y230278D01*
X137404Y230272D01*
X137556Y230202D01*
X137778Y230012D01*
X137914Y229768D01*
X137930Y229486D01*
X137865Y229214D01*
X137589Y228927D01*
X137203Y228813D01*
X136645Y229062D01*
X136520Y229198D01*
X135532D01*
X134615Y228043D01*
X133704Y226887D01*
Y223990D01*
X133807Y223919D01*
X134067Y223523D01*
X134035Y223024D01*
X133650Y222650D01*
X133107Y222617D01*
Y222623D01*
G37*
G36*
X131941Y246782D02*X131056Y247069D01*
X130291Y247628D01*
X129743Y248360D01*
X129456Y249223D01*
X129418Y249863D01*
X129499Y250482D01*
X129809Y251247D01*
X130329Y251898D01*
X131176Y252473D01*
X132147Y252716D01*
X133156Y252629D01*
X134100Y252202D01*
X134653Y251697D01*
X135077Y251079D01*
X135310Y250395D01*
X135380Y249668D01*
X135272Y248941D01*
X135006Y248268D01*
X134599Y247720D01*
X134084Y247275D01*
X133482Y246955D01*
X132831Y246782D01*
X132380Y246760D01*
X131941Y246782D01*
G37*
G54D55*X209500Y269500D02*Y10500D01*
X159500D02*X149500Y500D01*
X209500Y10500D02*X159500D01*
X500Y269500D02*X209500D01*
X114500Y195500D02*X111000D01*
Y166500D01*
X114500D01*
Y157500D02*X111000D01*
Y128500D01*
X114500D01*
X30500Y32500D02*Y28500D01*
X28500Y30500D02*X32500D01*
X139500Y32500D02*Y28500D01*
X137500Y30500D02*X141500D01*
X500Y10500D02*Y269500D01*
X149500Y500D02*X20500D01*
X55000Y7500D02*Y3500D01*
X53000Y5500D02*X57000D01*
X73000D02*X77000D01*
X500Y10500D02*X10500D01*
X20500Y500D02*X10500Y10500D01*
X95000Y7500D02*Y3500D01*
X93000Y5500D02*X97000D01*
X113000D02*X117000D01*
G54D56*X185500Y52000D02*Y48000D01*
X187000Y52000D02*X187500Y51500D01*
Y48500D01*
X187000Y48000D02*X187500Y48500D01*
X185000Y48000D02*X187000D01*
X185000Y52000D02*X187000D01*
X188700Y51500D02*X189200Y52000D01*
X190200D01*
X190700Y51500D01*
Y48500D01*
X190200Y48000D02*X190700Y48500D01*
X189200Y48000D02*X190200D01*
X188700Y48500D02*X189200Y48000D01*
Y50000D02*X190700D01*
X185500Y62000D02*Y58000D01*
X187000Y62000D02*X187500Y61500D01*
Y58500D01*
X187000Y58000D02*X187500Y58500D01*
X185000Y58000D02*X187000D01*
X185000Y62000D02*X187000D01*
X188700Y60000D02*X190700Y62000D01*
X188700Y60000D02*X191200D01*
X190700Y62000D02*Y58000D01*
X185500Y82000D02*Y78000D01*
X187000Y82000D02*X187500Y81500D01*
Y78500D01*
X187000Y78000D02*X187500Y78500D01*
X185000Y78000D02*X187000D01*
X185000Y82000D02*X187000D01*
X190200D02*X190700Y81500D01*
X189200Y82000D02*X190200D01*
X188700Y81500D02*X189200Y82000D01*
X188700Y81500D02*Y78500D01*
X189200Y78000D01*
X190200Y80000D02*X190700Y79500D01*
X188700Y80000D02*X190200D01*
X189200Y78000D02*X190200D01*
X190700Y78500D01*
Y79500D02*Y78500D01*
X185500Y72000D02*Y68000D01*
X187000Y72000D02*X187500Y71500D01*
Y68500D01*
X187000Y68000D02*X187500Y68500D01*
X185000Y68000D02*X187000D01*
X185000Y72000D02*X187000D01*
X188700D02*X190700D01*
X188700D02*Y70000D01*
X189200Y70500D01*
X190200D01*
X190700Y70000D01*
Y68500D01*
X190200Y68000D02*X190700Y68500D01*
X189200Y68000D02*X190200D01*
X188700Y68500D02*X189200Y68000D01*
X18000Y71500D02*Y68000D01*
Y71500D02*X18500Y72000D01*
X20000D01*
X20500Y71500D01*
Y68000D01*
X18000Y70000D02*X20500D01*
X21700Y68500D02*X22200Y68000D01*
X21700Y71500D02*Y68500D01*
Y71500D02*X22200Y72000D01*
X23200D01*
X23700Y71500D01*
Y68500D01*
X23200Y68000D02*X23700Y68500D01*
X22200Y68000D02*X23200D01*
X21700Y69000D02*X23700Y71000D01*
X185500Y42000D02*Y38000D01*
X187000Y42000D02*X187500Y41500D01*
Y38500D01*
X187000Y38000D02*X187500Y38500D01*
X185000Y38000D02*X187000D01*
X185000Y42000D02*X187000D01*
X188700Y41500D02*X189200Y42000D01*
X190700D01*
X191200Y41500D01*
Y40500D01*
X188700Y38000D02*X191200Y40500D01*
X188700Y38000D02*X191200D01*
X175000Y32000D02*X177000D01*
X176000D02*Y28000D01*
X178200Y32000D02*Y31500D01*
X180700Y29000D01*
Y28000D01*
X178200Y29000D02*Y28000D01*
Y29000D02*X180700Y31500D01*
Y32000D02*Y31500D01*
X181900Y28500D02*X184900Y31500D01*
X186600Y32000D02*Y28000D01*
X188100Y32000D02*X188600Y31500D01*
Y28500D01*
X188100Y28000D02*X188600Y28500D01*
X186100Y28000D02*X188100D01*
X186100Y32000D02*X188100D01*
X190300Y28000D02*X191300D01*
X190800Y32000D02*Y28000D01*
X189800Y31000D02*X190800Y32000D01*
X174000Y22000D02*X176000D01*
X176500Y21500D01*
Y20500D01*
X176000Y20000D02*X176500Y20500D01*
X174500Y20000D02*X176000D01*
X174500Y22000D02*Y18000D01*
Y20000D02*X176500Y18000D01*
X177700Y22000D02*Y21500D01*
X180200Y19000D01*
Y18000D01*
X177700Y19000D02*Y18000D01*
Y19000D02*X180200Y21500D01*
Y22000D02*Y21500D01*
X181400Y18500D02*X184400Y21500D01*
X186100Y22000D02*Y18000D01*
X187600Y22000D02*X188100Y21500D01*
Y18500D01*
X187600Y18000D02*X188100Y18500D01*
X185600Y18000D02*X187600D01*
X185600Y22000D02*X187600D01*
X189300Y18500D02*X189800Y18000D01*
X189300Y21500D02*Y18500D01*
Y21500D02*X189800Y22000D01*
X190800D01*
X191300Y21500D01*
Y18500D01*
X190800Y18000D02*X191300Y18500D01*
X189800Y18000D02*X190800D01*
X189300Y19000D02*X191300Y21000D01*
X64000Y7000D02*Y3500D01*
Y7000D02*X64500Y7500D01*
X66000D01*
X66500Y7000D01*
Y3500D01*
X64000Y5500D02*X66500D01*
X104000Y3500D02*X106000D01*
X106500Y4000D01*
Y5000D02*Y4000D01*
X106000Y5500D02*X106500Y5000D01*
X104500Y5500D02*X106000D01*
X104500Y7500D02*Y3500D01*
X104000Y7500D02*X106000D01*
X106500Y7000D01*
Y6000D01*
X106000Y5500D02*X106500Y6000D01*
X185500Y108000D02*Y104000D01*
X187000Y108000D02*X187500Y107500D01*
Y104500D01*
X187000Y104000D02*X187500Y104500D01*
X185000Y104000D02*X187000D01*
X185000Y108000D02*X187000D01*
X188700Y104500D02*X189200Y104000D01*
X188700Y105500D02*Y104500D01*
Y105500D02*X189200Y106000D01*
X190200D01*
X190700Y105500D01*
Y104500D01*
X190200Y104000D02*X190700Y104500D01*
X189200Y104000D02*X190200D01*
X188700Y106500D02*X189200Y106000D01*
X188700Y107500D02*Y106500D01*
Y107500D02*X189200Y108000D01*
X190200D01*
X190700Y107500D01*
Y106500D01*
X190200Y106000D02*X190700Y106500D01*
X183500Y148000D02*Y144000D01*
X185000Y148000D02*X185500Y147500D01*
Y144500D01*
X185000Y144000D02*X185500Y144500D01*
X183000Y144000D02*X185000D01*
X183000Y148000D02*X185000D01*
X187200Y144000D02*X188200D01*
X187700Y148000D02*Y144000D01*
X186700Y147000D02*X187700Y148000D01*
X189400Y147500D02*X189900Y148000D01*
X191400D01*
X191900Y147500D01*
Y146500D01*
X189400Y144000D02*X191900Y146500D01*
X189400Y144000D02*X191900D01*
X183500Y138000D02*Y134000D01*
X185000Y138000D02*X185500Y137500D01*
Y134500D01*
X185000Y134000D02*X185500Y134500D01*
X183000Y134000D02*X185000D01*
X183000Y138000D02*X185000D01*
X187200Y134000D02*X188200D01*
X187700Y138000D02*Y134000D01*
X186700Y137000D02*X187700Y138000D01*
X189900Y134000D02*X190900D01*
X190400Y138000D02*Y134000D01*
X189400Y137000D02*X190400Y138000D01*
X183500Y128000D02*Y124000D01*
X185000Y128000D02*X185500Y127500D01*
Y124500D01*
X185000Y124000D02*X185500Y124500D01*
X183000Y124000D02*X185000D01*
X183000Y128000D02*X185000D01*
X187200Y124000D02*X188200D01*
X187700Y128000D02*Y124000D01*
X186700Y127000D02*X187700Y128000D01*
X189400Y124500D02*X189900Y124000D01*
X189400Y127500D02*Y124500D01*
Y127500D02*X189900Y128000D01*
X190900D01*
X191400Y127500D01*
Y124500D01*
X190900Y124000D02*X191400Y124500D01*
X189900Y124000D02*X190900D01*
X189400Y125000D02*X191400Y127000D01*
X185500Y118000D02*Y114000D01*
X187000Y118000D02*X187500Y117500D01*
Y114500D01*
X187000Y114000D02*X187500Y114500D01*
X185000Y114000D02*X187000D01*
X185000Y118000D02*X187000D01*
X188700Y114000D02*X190700Y116000D01*
Y117500D02*Y116000D01*
X190200Y118000D02*X190700Y117500D01*
X189200Y118000D02*X190200D01*
X188700Y117500D02*X189200Y118000D01*
X188700Y117500D02*Y116500D01*
X189200Y116000D01*
X190700D01*
X180000Y177500D02*Y174000D01*
Y177500D02*X180500Y178000D01*
X182000D01*
X182500Y177500D01*
Y174000D01*
X180000Y176000D02*X182500D01*
X183700Y178000D02*X185700D01*
X186200Y177500D01*
Y176500D01*
X185700Y176000D02*X186200Y176500D01*
X184200Y176000D02*X185700D01*
X184200Y178000D02*Y174000D01*
Y176000D02*X186200Y174000D01*
X187400Y176000D02*X188900D01*
X187400Y174000D02*X189400D01*
X187400Y178000D02*Y174000D01*
Y178000D02*X189400D01*
X190600D02*Y174000D01*
Y178000D02*X192600D01*
X190600Y176000D02*X192100D01*
X184000Y168000D02*X184500Y167500D01*
X182500Y168000D02*X184000D01*
X182000Y167500D02*X182500Y168000D01*
X182000Y167500D02*Y164500D01*
X182500Y164000D01*
X184000D01*
X184500Y164500D01*
Y165500D02*Y164500D01*
X184000Y166000D02*X184500Y165500D01*
X183000Y166000D02*X184000D01*
X185700Y168000D02*Y164000D01*
Y168000D02*Y167500D01*
X188200Y165000D01*
Y168000D02*Y164000D01*
X189900Y168000D02*Y164000D01*
X191400Y168000D02*X191900Y167500D01*
Y164500D01*
X191400Y164000D02*X191900Y164500D01*
X189400Y164000D02*X191400D01*
X189400Y168000D02*X191400D01*
X183500Y158000D02*Y154000D01*
X185000Y158000D02*X185500Y157500D01*
Y154500D01*
X185000Y154000D02*X185500Y154500D01*
X183000Y154000D02*X185000D01*
X183000Y158000D02*X185000D01*
X187200Y154000D02*X188200D01*
X187700Y158000D02*Y154000D01*
X186700Y157000D02*X187700Y158000D01*
X189400Y157500D02*X189900Y158000D01*
X190900D01*
X191400Y157500D01*
Y154500D01*
X190900Y154000D02*X191400Y154500D01*
X189900Y154000D02*X190900D01*
X189400Y154500D02*X189900Y154000D01*
Y156000D02*X191400D01*
X185500Y92000D02*Y88000D01*
X187000Y92000D02*X187500Y91500D01*
Y88500D01*
X187000Y88000D02*X187500Y88500D01*
X185000Y88000D02*X187000D01*
X185000Y92000D02*X187000D01*
X188700Y88000D02*X191200Y90500D01*
Y92000D02*Y90500D01*
X188700Y92000D02*X191200D01*
X184000Y188000D02*X184500Y187500D01*
X182500Y188000D02*X184000D01*
X182000Y187500D02*X182500Y188000D01*
X182000Y187500D02*Y186500D01*
X182500Y186000D01*
X184000D01*
X184500Y185500D01*
Y184500D01*
X184000Y184000D02*X184500Y184500D01*
X182500Y184000D02*X184000D01*
X182000Y184500D02*X182500Y184000D01*
X186200Y188000D02*Y184000D01*
X187700Y188000D02*X188200Y187500D01*
Y184500D01*
X187700Y184000D02*X188200Y184500D01*
X185700Y184000D02*X187700D01*
X185700Y188000D02*X187700D01*
X189400Y187500D02*Y184000D01*
Y187500D02*X189900Y188000D01*
X191400D01*
X191900Y187500D01*
Y184000D01*
X189400Y186000D02*X191900D01*
X18000Y22500D02*Y19000D01*
Y22500D02*X18500Y23000D01*
X20000D01*
X20500Y22500D01*
Y19000D01*
X18000Y21000D02*X20500D01*
X21700Y23000D02*X23700D01*
X21700D02*Y21000D01*
X22200Y21500D01*
X23200D01*
X23700Y21000D01*
Y19500D01*
X23200Y19000D02*X23700Y19500D01*
X22200Y19000D02*X23200D01*
X21700Y19500D02*X22200Y19000D01*
X18000Y31500D02*Y28000D01*
Y31500D02*X18500Y32000D01*
X20000D01*
X20500Y31500D01*
Y28000D01*
X18000Y30000D02*X20500D01*
X21700D02*X23700Y32000D01*
X21700Y30000D02*X24200D01*
X23700Y32000D02*Y28000D01*
X18000Y41500D02*Y38000D01*
Y41500D02*X18500Y42000D01*
X20000D01*
X20500Y41500D01*
Y38000D01*
X18000Y40000D02*X20500D01*
X21700Y41500D02*X22200Y42000D01*
X23200D01*
X23700Y41500D01*
Y38500D01*
X23200Y38000D02*X23700Y38500D01*
X22200Y38000D02*X23200D01*
X21700Y38500D02*X22200Y38000D01*
Y40000D02*X23700D01*
X18000Y51500D02*Y48000D01*
Y51500D02*X18500Y52000D01*
X20000D01*
X20500Y51500D01*
Y48000D01*
X18000Y50000D02*X20500D01*
X21700Y51500D02*X22200Y52000D01*
X23700D01*
X24200Y51500D01*
Y50500D01*
X21700Y48000D02*X24200Y50500D01*
X21700Y48000D02*X24200D01*
X18000Y61500D02*Y58000D01*
Y61500D02*X18500Y62000D01*
X20000D01*
X20500Y61500D01*
Y58000D01*
X18000Y60000D02*X20500D01*
X22200Y58000D02*X23200D01*
X22700Y62000D02*Y58000D01*
X21700Y61000D02*X22700Y62000D01*
X18000Y122000D02*X20000D01*
X18000D02*Y120000D01*
X18500Y120500D01*
X19500D01*
X20000Y120000D01*
Y118500D01*
X19500Y118000D02*X20000Y118500D01*
X18500Y118000D02*X19500D01*
X18000Y118500D02*X18500Y118000D01*
X21200Y122000D02*Y119000D01*
X22200Y118000D01*
X23200Y119000D01*
Y122000D02*Y119000D01*
X18000Y131500D02*X18500Y132000D01*
X19500D01*
X20000Y131500D01*
Y128500D01*
X19500Y128000D02*X20000Y128500D01*
X18500Y128000D02*X19500D01*
X18000Y128500D02*X18500Y128000D01*
Y130000D02*X20000D01*
X21200Y128000D02*X21700D01*
X22900Y131500D02*X23400Y132000D01*
X24400D01*
X24900Y131500D01*
Y128500D01*
X24400Y128000D02*X24900Y128500D01*
X23400Y128000D02*X24400D01*
X22900Y128500D02*X23400Y128000D01*
Y130000D02*X24900D01*
X26100Y132000D02*Y129000D01*
X27100Y128000D01*
X28100Y129000D01*
Y132000D02*Y129000D01*
X18000Y92000D02*Y89000D01*
X19000Y88000D01*
X20000Y89000D01*
Y92000D02*Y89000D01*
X21200Y92000D02*X22200D01*
X21700D02*Y88000D01*
X21200D02*X22200D01*
X23400Y92000D02*Y88000D01*
Y92000D02*Y91500D01*
X25900Y89000D01*
Y92000D02*Y88000D01*
X20000Y102000D02*X20500Y101500D01*
X18500Y102000D02*X20000D01*
X18000Y101500D02*X18500Y102000D01*
X18000Y101500D02*Y98500D01*
X18500Y98000D01*
X20000D01*
X20500Y98500D01*
Y99500D02*Y98500D01*
X20000Y100000D02*X20500Y99500D01*
X19000Y100000D02*X20000D01*
X21700Y102000D02*Y98000D01*
Y102000D02*Y101500D01*
X24200Y99000D01*
Y102000D02*Y98000D01*
X25900Y102000D02*Y98000D01*
X27400Y102000D02*X27900Y101500D01*
Y98500D01*
X27400Y98000D02*X27900Y98500D01*
X25400Y98000D02*X27400D01*
X25400Y102000D02*X27400D01*
X20000Y112000D02*X20500Y111500D01*
X18500Y112000D02*X20000D01*
X18000Y111500D02*X18500Y112000D01*
X18000Y111500D02*Y108500D01*
X18500Y108000D01*
X20000D01*
X20500Y108500D01*
Y109500D02*Y108500D01*
X20000Y110000D02*X20500Y109500D01*
X19000Y110000D02*X20000D01*
X21700Y112000D02*Y108000D01*
Y112000D02*Y111500D01*
X24200Y109000D01*
Y112000D02*Y108000D01*
X25900Y112000D02*Y108000D01*
X27400Y112000D02*X27900Y111500D01*
Y108500D01*
X27400Y108000D02*X27900Y108500D01*
X25400Y108000D02*X27400D01*
X25400Y112000D02*X27400D01*
X18000Y152000D02*X19000D01*
X18500D02*Y148000D01*
X18000D02*X19000D01*
X20200Y151500D02*Y148500D01*
Y151500D02*X20700Y152000D01*
X21700D01*
X22200Y151500D01*
Y148500D01*
X21700Y148000D02*X22200Y148500D01*
X20700Y148000D02*X21700D01*
X20200Y148500D02*X20700Y148000D01*
X23400Y152000D02*X25400D01*
X25900Y151500D01*
Y150500D01*
X25400Y150000D02*X25900Y150500D01*
X23900Y150000D02*X25400D01*
X23900Y152000D02*Y148000D01*
Y150000D02*X25900Y148000D01*
X27100Y150000D02*X28600D01*
X27100Y148000D02*X29100D01*
X27100Y152000D02*Y148000D01*
Y152000D02*X29100D01*
X30300D02*Y148000D01*
Y152000D02*X32300D01*
X30300Y150000D02*X31800D01*
X18000Y142000D02*X20000D01*
X20500Y141500D01*
Y140500D01*
X20000Y140000D02*X20500Y140500D01*
X18500Y140000D02*X20000D01*
X18500Y142000D02*Y138000D01*
Y140000D02*X20500Y138000D01*
X21700Y140000D02*X23200D01*
X21700Y138000D02*X23700D01*
X21700Y142000D02*Y138000D01*
Y142000D02*X23700D01*
X26900D02*X27400Y141500D01*
X25400Y142000D02*X26900D01*
X24900Y141500D02*X25400Y142000D01*
X24900Y141500D02*Y140500D01*
X25400Y140000D01*
X26900D01*
X27400Y139500D01*
Y138500D01*
X26900Y138000D02*X27400Y138500D01*
X25400Y138000D02*X26900D01*
X24900Y138500D02*X25400Y138000D01*
X28600Y140000D02*X30100D01*
X28600Y138000D02*X30600D01*
X28600Y142000D02*Y138000D01*
Y142000D02*X30600D01*
X31800D02*X33800D01*
X32800D02*Y138000D01*
X18000Y162000D02*Y158000D01*
Y162000D02*Y161500D01*
X20500Y159000D01*
Y162000D02*Y158000D01*
X21700Y158500D02*X24700Y161500D01*
X26400Y158000D02*X27900D01*
X25900Y158500D02*X26400Y158000D01*
X25900Y161500D02*Y158500D01*
Y161500D02*X26400Y162000D01*
X27900D01*
X185000Y198000D02*X185500Y197500D01*
X183500Y198000D02*X185000D01*
X183000Y197500D02*X183500Y198000D01*
X183000Y197500D02*Y196500D01*
X183500Y196000D01*
X185000D01*
X185500Y195500D01*
Y194500D01*
X185000Y194000D02*X185500Y194500D01*
X183500Y194000D02*X185000D01*
X183000Y194500D02*X183500Y194000D01*
X187200D02*X188700D01*
X186700Y194500D02*X187200Y194000D01*
X186700Y197500D02*Y194500D01*
Y197500D02*X187200Y198000D01*
X188700D01*
X189900D02*Y194000D01*
X191900D01*
X113000Y192500D02*Y189500D01*
Y192500D02*X113500Y193000D01*
X114500D01*
X115000Y192500D01*
Y189500D01*
X114500Y189000D02*X115000Y189500D01*
X113500Y189000D02*X114500D01*
X113000Y189500D02*X113500Y189000D01*
X116700D02*X118200D01*
X116200Y189500D02*X116700Y189000D01*
X116200Y192500D02*Y189500D01*
Y192500D02*X116700Y193000D01*
X118200D01*
X119400Y192500D02*X119900Y193000D01*
X121400D01*
X121900Y192500D01*
Y191500D01*
X119400Y189000D02*X121900Y191500D01*
X119400Y189000D02*X121900D01*
X123100Y192500D02*Y189000D01*
Y192500D02*X123600Y193000D01*
X125100D01*
X125600Y192500D01*
Y189000D01*
X123100Y191000D02*X125600D01*
X114000Y182500D02*Y179500D01*
Y182500D02*X114500Y183000D01*
X115500D01*
X116000Y182500D01*
Y179500D01*
X115500Y179000D02*X116000Y179500D01*
X114500Y179000D02*X115500D01*
X114000Y179500D02*X114500Y179000D01*
X117700D02*X119200D01*
X117200Y179500D02*X117700Y179000D01*
X117200Y182500D02*Y179500D01*
Y182500D02*X117700Y183000D01*
X119200D01*
X120900Y179000D02*X121900D01*
X121400Y183000D02*Y179000D01*
X120400Y182000D02*X121400Y183000D01*
X123100Y182500D02*Y179000D01*
Y182500D02*X123600Y183000D01*
X125100D01*
X125600Y182500D01*
Y179000D01*
X123100Y181000D02*X125600D01*
X113500Y172500D02*Y169500D01*
Y172500D02*X114000Y173000D01*
X115000D01*
X115500Y172500D01*
Y169500D01*
X115000Y169000D02*X115500Y169500D01*
X114000Y169000D02*X115000D01*
X113500Y169500D02*X114000Y169000D01*
X117200D02*X118700D01*
X116700Y169500D02*X117200Y169000D01*
X116700Y172500D02*Y169500D01*
Y172500D02*X117200Y173000D01*
X118700D01*
X119900Y169500D02*X120400Y169000D01*
X119900Y172500D02*Y169500D01*
Y172500D02*X120400Y173000D01*
X121400D01*
X121900Y172500D01*
Y169500D01*
X121400Y169000D02*X121900Y169500D01*
X120400Y169000D02*X121400D01*
X119900Y170000D02*X121900Y172000D01*
X123100Y172500D02*Y169000D01*
Y172500D02*X123600Y173000D01*
X125100D01*
X125600Y172500D01*
Y169000D01*
X123100Y171000D02*X125600D01*
X109000Y178000D02*Y176500D01*
X108500Y176000D02*X109000Y176500D01*
X105500Y176000D02*X108500D01*
X105500D02*X105000Y176500D01*
Y178000D02*Y176500D01*
Y179200D02*X109000D01*
X105000Y181700D02*X109000D01*
X107000D02*Y179200D01*
X105500Y184700D02*X109000D01*
X105500D02*X105000Y185200D01*
Y186700D02*Y185200D01*
Y186700D02*X105500Y187200D01*
X109000D01*
X107000D02*Y184700D01*
X113500Y154500D02*Y151500D01*
Y154500D02*X114000Y155000D01*
X115000D01*
X115500Y154500D01*
Y151500D01*
X115000Y151000D02*X115500Y151500D01*
X114000Y151000D02*X115000D01*
X113500Y151500D02*X114000Y151000D01*
X117200D02*X118700D01*
X116700Y151500D02*X117200Y151000D01*
X116700Y154500D02*Y151500D01*
Y154500D02*X117200Y155000D01*
X118700D01*
X119900Y151500D02*X120400Y151000D01*
X119900Y154500D02*Y151500D01*
Y154500D02*X120400Y155000D01*
X121400D01*
X121900Y154500D01*
Y151500D01*
X121400Y151000D02*X121900Y151500D01*
X120400Y151000D02*X121400D01*
X119900Y152000D02*X121900Y154000D01*
X123100Y151000D02*X125100D01*
X125600Y151500D01*
Y152500D02*Y151500D01*
X125100Y153000D02*X125600Y152500D01*
X123600Y153000D02*X125100D01*
X123600Y155000D02*Y151000D01*
X123100Y155000D02*X125100D01*
X125600Y154500D01*
Y153500D01*
X125100Y153000D02*X125600Y153500D01*
X114000Y144500D02*Y141500D01*
Y144500D02*X114500Y145000D01*
X115500D01*
X116000Y144500D01*
Y141500D01*
X115500Y141000D02*X116000Y141500D01*
X114500Y141000D02*X115500D01*
X114000Y141500D02*X114500Y141000D01*
X117700D02*X119200D01*
X117200Y141500D02*X117700Y141000D01*
X117200Y144500D02*Y141500D01*
Y144500D02*X117700Y145000D01*
X119200D01*
X120900Y141000D02*X121900D01*
X121400Y145000D02*Y141000D01*
X120400Y144000D02*X121400Y145000D01*
X123100Y141000D02*X125100D01*
X125600Y141500D01*
Y142500D02*Y141500D01*
X125100Y143000D02*X125600Y142500D01*
X123600Y143000D02*X125100D01*
X123600Y145000D02*Y141000D01*
X123100Y145000D02*X125100D01*
X125600Y144500D01*
Y143500D01*
X125100Y143000D02*X125600Y143500D01*
X113000Y134500D02*Y131500D01*
Y134500D02*X113500Y135000D01*
X114500D01*
X115000Y134500D01*
Y131500D01*
X114500Y131000D02*X115000Y131500D01*
X113500Y131000D02*X114500D01*
X113000Y131500D02*X113500Y131000D01*
X116700D02*X118200D01*
X116200Y131500D02*X116700Y131000D01*
X116200Y134500D02*Y131500D01*
Y134500D02*X116700Y135000D01*
X118200D01*
X119400Y134500D02*X119900Y135000D01*
X121400D01*
X121900Y134500D01*
Y133500D01*
X119400Y131000D02*X121900Y133500D01*
X119400Y131000D02*X121900D01*
X123100D02*X125100D01*
X125600Y131500D01*
Y132500D02*Y131500D01*
X125100Y133000D02*X125600Y132500D01*
X123600Y133000D02*X125100D01*
X123600Y135000D02*Y131000D01*
X123100Y135000D02*X125100D01*
X125600Y134500D01*
Y133500D01*
X125100Y133000D02*X125600Y133500D01*
X109000Y140000D02*Y138500D01*
X108500Y138000D02*X109000Y138500D01*
X105500Y138000D02*X108500D01*
X105500D02*X105000Y138500D01*
Y140000D02*Y138500D01*
Y141200D02*X109000D01*
X105000Y143700D02*X109000D01*
X107000D02*Y141200D01*
X109000Y148700D02*Y146700D01*
Y148700D02*X108500Y149200D01*
X107500D02*X108500D01*
X107000Y148700D02*X107500Y149200D01*
X107000Y148700D02*Y147200D01*
X105000D02*X109000D01*
X105000Y148700D02*Y146700D01*
Y148700D02*X105500Y149200D01*
X106500D01*
X107000Y148700D02*X106500Y149200D01*
X43500Y247500D02*Y244000D01*
Y247500D02*X44000Y248000D01*
X45500D01*
X46000Y247500D01*
Y244000D01*
X43500Y246000D02*X46000D01*
X47200Y248000D02*X49200D01*
X49700Y247500D01*
Y246500D01*
X49200Y246000D02*X49700Y246500D01*
X47700Y246000D02*X49200D01*
X47700Y248000D02*Y244000D01*
Y246000D02*X49700Y244000D01*
X51400Y248000D02*Y244000D01*
X52900Y248000D02*X53400Y247500D01*
Y244500D01*
X52900Y244000D02*X53400Y244500D01*
X50900Y244000D02*X52900D01*
X50900Y248000D02*X52900D01*
X54600Y246000D02*X56600D01*
X58300Y244000D02*X59800D01*
X57800Y244500D02*X58300Y244000D01*
X57800Y247500D02*Y244500D01*
Y247500D02*X58300Y248000D01*
X59800D01*
X61000D02*Y244000D01*
X63000D01*
X64200Y247500D02*Y244500D01*
Y247500D02*X64700Y248000D01*
X65700D01*
X66200Y247500D01*
Y244500D01*
X65700Y244000D02*X66200Y244500D01*
X64700Y244000D02*X65700D01*
X64200Y244500D02*X64700Y244000D01*
X67400Y248000D02*Y244500D01*
X67900Y244000D01*
X68900D01*
X69400Y244500D01*
Y248000D02*Y244500D01*
X71100Y248000D02*Y244000D01*
X72600Y248000D02*X73100Y247500D01*
Y244500D01*
X72600Y244000D02*X73100Y244500D01*
X70600Y244000D02*X72600D01*
X70600Y248000D02*X72600D01*
X76300D02*X76800Y247500D01*
X74800Y248000D02*X76300D01*
X74300Y247500D02*X74800Y248000D01*
X74300Y247500D02*Y246500D01*
X74800Y246000D01*
X76300D01*
X76800Y245500D01*
Y244500D01*
X76300Y244000D02*X76800Y244500D01*
X74800Y244000D02*X76300D01*
X74300Y244500D02*X74800Y244000D01*
X79800Y246000D02*Y245000D01*
X80800Y244000D01*
X81800Y245000D01*
Y246000D02*Y245000D01*
X83500Y244000D02*X84500D01*
X84000Y248000D02*Y244000D01*
X83000Y247000D02*X84000Y248000D01*
X85700Y244000D02*X86200D01*
X87400Y244500D02*X87900Y244000D01*
X87400Y247500D02*Y244500D01*
Y247500D02*X87900Y248000D01*
X88900D01*
X89400Y247500D01*
Y244500D01*
X88900Y244000D02*X89400Y244500D01*
X87900Y244000D02*X88900D01*
X87400Y245000D02*X89400Y247000D01*
X43500Y240500D02*X44500D01*
X44000D02*Y236500D01*
X43500D02*X44500D01*
X45700Y238000D02*Y237000D01*
Y238000D02*X46200Y238500D01*
X47200D01*
X47700Y238000D01*
Y237000D01*
X47200Y236500D02*X47700Y237000D01*
X46200Y236500D02*X47200D01*
X45700Y237000D02*X46200Y236500D01*
X48900Y238500D02*Y237000D01*
X49400Y236500D01*
X49900D01*
X50400Y237000D01*
Y238500D02*Y237000D01*
X50900Y236500D01*
X51400D01*
X51900Y237000D01*
Y238500D02*Y237000D01*
X54600Y238500D02*X55100Y238000D01*
X53600Y238500D02*X54600D01*
X53100Y238000D02*X53600Y238500D01*
X53100Y238000D02*Y237000D01*
X53600Y236500D01*
X55100Y238500D02*Y237000D01*
X55600Y236500D01*
X53600D02*X54600D01*
X55100Y237000D01*
X60600Y240500D02*X61100Y240000D01*
X59100Y240500D02*X60600D01*
X58600Y240000D02*X59100Y240500D01*
X58600Y240000D02*Y239000D01*
X59100Y238500D01*
X60600D01*
X61100Y238000D01*
Y237000D01*
X60600Y236500D02*X61100Y237000D01*
X59100Y236500D02*X60600D01*
X58600Y237000D02*X59100Y236500D01*
X62800Y238500D02*X64300D01*
X62300Y238000D02*X62800Y238500D01*
X62300Y238000D02*Y237000D01*
X62800Y236500D01*
X64300D01*
X67000Y238500D02*X67500Y238000D01*
X66000Y238500D02*X67000D01*
X65500Y238000D02*X66000Y238500D01*
X65500Y238000D02*Y237000D01*
X66000Y236500D01*
X67500Y238500D02*Y237000D01*
X68000Y236500D01*
X66000D02*X67000D01*
X67500Y237000D01*
X69200Y240500D02*Y237000D01*
X69700Y236500D01*
X71200D02*X72700D01*
X70700Y237000D02*X71200Y236500D01*
X70700Y238000D02*Y237000D01*
Y238000D02*X71200Y238500D01*
X72200D01*
X72700Y238000D01*
X70700Y237500D02*X72700D01*
Y238000D02*Y237500D01*
X75900Y240500D02*Y236500D01*
X75400D02*X75900Y237000D01*
X74400Y236500D02*X75400D01*
X73900Y237000D02*X74400Y236500D01*
X73900Y238000D02*Y237000D01*
Y238000D02*X74400Y238500D01*
X75400D01*
X75900Y238000D01*
X78900Y238500D02*X80400D01*
X78900Y236500D02*X80900D01*
X78900Y240500D02*Y236500D01*
Y240500D02*X80900D01*
X82600Y238000D02*Y236500D01*
Y238000D02*X83100Y238500D01*
X83600D01*
X84100Y238000D01*
Y236500D01*
X82100Y238500D02*X82600Y238000D01*
X86800Y238500D02*X87300Y238000D01*
X85800Y238500D02*X86800D01*
X85300Y238000D02*X85800Y238500D01*
X85300Y238000D02*Y237000D01*
X85800Y236500D01*
X86800D01*
X87300Y237000D01*
X85300Y235500D02*X85800Y235000D01*
X86800D01*
X87300Y235500D01*
Y238500D02*Y235500D01*
X88500Y239500D02*Y239000D01*
Y238000D02*Y236500D01*
X90000Y238000D02*Y236500D01*
Y238000D02*X90500Y238500D01*
X91000D01*
X91500Y238000D01*
Y236500D01*
X89500Y238500D02*X90000Y238000D01*
X93200Y236500D02*X94700D01*
X92700Y237000D02*X93200Y236500D01*
X92700Y238000D02*Y237000D01*
Y238000D02*X93200Y238500D01*
X94200D01*
X94700Y238000D01*
X92700Y237500D02*X94700D01*
Y238000D02*Y237500D01*
X96400Y236500D02*X97900D01*
X95900Y237000D02*X96400Y236500D01*
X95900Y238000D02*Y237000D01*
Y238000D02*X96400Y238500D01*
X97400D01*
X97900Y238000D01*
X95900Y237500D02*X97900D01*
Y238000D02*Y237500D01*
X99600Y238000D02*Y236500D01*
Y238000D02*X100100Y238500D01*
X101100D01*
X99100D02*X99600Y238000D01*
X102300Y239500D02*Y239000D01*
Y238000D02*Y236500D01*
X103800Y238000D02*Y236500D01*
Y238000D02*X104300Y238500D01*
X104800D01*
X105300Y238000D01*
Y236500D01*
X103300Y238500D02*X103800Y238000D01*
X108000Y238500D02*X108500Y238000D01*
X107000Y238500D02*X108000D01*
X106500Y238000D02*X107000Y238500D01*
X106500Y238000D02*Y237000D01*
X107000Y236500D01*
X108000D01*
X108500Y237000D01*
X106500Y235500D02*X107000Y235000D01*
X108000D01*
X108500Y235500D01*
Y238500D02*Y235500D01*
X43500Y233000D02*Y229000D01*
Y230500D02*X44000Y231000D01*
X45000D01*
X45500Y230500D01*
Y229000D01*
X47200Y233000D02*Y229500D01*
X47700Y229000D01*
X46700Y231500D02*X47700D01*
X49200Y233000D02*Y229500D01*
X49700Y229000D01*
X48700Y231500D02*X49700D01*
X51200Y230500D02*Y227500D01*
X50700Y231000D02*X51200Y230500D01*
X51700Y231000D01*
X52700D01*
X53200Y230500D01*
Y229500D01*
X52700Y229000D02*X53200Y229500D01*
X51700Y229000D02*X52700D01*
X51200Y229500D02*X51700Y229000D01*
X54400Y231500D02*X54900D01*
X54400Y230500D02*X54900D01*
X56100Y229500D02*X59100Y232500D01*
X60300Y229500D02*X63300Y232500D01*
X64500Y231000D02*Y229500D01*
X65000Y229000D01*
X65500D01*
X66000Y229500D01*
Y231000D02*Y229500D01*
X66500Y229000D01*
X67000D01*
X67500Y229500D01*
Y231000D02*Y229500D01*
X68700Y231000D02*Y229500D01*
X69200Y229000D01*
X69700D01*
X70200Y229500D01*
Y231000D02*Y229500D01*
X70700Y229000D01*
X71200D01*
X71700Y229500D01*
Y231000D02*Y229500D01*
X72900Y231000D02*Y229500D01*
X73400Y229000D01*
X73900D01*
X74400Y229500D01*
Y231000D02*Y229500D01*
X74900Y229000D01*
X75400D01*
X75900Y229500D01*
Y231000D02*Y229500D01*
X77100Y229000D02*X77600D01*
X78800Y232000D02*Y231500D01*
Y230500D02*Y229000D01*
X81300Y231000D02*X81800Y230500D01*
X80300Y231000D02*X81300D01*
X79800Y230500D02*X80300Y231000D01*
X79800Y230500D02*Y229500D01*
X80300Y229000D01*
X81800Y231000D02*Y229500D01*
X82300Y229000D01*
X80300D02*X81300D01*
X81800Y229500D01*
X84000Y229000D02*X85500D01*
X86000Y229500D01*
X85500Y230000D02*X86000Y229500D01*
X84000Y230000D02*X85500D01*
X83500Y230500D02*X84000Y230000D01*
X83500Y230500D02*X84000Y231000D01*
X85500D01*
X86000Y230500D01*
X83500Y229500D02*X84000Y229000D01*
X87700Y231000D02*X89200D01*
X87200Y230500D02*X87700Y231000D01*
X87200Y230500D02*Y229500D01*
X87700Y229000D01*
X89200D01*
X91900Y231000D02*X92400Y230500D01*
X90900Y231000D02*X91900D01*
X90400Y230500D02*X90900Y231000D01*
X90400Y230500D02*Y229500D01*
X90900Y229000D01*
X92400Y231000D02*Y229500D01*
X92900Y229000D01*
X90900D02*X91900D01*
X92400Y229500D01*
X94100Y233000D02*Y229500D01*
X94600Y229000D01*
X96100D02*X97600D01*
X95600Y229500D02*X96100Y229000D01*
X95600Y230500D02*Y229500D01*
Y230500D02*X96100Y231000D01*
X97100D01*
X97600Y230500D01*
X95600Y230000D02*X97600D01*
Y230500D02*Y230000D01*
X100800Y233000D02*Y229000D01*
X100300D02*X100800Y229500D01*
X99300Y229000D02*X100300D01*
X98800Y229500D02*X99300Y229000D01*
X98800Y230500D02*Y229500D01*
Y230500D02*X99300Y231000D01*
X100300D01*
X100800Y230500D01*
X102000Y229000D02*X102500D01*
X104200Y231000D02*X105700D01*
X103700Y230500D02*X104200Y231000D01*
X103700Y230500D02*Y229500D01*
X104200Y229000D01*
X105700D01*
X106900Y230500D02*Y229500D01*
Y230500D02*X107400Y231000D01*
X108400D01*
X108900Y230500D01*
Y229500D01*
X108400Y229000D02*X108900Y229500D01*
X107400Y229000D02*X108400D01*
X106900Y229500D02*X107400Y229000D01*
X110600Y230500D02*Y229000D01*
Y230500D02*X111100Y231000D01*
X111600D01*
X112100Y230500D01*
Y229000D01*
Y230500D02*X112600Y231000D01*
X113100D01*
X113600Y230500D01*
Y229000D01*
X110100Y231000D02*X110600Y230500D01*
X44000Y221500D02*X45500D01*
X43500Y222000D02*X44000Y221500D01*
X43500Y225000D02*Y222000D01*
Y225000D02*X44000Y225500D01*
X45500D01*
X47200Y221500D02*X48700D01*
X46700Y222000D02*X47200Y221500D01*
X46700Y225000D02*Y222000D01*
Y225000D02*X47200Y225500D01*
X48700D01*
X51700Y221500D02*X53700D01*
X54200Y222000D01*
Y223000D02*Y222000D01*
X53700Y223500D02*X54200Y223000D01*
X52200Y223500D02*X53700D01*
X52200Y225500D02*Y221500D01*
X51700Y225500D02*X53700D01*
X54200Y225000D01*
Y224000D01*
X53700Y223500D02*X54200Y224000D01*
X55400Y225500D02*Y225000D01*
X56400Y224000D01*
X57400Y225000D01*
Y225500D02*Y225000D01*
X56400Y224000D02*Y221500D01*
X58600Y223500D02*X60600D01*
X63800Y225500D02*X64300Y225000D01*
X62300Y225500D02*X63800D01*
X61800Y225000D02*X62300Y225500D01*
X61800Y225000D02*Y224000D01*
X62300Y223500D01*
X63800D01*
X64300Y223000D01*
Y222000D01*
X63800Y221500D02*X64300Y222000D01*
X62300Y221500D02*X63800D01*
X61800Y222000D02*X62300Y221500D01*
X65500Y225000D02*Y221500D01*
Y225000D02*X66000Y225500D01*
X67500D01*
X68000Y225000D01*
Y221500D01*
X65500Y223500D02*X68000D01*
X71000Y222000D02*X71500Y221500D01*
X71000Y225000D02*X71500Y225500D01*
X71000Y225000D02*Y222000D01*
X73200Y221500D02*X74700D01*
X72700Y222000D02*X73200Y221500D01*
X72700Y225000D02*Y222000D01*
Y225000D02*X73200Y225500D01*
X74700D01*
X75900D02*X76400Y225000D01*
Y222000D01*
X75900Y221500D02*X76400Y222000D01*
X77600Y225000D02*X78100Y225500D01*
X79600D01*
X80100Y225000D01*
Y224000D01*
X77600Y221500D02*X80100Y224000D01*
X77600Y221500D02*X80100D01*
X81300Y222000D02*X81800Y221500D01*
X81300Y225000D02*Y222000D01*
Y225000D02*X81800Y225500D01*
X82800D01*
X83300Y225000D01*
Y222000D01*
X82800Y221500D02*X83300Y222000D01*
X81800Y221500D02*X82800D01*
X81300Y222500D02*X83300Y224500D01*
X85000Y221500D02*X86000D01*
X85500Y225500D02*Y221500D01*
X84500Y224500D02*X85500Y225500D01*
X87200Y222000D02*X87700Y221500D01*
X87200Y223000D02*Y222000D01*
Y223000D02*X87700Y223500D01*
X88700D01*
X89200Y223000D01*
Y222000D01*
X88700Y221500D02*X89200Y222000D01*
X87700Y221500D02*X88700D01*
X87200Y224000D02*X87700Y223500D01*
X87200Y225000D02*Y224000D01*
Y225000D02*X87700Y225500D01*
X88700D01*
X89200Y225000D01*
Y224000D01*
X88700Y223500D02*X89200Y224000D01*
G54D55*X5000Y165000D02*Y85000D01*
X15000D01*
Y165000D01*
X5000D01*
Y155000D02*X15000D01*
Y165000D01*
X5000Y75000D02*Y15000D01*
X15000D01*
Y75000D01*
X5000D01*
Y65000D02*X15000D01*
Y75000D01*
X44255Y97893D02*Y97107D01*
X38745Y97893D02*Y97107D01*
X34245Y27393D02*Y26607D01*
X39755Y27393D02*Y26607D01*
X88741Y77799D02*Y65201D01*
X81259D02*X88741D01*
X81259Y77799D02*Y65201D01*
Y77799D02*X88741D01*
X97600Y70800D02*Y56900D01*
X110400D01*
Y70800D01*
X97600D01*
X78701Y158259D02*X91299D01*
X78701Y165741D02*Y158259D01*
Y165741D02*X91299D01*
Y158259D01*
X57107Y160745D02*X57893D01*
X57107Y166255D02*X57893D01*
X57107Y151745D02*X57893D01*
X57107Y157255D02*X57893D01*
X91890Y152299D02*Y139701D01*
X78110D02*X91890D01*
X78110Y152299D02*Y139701D01*
Y152299D02*X91890D01*
X88741Y132299D02*Y119701D01*
X81259D02*X88741D01*
X81259Y132299D02*Y119701D01*
Y132299D02*X88741D01*
X45000Y10200D02*X85000D01*
X45000Y40200D02*X85000D01*
X45000Y35800D02*X85000D01*
X45000Y40200D02*Y10200D01*
X85000Y40200D02*Y10200D01*
X64607Y51255D02*X65393D01*
X64607Y45745D02*X65393D01*
X57600Y70800D02*Y56900D01*
X70400D01*
Y70800D01*
X57600D01*
X55500Y113000D02*X74500D01*
X55500D02*Y82000D01*
X74500D01*
Y113000D02*Y100000D01*
Y95000D02*Y82000D01*
Y100000D02*G75*G03X74500Y95000I0J-2500D01*G01*
X205000D02*Y15000D01*
X195000Y95000D02*X205000D01*
X195000D02*Y15000D01*
X205000D01*
X195000Y25000D02*X205000D01*
X195000D02*Y15000D01*
X205000Y201000D02*Y101000D01*
X195000Y201000D02*X205000D01*
X195000D02*Y101000D01*
X205000D01*
X195000Y111000D02*X205000D01*
X195000D02*Y101000D01*
X149166Y105951D02*Y93353D01*
X141684D02*X149166D01*
X141684Y105951D02*Y93353D01*
Y105951D02*X149166D01*
X85000Y10200D02*X125000D01*
X85000Y40200D02*X125000D01*
X85000Y35800D02*X125000D01*
X85000Y40200D02*Y10200D01*
X125000Y40200D02*Y10200D01*
X104607Y51255D02*X105393D01*
X104607Y45745D02*X105393D01*
X95500Y113000D02*X114500D01*
X95500D02*Y82000D01*
X114500D01*
Y113000D02*Y100000D01*
Y95000D02*Y82000D01*
Y100000D02*G75*G03X114500Y95000I0J-2500D01*G01*
X137000Y166000D02*X157000D01*
X137000Y196000D02*X157000D01*
X137000Y167000D02*Y166000D01*
Y196000D02*Y195000D01*
X157000Y196000D02*Y195000D01*
Y167000D02*Y166000D01*
X159000Y164500D02*G75*G03X159000Y164500I-500J0D01*G01*
X137000Y128000D02*X157000D01*
X137000Y158000D02*X157000D01*
X137000Y129000D02*Y128000D01*
Y158000D02*Y157000D01*
X157000Y158000D02*Y157000D01*
Y129000D02*Y128000D01*
X159000Y126500D02*G75*G03X159000Y126500I-500J0D01*G01*
X130245Y27393D02*Y26607D01*
X135755Y27393D02*Y26607D01*
G54D56*X143500Y202500D02*X145000D01*
Y199000D01*
X144500Y198500D02*X145000Y199000D01*
X144000Y198500D02*X144500D01*
X143500Y199000D02*X144000Y198500D01*
X146700Y202500D02*Y198500D01*
X146200Y202500D02*X148200D01*
X148700Y202000D01*
Y201000D01*
X148200Y200500D02*X148700Y201000D01*
X146700Y200500D02*X148200D01*
X150400Y198500D02*X151400D01*
X150900Y202500D02*Y198500D01*
X149900Y201500D02*X150900Y202500D01*
X81696Y171850D02*X83696D01*
X84196Y171350D01*
Y170350D01*
X83696Y169850D02*X84196Y170350D01*
X82196Y169850D02*X83696D01*
X82196Y171850D02*Y167850D01*
Y169850D02*X84196Y167850D01*
X85396Y171350D02*X85896Y171850D01*
X87396D01*
X87896Y171350D01*
Y170350D01*
X85396Y167850D02*X87896Y170350D01*
X85396Y167850D02*X87896D01*
X44420Y161650D02*X45920D01*
X43920Y162150D02*X44420Y161650D01*
X43920Y165150D02*Y162150D01*
Y165150D02*X44420Y165650D01*
X45920D01*
X47120Y165150D02*X47620Y165650D01*
X49120D01*
X49620Y165150D01*
Y164150D01*
X47120Y161650D02*X49620Y164150D01*
X47120Y161650D02*X49620D01*
X44936Y152650D02*X46436D01*
X44436Y153150D02*X44936Y152650D01*
X44436Y156150D02*Y153150D01*
Y156150D02*X44936Y156650D01*
X46436D01*
X47636Y156150D02*X48136Y156650D01*
X49136D01*
X49636Y156150D01*
Y153150D01*
X49136Y152650D02*X49636Y153150D01*
X48136Y152650D02*X49136D01*
X47636Y153150D02*X48136Y152650D01*
Y154650D02*X49636D01*
X70304Y148299D02*X72304D01*
X72804Y147799D01*
Y146799D01*
X72304Y146299D02*X72804Y146799D01*
X70804Y146299D02*X72304D01*
X70804Y148299D02*Y144299D01*
Y146299D02*X72804Y144299D01*
X74004Y147799D02*X74504Y148299D01*
X75504D01*
X76004Y147799D01*
Y144799D01*
X75504Y144299D02*X76004Y144799D01*
X74504Y144299D02*X75504D01*
X74004Y144799D02*X74504Y144299D01*
Y146299D02*X76004D01*
X73000Y128000D02*X75000D01*
X75500Y127500D01*
Y126500D01*
X75000Y126000D02*X75500Y126500D01*
X73500Y126000D02*X75000D01*
X73500Y128000D02*Y124000D01*
Y126000D02*X75500Y124000D01*
X76700Y126000D02*X78700Y128000D01*
X76700Y126000D02*X79200D01*
X78700Y128000D02*Y124000D01*
X143000Y125500D02*X144500D01*
Y122000D01*
X144000Y121500D02*X144500Y122000D01*
X143500Y121500D02*X144000D01*
X143000Y122000D02*X143500Y121500D01*
X146200Y125500D02*Y121500D01*
X145700Y125500D02*X147700D01*
X148200Y125000D01*
Y124000D01*
X147700Y123500D02*X148200Y124000D01*
X146200Y123500D02*X147700D01*
X149400Y125000D02*X149900Y125500D01*
X151400D01*
X151900Y125000D01*
Y124000D01*
X149400Y121500D02*X151900Y124000D01*
X149400Y121500D02*X151900D01*
X46000Y46000D02*X47500D01*
Y42500D01*
X47000Y42000D02*X47500Y42500D01*
X46500Y42000D02*X47000D01*
X46000Y42500D02*X46500Y42000D01*
X48700Y45500D02*X49200Y46000D01*
X50200D01*
X50700Y45500D01*
Y42500D01*
X50200Y42000D02*X50700Y42500D01*
X49200Y42000D02*X50200D01*
X48700Y42500D02*X49200Y42000D01*
Y44000D02*X50700D01*
X119000Y46000D02*X120500D01*
Y42500D01*
X120000Y42000D02*X120500Y42500D01*
X119500Y42000D02*X120000D01*
X119000Y42500D02*X119500Y42000D01*
X121700Y44000D02*X123700Y46000D01*
X121700Y44000D02*X124200D01*
X123700Y46000D02*Y42000D01*
X34623Y38727D02*Y34727D01*
X36123Y38727D02*X36623Y38227D01*
Y35227D01*
X36123Y34727D02*X36623Y35227D01*
X34123Y34727D02*X36123D01*
X34123Y38727D02*X36123D01*
X38323Y34727D02*X39323D01*
X38823Y38727D02*Y34727D01*
X37823Y37727D02*X38823Y38727D01*
X130123D02*Y34727D01*
X131623Y38727D02*X132123Y38227D01*
Y35227D01*
X131623Y34727D02*X132123Y35227D01*
X129623Y34727D02*X131623D01*
X129623Y38727D02*X131623D01*
X133323Y38227D02*X133823Y38727D01*
X135323D01*
X135823Y38227D01*
Y37227D01*
X133323Y34727D02*X135823Y37227D01*
X133323Y34727D02*X135823D01*
X82000Y63500D02*X84000D01*
X84500Y63000D01*
Y62000D01*
X84000Y61500D02*X84500Y62000D01*
X82500Y61500D02*X84000D01*
X82500Y63500D02*Y59500D01*
Y61500D02*X84500Y59500D01*
X85700Y63500D02*X87700D01*
X85700D02*Y61500D01*
X86200Y62000D01*
X87200D01*
X87700Y61500D01*
Y60000D01*
X87200Y59500D02*X87700Y60000D01*
X86200Y59500D02*X87200D01*
X85700Y60000D02*X86200Y59500D01*
X51100Y69800D02*Y66800D01*
Y69800D02*X51600Y70300D01*
X52600D01*
X53100Y69800D01*
Y66800D01*
X52600Y66300D02*X53100Y66800D01*
X51600Y66300D02*X52600D01*
X51100Y66800D02*X51600Y66300D01*
X52100Y67300D02*X53100Y66300D01*
X54800D02*X55800D01*
X55300Y70300D02*Y66300D01*
X54300Y69300D02*X55300Y70300D01*
X39850Y86150D02*X41350D01*
X39350Y86650D02*X39850Y86150D01*
X39350Y89650D02*Y86650D01*
Y89650D02*X39850Y90150D01*
X41350D01*
X43050Y86150D02*X44050D01*
X43550Y90150D02*Y86150D01*
X42550Y89150D02*X43550Y90150D01*
X77000Y99500D02*Y96000D01*
X77500Y95500D01*
X78500D01*
X79000Y96000D01*
Y99500D02*Y96000D01*
X80700Y95500D02*X81700D01*
X81200Y99500D02*Y95500D01*
X80200Y98500D02*X81200Y99500D01*
X92393Y46650D02*X93893D01*
X91893Y47150D02*X92393Y46650D01*
X91893Y50150D02*Y47150D01*
Y50150D02*X92393Y50650D01*
X93893D01*
X95093D02*X97093D01*
X95093D02*Y48650D01*
X95593Y49150D01*
X96593D01*
X97093Y48650D01*
Y47150D01*
X96593Y46650D02*X97093Y47150D01*
X95593Y46650D02*X96593D01*
X95093Y47150D02*X95593Y46650D01*
X73350D02*X74850D01*
X72850Y47150D02*X73350Y46650D01*
X72850Y50150D02*Y47150D01*
Y50150D02*X73350Y50650D01*
X74850D01*
X76050Y48650D02*X78050Y50650D01*
X76050Y48650D02*X78550D01*
X78050Y50650D02*Y46650D01*
X112600Y69800D02*Y66800D01*
Y69800D02*X113100Y70300D01*
X114100D01*
X114600Y69800D01*
Y66800D01*
X114100Y66300D02*X114600Y66800D01*
X113100Y66300D02*X114100D01*
X112600Y66800D02*X113100Y66300D01*
X113600Y67300D02*X114600Y66300D01*
X115800Y69800D02*X116300Y70300D01*
X117800D01*
X118300Y69800D01*
Y68800D01*
X115800Y66300D02*X118300Y68800D01*
X115800Y66300D02*X118300D01*
X117000Y99500D02*Y96000D01*
X117500Y95500D01*
X118500D01*
X119000Y96000D01*
Y99500D02*Y96000D01*
X120200Y99000D02*X120700Y99500D01*
X122200D01*
X122700Y99000D01*
Y98000D01*
X120200Y95500D02*X122700Y98000D01*
X120200Y95500D02*X122700D01*
X151348Y101425D02*X153348D01*
X153848Y100925D01*
Y99925D01*
X153348Y99425D02*X153848Y99925D01*
X151848Y99425D02*X153348D01*
X151848Y101425D02*Y97425D01*
Y99425D02*X153848Y97425D01*
X155548D02*X156548D01*
X156048Y101425D02*Y97425D01*
X155048Y100425D02*X156048Y101425D01*
M02*
