G04 start of page 3 for group 1 idx 1 *
G04 Title: (unknown), solder *
G04 Creator: pcb 20140316 *
G04 CreationDate: Fri 13 Apr 2018 03:31:12 AM GMT UTC *
G04 For: railfan *
G04 Format: Gerber/RS-274X *
G04 PCB-Dimensions (mil): 2100.00 2700.00 *
G04 PCB-Coordinate-Origin: lower left *
%MOIN*%
%FSLAX25Y25*%
%LNBOTTOM*%
%ADD35C,0.0480*%
%ADD34C,0.1285*%
%ADD33C,0.0380*%
%ADD32C,0.0200*%
%ADD31C,0.0400*%
%ADD30C,0.0800*%
%ADD29C,0.1500*%
%ADD28C,0.0680*%
%ADD27C,0.0100*%
%ADD26C,0.0001*%
G54D26*G36*
X200000Y201474D02*X201334Y201579D01*
X202635Y201891D01*
X203871Y202403D01*
X205012Y203102D01*
X206029Y203971D01*
X206898Y204988D01*
X207000Y205155D01*
Y13000D01*
X200000D01*
Y15107D01*
X203635Y15114D01*
X203865Y15169D01*
X204083Y15259D01*
X204284Y15383D01*
X204464Y15536D01*
X204617Y15716D01*
X204741Y15917D01*
X204831Y16135D01*
X204886Y16365D01*
X204900Y16600D01*
X204886Y23635D01*
X204831Y23865D01*
X204741Y24083D01*
X204617Y24284D01*
X204464Y24464D01*
X204284Y24617D01*
X204083Y24741D01*
X203865Y24831D01*
X203635Y24886D01*
X203400Y24900D01*
X200000Y24893D01*
Y25085D01*
X200769Y25145D01*
X201519Y25325D01*
X202231Y25621D01*
X202889Y26024D01*
X203476Y26524D01*
X203976Y27111D01*
X204379Y27769D01*
X204675Y28481D01*
X204855Y29231D01*
X204900Y30000D01*
X204855Y30769D01*
X204675Y31519D01*
X204379Y32231D01*
X203976Y32889D01*
X203476Y33476D01*
X202889Y33976D01*
X202231Y34379D01*
X201519Y34675D01*
X200769Y34855D01*
X200000Y34915D01*
Y35085D01*
X200769Y35145D01*
X201519Y35325D01*
X202231Y35621D01*
X202889Y36024D01*
X203476Y36524D01*
X203976Y37111D01*
X204379Y37769D01*
X204675Y38481D01*
X204855Y39231D01*
X204900Y40000D01*
X204855Y40769D01*
X204675Y41519D01*
X204379Y42231D01*
X203976Y42889D01*
X203476Y43476D01*
X202889Y43976D01*
X202231Y44379D01*
X201519Y44675D01*
X200769Y44855D01*
X200000Y44915D01*
Y45085D01*
X200769Y45145D01*
X201519Y45325D01*
X202231Y45621D01*
X202889Y46024D01*
X203476Y46524D01*
X203976Y47111D01*
X204379Y47769D01*
X204675Y48481D01*
X204855Y49231D01*
X204900Y50000D01*
X204855Y50769D01*
X204675Y51519D01*
X204379Y52231D01*
X203976Y52889D01*
X203476Y53476D01*
X202889Y53976D01*
X202231Y54379D01*
X201519Y54675D01*
X200769Y54855D01*
X200000Y54915D01*
Y55085D01*
X200769Y55145D01*
X201519Y55325D01*
X202231Y55621D01*
X202889Y56024D01*
X203476Y56524D01*
X203976Y57111D01*
X204379Y57769D01*
X204675Y58481D01*
X204855Y59231D01*
X204900Y60000D01*
X204855Y60769D01*
X204675Y61519D01*
X204379Y62231D01*
X203976Y62889D01*
X203476Y63476D01*
X202889Y63976D01*
X202231Y64379D01*
X201519Y64675D01*
X200769Y64855D01*
X200000Y64915D01*
Y65085D01*
X200769Y65145D01*
X201519Y65325D01*
X202231Y65621D01*
X202889Y66024D01*
X203476Y66524D01*
X203976Y67111D01*
X204379Y67769D01*
X204675Y68481D01*
X204855Y69231D01*
X204900Y70000D01*
X204855Y70769D01*
X204675Y71519D01*
X204379Y72231D01*
X203976Y72889D01*
X203476Y73476D01*
X202889Y73976D01*
X202231Y74379D01*
X201519Y74675D01*
X200769Y74855D01*
X200000Y74915D01*
Y75085D01*
X200769Y75145D01*
X201519Y75325D01*
X202231Y75621D01*
X202889Y76024D01*
X203476Y76524D01*
X203976Y77111D01*
X204379Y77769D01*
X204675Y78481D01*
X204855Y79231D01*
X204900Y80000D01*
X204855Y80769D01*
X204675Y81519D01*
X204379Y82231D01*
X203976Y82889D01*
X203476Y83476D01*
X202889Y83976D01*
X202231Y84379D01*
X201519Y84675D01*
X200769Y84855D01*
X200000Y84915D01*
Y85085D01*
X200769Y85145D01*
X201519Y85325D01*
X202231Y85621D01*
X202889Y86024D01*
X203476Y86524D01*
X203976Y87111D01*
X204379Y87769D01*
X204675Y88481D01*
X204855Y89231D01*
X204900Y90000D01*
X204855Y90769D01*
X204675Y91519D01*
X204379Y92231D01*
X203976Y92889D01*
X203476Y93476D01*
X202889Y93976D01*
X202231Y94379D01*
X201519Y94675D01*
X200769Y94855D01*
X200000Y94915D01*
Y101085D01*
X200769Y101145D01*
X201519Y101325D01*
X202231Y101621D01*
X202889Y102024D01*
X203476Y102524D01*
X203976Y103111D01*
X204379Y103769D01*
X204675Y104481D01*
X204855Y105231D01*
X204900Y106000D01*
X204855Y106769D01*
X204675Y107519D01*
X204379Y108231D01*
X203976Y108889D01*
X203476Y109476D01*
X202889Y109976D01*
X202231Y110379D01*
X201519Y110675D01*
X200769Y110855D01*
X200000Y110915D01*
Y111085D01*
X200769Y111145D01*
X201519Y111325D01*
X202231Y111621D01*
X202889Y112024D01*
X203476Y112524D01*
X203976Y113111D01*
X204379Y113769D01*
X204675Y114481D01*
X204855Y115231D01*
X204900Y116000D01*
X204855Y116769D01*
X204675Y117519D01*
X204379Y118231D01*
X203976Y118889D01*
X203476Y119476D01*
X202889Y119976D01*
X202231Y120379D01*
X201519Y120675D01*
X200769Y120855D01*
X200000Y120915D01*
Y121085D01*
X200769Y121145D01*
X201519Y121325D01*
X202231Y121621D01*
X202889Y122024D01*
X203476Y122524D01*
X203976Y123111D01*
X204379Y123769D01*
X204675Y124481D01*
X204855Y125231D01*
X204900Y126000D01*
X204855Y126769D01*
X204675Y127519D01*
X204379Y128231D01*
X203976Y128889D01*
X203476Y129476D01*
X202889Y129976D01*
X202231Y130379D01*
X201519Y130675D01*
X200769Y130855D01*
X200000Y130915D01*
Y131085D01*
X200769Y131145D01*
X201519Y131325D01*
X202231Y131621D01*
X202889Y132024D01*
X203476Y132524D01*
X203976Y133111D01*
X204379Y133769D01*
X204675Y134481D01*
X204855Y135231D01*
X204900Y136000D01*
X204855Y136769D01*
X204675Y137519D01*
X204379Y138231D01*
X203976Y138889D01*
X203476Y139476D01*
X202889Y139976D01*
X202231Y140379D01*
X201519Y140675D01*
X200769Y140855D01*
X200000Y140915D01*
Y141085D01*
X200769Y141145D01*
X201519Y141325D01*
X202231Y141621D01*
X202889Y142024D01*
X203476Y142524D01*
X203976Y143111D01*
X204379Y143769D01*
X204675Y144481D01*
X204855Y145231D01*
X204900Y146000D01*
X204855Y146769D01*
X204675Y147519D01*
X204379Y148231D01*
X203976Y148889D01*
X203476Y149476D01*
X202889Y149976D01*
X202231Y150379D01*
X201519Y150675D01*
X200769Y150855D01*
X200000Y150915D01*
Y151085D01*
X200769Y151145D01*
X201519Y151325D01*
X202231Y151621D01*
X202889Y152024D01*
X203476Y152524D01*
X203976Y153111D01*
X204379Y153769D01*
X204675Y154481D01*
X204855Y155231D01*
X204900Y156000D01*
X204855Y156769D01*
X204675Y157519D01*
X204379Y158231D01*
X203976Y158889D01*
X203476Y159476D01*
X202889Y159976D01*
X202231Y160379D01*
X201519Y160675D01*
X200769Y160855D01*
X200000Y160915D01*
Y161085D01*
X200769Y161145D01*
X201519Y161325D01*
X202231Y161621D01*
X202889Y162024D01*
X203476Y162524D01*
X203976Y163111D01*
X204379Y163769D01*
X204675Y164481D01*
X204855Y165231D01*
X204900Y166000D01*
X204855Y166769D01*
X204675Y167519D01*
X204379Y168231D01*
X203976Y168889D01*
X203476Y169476D01*
X202889Y169976D01*
X202231Y170379D01*
X201519Y170675D01*
X200769Y170855D01*
X200000Y170915D01*
Y171085D01*
X200769Y171145D01*
X201519Y171325D01*
X202231Y171621D01*
X202889Y172024D01*
X203476Y172524D01*
X203976Y173111D01*
X204379Y173769D01*
X204675Y174481D01*
X204855Y175231D01*
X204900Y176000D01*
X204855Y176769D01*
X204675Y177519D01*
X204379Y178231D01*
X203976Y178889D01*
X203476Y179476D01*
X202889Y179976D01*
X202231Y180379D01*
X201519Y180675D01*
X200769Y180855D01*
X200000Y180915D01*
Y181085D01*
X200769Y181145D01*
X201519Y181325D01*
X202231Y181621D01*
X202889Y182024D01*
X203476Y182524D01*
X203976Y183111D01*
X204379Y183769D01*
X204675Y184481D01*
X204855Y185231D01*
X204900Y186000D01*
X204855Y186769D01*
X204675Y187519D01*
X204379Y188231D01*
X203976Y188889D01*
X203476Y189476D01*
X202889Y189976D01*
X202231Y190379D01*
X201519Y190675D01*
X200769Y190855D01*
X200000Y190915D01*
Y191085D01*
X200769Y191145D01*
X201519Y191325D01*
X202231Y191621D01*
X202889Y192024D01*
X203476Y192524D01*
X203976Y193111D01*
X204379Y193769D01*
X204675Y194481D01*
X204855Y195231D01*
X204900Y196000D01*
X204855Y196769D01*
X204675Y197519D01*
X204379Y198231D01*
X203976Y198889D01*
X203476Y199476D01*
X202889Y199976D01*
X202231Y200379D01*
X201519Y200675D01*
X200769Y200855D01*
X200000Y200915D01*
Y201474D01*
G37*
G36*
Y267500D02*X207000D01*
Y214845D01*
X206898Y215012D01*
X206029Y216029D01*
X205012Y216898D01*
X203871Y217597D01*
X202635Y218109D01*
X201334Y218421D01*
X200000Y218526D01*
Y267500D01*
G37*
G36*
Y13000D02*X184195D01*
Y124500D01*
X195321D01*
X195325Y124481D01*
X195621Y123769D01*
X196024Y123111D01*
X196524Y122524D01*
X197111Y122024D01*
X197769Y121621D01*
X198481Y121325D01*
X199231Y121145D01*
X200000Y121085D01*
Y120915D01*
X199231Y120855D01*
X198481Y120675D01*
X197769Y120379D01*
X197111Y119976D01*
X196524Y119476D01*
X196024Y118889D01*
X195621Y118231D01*
X195325Y117519D01*
X195145Y116769D01*
X195085Y116000D01*
X195145Y115231D01*
X195325Y114481D01*
X195621Y113769D01*
X196024Y113111D01*
X196524Y112524D01*
X197111Y112024D01*
X197769Y111621D01*
X198481Y111325D01*
X199231Y111145D01*
X200000Y111085D01*
Y110915D01*
X199231Y110855D01*
X198481Y110675D01*
X197769Y110379D01*
X197111Y109976D01*
X196524Y109476D01*
X196024Y108889D01*
X195621Y108231D01*
X195325Y107519D01*
X195145Y106769D01*
X195085Y106000D01*
X195145Y105231D01*
X195325Y104481D01*
X195621Y103769D01*
X196024Y103111D01*
X196524Y102524D01*
X197111Y102024D01*
X197769Y101621D01*
X198481Y101325D01*
X199231Y101145D01*
X200000Y101085D01*
Y94915D01*
X199231Y94855D01*
X198481Y94675D01*
X197769Y94379D01*
X197111Y93976D01*
X196524Y93476D01*
X196024Y92889D01*
X195621Y92231D01*
X195325Y91519D01*
X195145Y90769D01*
X195085Y90000D01*
X195145Y89231D01*
X195325Y88481D01*
X195621Y87769D01*
X196024Y87111D01*
X196524Y86524D01*
X197111Y86024D01*
X197769Y85621D01*
X198481Y85325D01*
X199231Y85145D01*
X200000Y85085D01*
Y84915D01*
X199231Y84855D01*
X198481Y84675D01*
X197769Y84379D01*
X197111Y83976D01*
X196524Y83476D01*
X196024Y82889D01*
X195621Y82231D01*
X195325Y81519D01*
X195145Y80769D01*
X195085Y80000D01*
X195145Y79231D01*
X195325Y78481D01*
X195621Y77769D01*
X196024Y77111D01*
X196524Y76524D01*
X197111Y76024D01*
X197769Y75621D01*
X198481Y75325D01*
X199231Y75145D01*
X200000Y75085D01*
Y74915D01*
X199231Y74855D01*
X198481Y74675D01*
X197769Y74379D01*
X197111Y73976D01*
X196524Y73476D01*
X196024Y72889D01*
X195621Y72231D01*
X195325Y71519D01*
X195145Y70769D01*
X195085Y70000D01*
X195145Y69231D01*
X195325Y68481D01*
X195621Y67769D01*
X196024Y67111D01*
X196524Y66524D01*
X197111Y66024D01*
X197769Y65621D01*
X198481Y65325D01*
X199231Y65145D01*
X200000Y65085D01*
Y64915D01*
X199231Y64855D01*
X198481Y64675D01*
X197769Y64379D01*
X197111Y63976D01*
X196524Y63476D01*
X196024Y62889D01*
X195621Y62231D01*
X195325Y61519D01*
X195145Y60769D01*
X195085Y60000D01*
X195145Y59231D01*
X195325Y58481D01*
X195621Y57769D01*
X196024Y57111D01*
X196524Y56524D01*
X197111Y56024D01*
X197769Y55621D01*
X198481Y55325D01*
X199231Y55145D01*
X200000Y55085D01*
Y54915D01*
X199231Y54855D01*
X198481Y54675D01*
X197769Y54379D01*
X197111Y53976D01*
X196524Y53476D01*
X196024Y52889D01*
X195621Y52231D01*
X195325Y51519D01*
X195145Y50769D01*
X195085Y50000D01*
X195145Y49231D01*
X195325Y48481D01*
X195621Y47769D01*
X196024Y47111D01*
X196524Y46524D01*
X197111Y46024D01*
X197769Y45621D01*
X198481Y45325D01*
X199231Y45145D01*
X200000Y45085D01*
Y44915D01*
X199231Y44855D01*
X198481Y44675D01*
X197769Y44379D01*
X197111Y43976D01*
X196524Y43476D01*
X196024Y42889D01*
X195621Y42231D01*
X195325Y41519D01*
X195145Y40769D01*
X195085Y40000D01*
X195145Y39231D01*
X195325Y38481D01*
X195621Y37769D01*
X196024Y37111D01*
X196524Y36524D01*
X197111Y36024D01*
X197769Y35621D01*
X198481Y35325D01*
X199231Y35145D01*
X200000Y35085D01*
Y34915D01*
X199231Y34855D01*
X198481Y34675D01*
X197769Y34379D01*
X197111Y33976D01*
X196524Y33476D01*
X196024Y32889D01*
X195621Y32231D01*
X195325Y31519D01*
X195145Y30769D01*
X195085Y30000D01*
X195145Y29231D01*
X195325Y28481D01*
X195621Y27769D01*
X196024Y27111D01*
X196524Y26524D01*
X197111Y26024D01*
X197769Y25621D01*
X198481Y25325D01*
X199231Y25145D01*
X200000Y25085D01*
Y24893D01*
X196365Y24886D01*
X196135Y24831D01*
X195917Y24741D01*
X195716Y24617D01*
X195536Y24464D01*
X195383Y24284D01*
X195259Y24083D01*
X195169Y23865D01*
X195114Y23635D01*
X195100Y23400D01*
X195114Y16365D01*
X195169Y16135D01*
X195259Y15917D01*
X195383Y15716D01*
X195536Y15536D01*
X195716Y15383D01*
X195917Y15259D01*
X196135Y15169D01*
X196365Y15114D01*
X196600Y15100D01*
X200000Y15107D01*
Y13000D01*
G37*
G36*
X184195Y267500D02*X200000D01*
Y218526D01*
X198666Y218421D01*
X197365Y218109D01*
X196129Y217597D01*
X194988Y216898D01*
X193971Y216029D01*
X193102Y215012D01*
X192403Y213871D01*
X191891Y212635D01*
X191579Y211334D01*
X191474Y210000D01*
X191579Y208666D01*
X191891Y207365D01*
X192403Y206129D01*
X193102Y204988D01*
X193971Y203971D01*
X194988Y203102D01*
X196129Y202403D01*
X197365Y201891D01*
X198666Y201579D01*
X200000Y201474D01*
Y200915D01*
X199231Y200855D01*
X198481Y200675D01*
X197769Y200379D01*
X197111Y199976D01*
X196524Y199476D01*
X196024Y198889D01*
X195621Y198231D01*
X195325Y197519D01*
X195145Y196769D01*
X195085Y196000D01*
X195145Y195231D01*
X195325Y194481D01*
X195621Y193769D01*
X196024Y193111D01*
X196524Y192524D01*
X197111Y192024D01*
X197769Y191621D01*
X198481Y191325D01*
X199231Y191145D01*
X200000Y191085D01*
Y190915D01*
X199231Y190855D01*
X198481Y190675D01*
X197769Y190379D01*
X197111Y189976D01*
X196524Y189476D01*
X196024Y188889D01*
X195621Y188231D01*
X195325Y187519D01*
X195145Y186769D01*
X195085Y186000D01*
X195145Y185231D01*
X195325Y184481D01*
X195621Y183769D01*
X196024Y183111D01*
X196524Y182524D01*
X197111Y182024D01*
X197769Y181621D01*
X198481Y181325D01*
X199231Y181145D01*
X200000Y181085D01*
Y180915D01*
X199231Y180855D01*
X198481Y180675D01*
X197769Y180379D01*
X197111Y179976D01*
X196524Y179476D01*
X196024Y178889D01*
X195621Y178231D01*
X195325Y177519D01*
X195145Y176769D01*
X195085Y176000D01*
X195145Y175231D01*
X195325Y174481D01*
X195621Y173769D01*
X196024Y173111D01*
X196524Y172524D01*
X197111Y172024D01*
X197769Y171621D01*
X198481Y171325D01*
X199231Y171145D01*
X200000Y171085D01*
Y170915D01*
X199231Y170855D01*
X198481Y170675D01*
X197769Y170379D01*
X197111Y169976D01*
X196524Y169476D01*
X196024Y168889D01*
X195621Y168231D01*
X195325Y167519D01*
X195145Y166769D01*
X195085Y166000D01*
X195145Y165231D01*
X195325Y164481D01*
X195621Y163769D01*
X196024Y163111D01*
X196524Y162524D01*
X197111Y162024D01*
X197769Y161621D01*
X198481Y161325D01*
X199231Y161145D01*
X200000Y161085D01*
Y160915D01*
X199231Y160855D01*
X198481Y160675D01*
X197769Y160379D01*
X197111Y159976D01*
X196524Y159476D01*
X196024Y158889D01*
X195621Y158231D01*
X195325Y157519D01*
X195145Y156769D01*
X195085Y156000D01*
X195145Y155231D01*
X195325Y154481D01*
X195621Y153769D01*
X196024Y153111D01*
X196524Y152524D01*
X197111Y152024D01*
X197769Y151621D01*
X198481Y151325D01*
X199231Y151145D01*
X200000Y151085D01*
Y150915D01*
X199231Y150855D01*
X198481Y150675D01*
X197769Y150379D01*
X197111Y149976D01*
X196524Y149476D01*
X196024Y148889D01*
X195621Y148231D01*
X195325Y147519D01*
X195145Y146769D01*
X195085Y146000D01*
X195145Y145231D01*
X195325Y144481D01*
X195621Y143769D01*
X196024Y143111D01*
X196524Y142524D01*
X197111Y142024D01*
X197769Y141621D01*
X198481Y141325D01*
X199231Y141145D01*
X200000Y141085D01*
Y140915D01*
X199231Y140855D01*
X198481Y140675D01*
X197769Y140379D01*
X197111Y139976D01*
X196524Y139476D01*
X196024Y138889D01*
X195621Y138231D01*
X195325Y137519D01*
X195145Y136769D01*
X195085Y136000D01*
X195145Y135231D01*
X195325Y134481D01*
X195621Y133769D01*
X196024Y133111D01*
X196524Y132524D01*
X197111Y132024D01*
X197769Y131621D01*
X198481Y131325D01*
X199231Y131145D01*
X200000Y131085D01*
Y130915D01*
X199231Y130855D01*
X198481Y130675D01*
X197769Y130379D01*
X197111Y129976D01*
X196524Y129476D01*
X196024Y128889D01*
X195621Y128231D01*
X195325Y127519D01*
X195321Y127500D01*
X184195D01*
Y267500D01*
G37*
G36*
X119493D02*X184195D01*
Y127500D01*
X184121D01*
X169399Y142223D01*
X169472Y142529D01*
X169500Y143000D01*
X169472Y143471D01*
X169362Y143930D01*
X169181Y144366D01*
X168935Y144769D01*
X168628Y145128D01*
X168269Y145435D01*
X167866Y145681D01*
X167430Y145862D01*
X166971Y145972D01*
X166500Y146009D01*
X166029Y145972D01*
X165570Y145862D01*
X165134Y145681D01*
X164731Y145435D01*
X164372Y145128D01*
X164065Y144769D01*
X163819Y144366D01*
X163638Y143930D01*
X163528Y143471D01*
X163491Y143000D01*
X163528Y142529D01*
X163638Y142070D01*
X163819Y141634D01*
X164065Y141231D01*
X164372Y140872D01*
X164731Y140565D01*
X165134Y140319D01*
X165570Y140138D01*
X166029Y140028D01*
X166500Y139991D01*
X166971Y140028D01*
X167277Y140101D01*
X182398Y124981D01*
X182436Y124936D01*
X182616Y124783D01*
X182817Y124659D01*
X183035Y124569D01*
X183265Y124514D01*
X183500Y124495D01*
X183559Y124500D01*
X184195D01*
Y13000D01*
X147958D01*
X147597Y13871D01*
X146898Y15012D01*
X146029Y16029D01*
X145012Y16898D01*
X143871Y17597D01*
X142635Y18109D01*
X141334Y18421D01*
X140000Y18526D01*
X138666Y18421D01*
X137365Y18109D01*
X136129Y17597D01*
X134988Y16898D01*
X133971Y16029D01*
X133102Y15012D01*
X132403Y13871D01*
X132042Y13000D01*
X119493D01*
Y20145D01*
X119578Y20181D01*
X119679Y20243D01*
X119769Y20319D01*
X119845Y20409D01*
X119905Y20511D01*
X120122Y20980D01*
X120289Y21469D01*
X120409Y21972D01*
X120482Y22484D01*
X120506Y23000D01*
X120482Y23516D01*
X120409Y24028D01*
X120289Y24531D01*
X120122Y25020D01*
X119910Y25492D01*
X119849Y25593D01*
X119772Y25684D01*
X119682Y25761D01*
X119580Y25823D01*
X119493Y25860D01*
Y57500D01*
X144401D01*
X144565Y57231D01*
X144872Y56872D01*
X145231Y56565D01*
X145634Y56319D01*
X146070Y56138D01*
X146529Y56028D01*
X147000Y55991D01*
X147471Y56028D01*
X147930Y56138D01*
X148366Y56319D01*
X148769Y56565D01*
X149128Y56872D01*
X149435Y57231D01*
X149681Y57634D01*
X149862Y58070D01*
X149972Y58529D01*
X150000Y59000D01*
X149972Y59471D01*
X149862Y59930D01*
X149681Y60366D01*
X149435Y60769D01*
X149128Y61128D01*
X148769Y61435D01*
X148366Y61681D01*
X147930Y61862D01*
X147471Y61972D01*
X147000Y62009D01*
X146529Y61972D01*
X146070Y61862D01*
X145634Y61681D01*
X145231Y61435D01*
X144872Y61128D01*
X144565Y60769D01*
X144401Y60500D01*
X119493D01*
Y104874D01*
X119500Y105000D01*
X119493Y105126D01*
Y267500D01*
G37*
G36*
Y60500D02*X115002D01*
Y102399D01*
X115134Y102319D01*
X115570Y102138D01*
X116029Y102028D01*
X116500Y101991D01*
X116971Y102028D01*
X117430Y102138D01*
X117866Y102319D01*
X118269Y102565D01*
X118628Y102872D01*
X118935Y103231D01*
X119181Y103634D01*
X119362Y104070D01*
X119472Y104529D01*
X119493Y104874D01*
Y60500D01*
G37*
G36*
Y13000D02*X115002D01*
Y17494D01*
X115516Y17518D01*
X116028Y17591D01*
X116531Y17711D01*
X117020Y17878D01*
X117492Y18090D01*
X117593Y18151D01*
X117684Y18228D01*
X117761Y18318D01*
X117823Y18420D01*
X117869Y18529D01*
X117897Y18645D01*
X117906Y18763D01*
X117897Y18881D01*
X117870Y18997D01*
X117824Y19107D01*
X117762Y19208D01*
X117686Y19298D01*
X117595Y19376D01*
X117494Y19438D01*
X117385Y19484D01*
X117269Y19511D01*
X117151Y19521D01*
X117032Y19512D01*
X116917Y19484D01*
X116808Y19437D01*
X116468Y19279D01*
X116112Y19158D01*
X115747Y19070D01*
X115375Y19018D01*
X115002Y19000D01*
Y27000D01*
X115375Y26982D01*
X115747Y26930D01*
X116112Y26842D01*
X116468Y26721D01*
X116810Y26567D01*
X116918Y26520D01*
X117033Y26493D01*
X117151Y26483D01*
X117268Y26493D01*
X117383Y26521D01*
X117492Y26566D01*
X117593Y26628D01*
X117682Y26705D01*
X117759Y26795D01*
X117820Y26895D01*
X117865Y27004D01*
X117893Y27119D01*
X117902Y27237D01*
X117892Y27355D01*
X117865Y27469D01*
X117819Y27578D01*
X117757Y27679D01*
X117681Y27769D01*
X117591Y27845D01*
X117489Y27905D01*
X117020Y28122D01*
X116531Y28289D01*
X116028Y28409D01*
X115516Y28482D01*
X115002Y28506D01*
Y57500D01*
X119493D01*
Y25860D01*
X119471Y25869D01*
X119355Y25897D01*
X119237Y25906D01*
X119119Y25897D01*
X119003Y25870D01*
X118893Y25824D01*
X118792Y25762D01*
X118702Y25686D01*
X118624Y25595D01*
X118562Y25494D01*
X118516Y25385D01*
X118489Y25269D01*
X118479Y25151D01*
X118488Y25032D01*
X118516Y24917D01*
X118563Y24808D01*
X118721Y24468D01*
X118842Y24112D01*
X118930Y23747D01*
X118982Y23375D01*
X119000Y23000D01*
X118982Y22625D01*
X118930Y22253D01*
X118842Y21888D01*
X118721Y21532D01*
X118567Y21190D01*
X118520Y21082D01*
X118493Y20967D01*
X118483Y20849D01*
X118493Y20732D01*
X118521Y20617D01*
X118566Y20508D01*
X118628Y20407D01*
X118705Y20318D01*
X118795Y20241D01*
X118895Y20180D01*
X119004Y20135D01*
X119119Y20107D01*
X119237Y20098D01*
X119355Y20108D01*
X119469Y20135D01*
X119493Y20145D01*
Y13000D01*
G37*
G36*
X115002Y267500D02*X119493D01*
Y105126D01*
X119472Y105471D01*
X119362Y105930D01*
X119181Y106366D01*
X118935Y106769D01*
X118628Y107128D01*
X118269Y107435D01*
X117866Y107681D01*
X117430Y107862D01*
X116971Y107972D01*
X116500Y108009D01*
X116029Y107972D01*
X115570Y107862D01*
X115134Y107681D01*
X115002Y107601D01*
Y267500D01*
G37*
G36*
Y60500D02*X90745D01*
Y76000D01*
X103441D01*
X103500Y75995D01*
X103735Y76014D01*
X103735Y76014D01*
X103965Y76069D01*
X104109Y76129D01*
X104529Y76028D01*
X105000Y75991D01*
X105471Y76028D01*
X105930Y76138D01*
X106366Y76319D01*
X106769Y76565D01*
X107128Y76872D01*
X107435Y77231D01*
X107681Y77634D01*
X107862Y78070D01*
X107972Y78529D01*
X108000Y79000D01*
X107972Y79471D01*
X107862Y79930D01*
X107681Y80366D01*
X107435Y80769D01*
X107128Y81128D01*
X106769Y81435D01*
X106366Y81681D01*
X105930Y81862D01*
X105471Y81972D01*
X105000Y82009D01*
X104529Y81972D01*
X104070Y81862D01*
X103634Y81681D01*
X103231Y81435D01*
X102872Y81128D01*
X102565Y80769D01*
X102319Y80366D01*
X102138Y79930D01*
X102028Y79471D01*
X101991Y79000D01*
X90745D01*
Y100124D01*
X94121Y103500D01*
X113901D01*
X114065Y103231D01*
X114372Y102872D01*
X114731Y102565D01*
X115002Y102399D01*
Y60500D01*
G37*
G36*
Y13000D02*X110507D01*
Y20140D01*
X110529Y20131D01*
X110645Y20103D01*
X110763Y20094D01*
X110881Y20103D01*
X110997Y20130D01*
X111107Y20176D01*
X111208Y20238D01*
X111298Y20314D01*
X111376Y20405D01*
X111438Y20506D01*
X111484Y20615D01*
X111511Y20731D01*
X111521Y20849D01*
X111512Y20968D01*
X111484Y21083D01*
X111437Y21192D01*
X111279Y21532D01*
X111158Y21888D01*
X111070Y22253D01*
X111018Y22625D01*
X111000Y23000D01*
X111018Y23375D01*
X111070Y23747D01*
X111158Y24112D01*
X111279Y24468D01*
X111433Y24810D01*
X111480Y24918D01*
X111507Y25033D01*
X111517Y25151D01*
X111507Y25268D01*
X111479Y25383D01*
X111434Y25492D01*
X111372Y25593D01*
X111295Y25682D01*
X111205Y25759D01*
X111105Y25820D01*
X110996Y25865D01*
X110881Y25893D01*
X110763Y25902D01*
X110645Y25892D01*
X110531Y25865D01*
X110507Y25855D01*
Y57500D01*
X115002D01*
Y28506D01*
X115000Y28506D01*
X114484Y28482D01*
X113972Y28409D01*
X113469Y28289D01*
X112980Y28122D01*
X112508Y27910D01*
X112407Y27849D01*
X112316Y27772D01*
X112239Y27682D01*
X112177Y27580D01*
X112131Y27471D01*
X112103Y27355D01*
X112094Y27237D01*
X112103Y27119D01*
X112130Y27003D01*
X112176Y26893D01*
X112238Y26792D01*
X112314Y26702D01*
X112405Y26624D01*
X112506Y26562D01*
X112615Y26516D01*
X112731Y26489D01*
X112849Y26479D01*
X112968Y26488D01*
X113083Y26516D01*
X113192Y26563D01*
X113532Y26721D01*
X113888Y26842D01*
X114253Y26930D01*
X114625Y26982D01*
X115000Y27000D01*
X115002Y27000D01*
Y19000D01*
X115000Y19000D01*
X114625Y19018D01*
X114253Y19070D01*
X113888Y19158D01*
X113532Y19279D01*
X113190Y19433D01*
X113082Y19480D01*
X112967Y19507D01*
X112849Y19517D01*
X112732Y19507D01*
X112617Y19479D01*
X112508Y19434D01*
X112407Y19372D01*
X112318Y19295D01*
X112241Y19205D01*
X112180Y19105D01*
X112135Y18996D01*
X112107Y18881D01*
X112098Y18763D01*
X112108Y18645D01*
X112135Y18531D01*
X112181Y18422D01*
X112243Y18321D01*
X112319Y18231D01*
X112409Y18155D01*
X112511Y18095D01*
X112980Y17878D01*
X113469Y17711D01*
X113972Y17591D01*
X114484Y17518D01*
X115000Y17494D01*
X115002Y17494D01*
Y13000D01*
G37*
G36*
X110507D02*X90745D01*
Y17519D01*
X90765Y17514D01*
X91000Y17500D01*
X99235Y17514D01*
X99465Y17569D01*
X99683Y17659D01*
X99884Y17783D01*
X100064Y17936D01*
X100217Y18116D01*
X100341Y18317D01*
X100431Y18535D01*
X100486Y18765D01*
X100500Y19000D01*
X100486Y27235D01*
X100431Y27465D01*
X100341Y27683D01*
X100217Y27884D01*
X100064Y28064D01*
X99884Y28217D01*
X99683Y28341D01*
X99465Y28431D01*
X99235Y28486D01*
X99000Y28500D01*
X90765Y28486D01*
X90745Y28481D01*
Y57500D01*
X110507D01*
Y25855D01*
X110422Y25819D01*
X110321Y25757D01*
X110231Y25681D01*
X110155Y25591D01*
X110095Y25489D01*
X109878Y25020D01*
X109711Y24531D01*
X109591Y24028D01*
X109518Y23516D01*
X109494Y23000D01*
X109518Y22484D01*
X109591Y21972D01*
X109711Y21469D01*
X109878Y20980D01*
X110090Y20508D01*
X110151Y20407D01*
X110228Y20316D01*
X110318Y20239D01*
X110420Y20177D01*
X110507Y20140D01*
Y13000D01*
G37*
G36*
X90745Y267500D02*X115002D01*
Y107601D01*
X114731Y107435D01*
X114372Y107128D01*
X114065Y106769D01*
X113901Y106500D01*
X93559D01*
X93500Y106505D01*
X93265Y106486D01*
X93035Y106431D01*
X92817Y106341D01*
X92616Y106217D01*
X92615Y106217D01*
X92436Y106064D01*
X92398Y106019D01*
X90745Y104367D01*
Y267500D01*
G37*
G36*
X89000Y83599D02*Y98379D01*
X90745Y100124D01*
Y79000D01*
X89737D01*
X89935Y79231D01*
X90181Y79634D01*
X90362Y80070D01*
X90472Y80529D01*
X90500Y81000D01*
X90472Y81471D01*
X90362Y81930D01*
X90181Y82366D01*
X89935Y82769D01*
X89628Y83128D01*
X89269Y83435D01*
X89000Y83599D01*
G37*
G36*
X79493Y57500D02*X90745D01*
Y28481D01*
X90535Y28431D01*
X90317Y28341D01*
X90116Y28217D01*
X89936Y28064D01*
X89783Y27884D01*
X89659Y27683D01*
X89569Y27465D01*
X89514Y27235D01*
X89500Y27000D01*
X89514Y18765D01*
X89569Y18535D01*
X89659Y18317D01*
X89783Y18116D01*
X89936Y17936D01*
X90116Y17783D01*
X90317Y17659D01*
X90535Y17569D01*
X90745Y17519D01*
Y13000D01*
X79493D01*
Y20145D01*
X79578Y20181D01*
X79679Y20243D01*
X79769Y20319D01*
X79845Y20409D01*
X79905Y20511D01*
X80122Y20980D01*
X80289Y21469D01*
X80409Y21972D01*
X80482Y22484D01*
X80506Y23000D01*
X80482Y23516D01*
X80409Y24028D01*
X80289Y24531D01*
X80122Y25020D01*
X79910Y25492D01*
X79849Y25593D01*
X79772Y25684D01*
X79682Y25761D01*
X79580Y25823D01*
X79493Y25860D01*
Y57500D01*
G37*
G36*
X75002D02*X79493D01*
Y25860D01*
X79471Y25869D01*
X79355Y25897D01*
X79237Y25906D01*
X79119Y25897D01*
X79003Y25870D01*
X78893Y25824D01*
X78792Y25762D01*
X78702Y25686D01*
X78624Y25595D01*
X78562Y25494D01*
X78516Y25385D01*
X78489Y25269D01*
X78479Y25151D01*
X78488Y25032D01*
X78516Y24917D01*
X78563Y24808D01*
X78721Y24468D01*
X78842Y24112D01*
X78930Y23747D01*
X78982Y23375D01*
X79000Y23000D01*
X78982Y22625D01*
X78930Y22253D01*
X78842Y21888D01*
X78721Y21532D01*
X78567Y21190D01*
X78520Y21082D01*
X78493Y20967D01*
X78483Y20849D01*
X78493Y20732D01*
X78521Y20617D01*
X78566Y20508D01*
X78628Y20407D01*
X78705Y20318D01*
X78795Y20241D01*
X78895Y20180D01*
X79004Y20135D01*
X79119Y20107D01*
X79237Y20098D01*
X79355Y20108D01*
X79469Y20135D01*
X79493Y20145D01*
Y13000D01*
X75002D01*
Y17494D01*
X75516Y17518D01*
X76028Y17591D01*
X76531Y17711D01*
X77020Y17878D01*
X77492Y18090D01*
X77593Y18151D01*
X77684Y18228D01*
X77761Y18318D01*
X77823Y18420D01*
X77869Y18529D01*
X77897Y18645D01*
X77906Y18763D01*
X77897Y18881D01*
X77870Y18997D01*
X77824Y19107D01*
X77762Y19208D01*
X77686Y19298D01*
X77595Y19376D01*
X77494Y19438D01*
X77385Y19484D01*
X77269Y19511D01*
X77151Y19521D01*
X77032Y19512D01*
X76917Y19484D01*
X76808Y19437D01*
X76468Y19279D01*
X76112Y19158D01*
X75747Y19070D01*
X75375Y19018D01*
X75002Y19000D01*
Y27000D01*
X75375Y26982D01*
X75747Y26930D01*
X76112Y26842D01*
X76468Y26721D01*
X76810Y26567D01*
X76918Y26520D01*
X77033Y26493D01*
X77151Y26483D01*
X77268Y26493D01*
X77383Y26521D01*
X77492Y26566D01*
X77593Y26628D01*
X77682Y26705D01*
X77759Y26795D01*
X77820Y26895D01*
X77865Y27004D01*
X77893Y27119D01*
X77902Y27237D01*
X77892Y27355D01*
X77865Y27469D01*
X77819Y27578D01*
X77757Y27679D01*
X77681Y27769D01*
X77591Y27845D01*
X77489Y27905D01*
X77020Y28122D01*
X76531Y28289D01*
X76028Y28409D01*
X75516Y28482D01*
X75002Y28506D01*
Y57500D01*
G37*
G36*
X70507D02*X75002D01*
Y28506D01*
X75000Y28506D01*
X74484Y28482D01*
X73972Y28409D01*
X73469Y28289D01*
X72980Y28122D01*
X72508Y27910D01*
X72407Y27849D01*
X72316Y27772D01*
X72239Y27682D01*
X72177Y27580D01*
X72131Y27471D01*
X72103Y27355D01*
X72094Y27237D01*
X72103Y27119D01*
X72130Y27003D01*
X72176Y26893D01*
X72238Y26792D01*
X72314Y26702D01*
X72405Y26624D01*
X72506Y26562D01*
X72615Y26516D01*
X72731Y26489D01*
X72849Y26479D01*
X72968Y26488D01*
X73083Y26516D01*
X73192Y26563D01*
X73532Y26721D01*
X73888Y26842D01*
X74253Y26930D01*
X74625Y26982D01*
X75000Y27000D01*
X75002Y27000D01*
Y19000D01*
X75000Y19000D01*
X74625Y19018D01*
X74253Y19070D01*
X73888Y19158D01*
X73532Y19279D01*
X73190Y19433D01*
X73082Y19480D01*
X72967Y19507D01*
X72849Y19517D01*
X72732Y19507D01*
X72617Y19479D01*
X72508Y19434D01*
X72407Y19372D01*
X72318Y19295D01*
X72241Y19205D01*
X72180Y19105D01*
X72135Y18996D01*
X72107Y18881D01*
X72098Y18763D01*
X72108Y18645D01*
X72135Y18531D01*
X72181Y18422D01*
X72243Y18321D01*
X72319Y18231D01*
X72409Y18155D01*
X72511Y18095D01*
X72980Y17878D01*
X73469Y17711D01*
X73972Y17591D01*
X74484Y17518D01*
X75000Y17494D01*
X75002Y17494D01*
Y13000D01*
X70507D01*
Y20140D01*
X70529Y20131D01*
X70645Y20103D01*
X70763Y20094D01*
X70881Y20103D01*
X70997Y20130D01*
X71107Y20176D01*
X71208Y20238D01*
X71298Y20314D01*
X71376Y20405D01*
X71438Y20506D01*
X71484Y20615D01*
X71511Y20731D01*
X71521Y20849D01*
X71512Y20968D01*
X71484Y21083D01*
X71437Y21192D01*
X71279Y21532D01*
X71158Y21888D01*
X71070Y22253D01*
X71018Y22625D01*
X71000Y23000D01*
X71018Y23375D01*
X71070Y23747D01*
X71158Y24112D01*
X71279Y24468D01*
X71433Y24810D01*
X71480Y24918D01*
X71507Y25033D01*
X71517Y25151D01*
X71507Y25268D01*
X71479Y25383D01*
X71434Y25492D01*
X71372Y25593D01*
X71295Y25682D01*
X71205Y25759D01*
X71105Y25820D01*
X70996Y25865D01*
X70881Y25893D01*
X70763Y25902D01*
X70645Y25892D01*
X70531Y25865D01*
X70507Y25855D01*
Y57500D01*
G37*
G36*
X67495D02*X70507D01*
Y25855D01*
X70422Y25819D01*
X70321Y25757D01*
X70231Y25681D01*
X70155Y25591D01*
X70095Y25489D01*
X69878Y25020D01*
X69711Y24531D01*
X69591Y24028D01*
X69518Y23516D01*
X69494Y23000D01*
X69518Y22484D01*
X69591Y21972D01*
X69711Y21469D01*
X69878Y20980D01*
X70090Y20508D01*
X70151Y20407D01*
X70228Y20316D01*
X70318Y20239D01*
X70420Y20177D01*
X70507Y20140D01*
Y13000D01*
X67495D01*
Y57500D01*
G37*
G36*
Y77330D02*X67681Y77634D01*
X67862Y78070D01*
X67972Y78529D01*
X68000Y79000D01*
X67972Y79471D01*
X67862Y79930D01*
X67681Y80366D01*
X67495Y80670D01*
Y109874D01*
X68121Y110500D01*
X79901D01*
X80065Y110231D01*
X80263Y110000D01*
X74059D01*
X74000Y110005D01*
X73765Y109986D01*
X73535Y109931D01*
X73317Y109841D01*
X73116Y109717D01*
X73115Y109717D01*
X72936Y109564D01*
X72898Y109519D01*
X70981Y107602D01*
X70936Y107564D01*
X70783Y107384D01*
X70659Y107183D01*
X70569Y106965D01*
X70514Y106735D01*
X70514Y106735D01*
X70495Y106500D01*
X70500Y106441D01*
Y80059D01*
X70495Y80000D01*
X70514Y79765D01*
X70569Y79535D01*
X70659Y79317D01*
X70783Y79116D01*
X70936Y78936D01*
X70981Y78898D01*
X73398Y76481D01*
X73436Y76436D01*
X73615Y76283D01*
X73616Y76283D01*
X73817Y76159D01*
X74035Y76069D01*
X74265Y76014D01*
X74500Y75995D01*
X74559Y76000D01*
X90745D01*
Y60500D01*
X67495D01*
Y62404D01*
X67634Y62319D01*
X68070Y62138D01*
X68529Y62028D01*
X69000Y61991D01*
X69471Y62028D01*
X69930Y62138D01*
X70366Y62319D01*
X70769Y62565D01*
X71128Y62872D01*
X71435Y63231D01*
X71681Y63634D01*
X71862Y64070D01*
X71972Y64529D01*
X72000Y65000D01*
X71972Y65471D01*
X71862Y65930D01*
X71681Y66366D01*
X71435Y66769D01*
X71128Y67128D01*
X70769Y67435D01*
X70366Y67681D01*
X69930Y67862D01*
X69471Y67972D01*
X69000Y68009D01*
X68529Y67972D01*
X68070Y67862D01*
X67634Y67681D01*
X67495Y67596D01*
Y77330D01*
G37*
G36*
Y267500D02*X90745D01*
Y104367D01*
X86481Y100102D01*
X86436Y100064D01*
X86283Y99884D01*
X86159Y99683D01*
X86069Y99465D01*
X86014Y99235D01*
X86014Y99235D01*
X85995Y99000D01*
X86000Y98941D01*
Y83599D01*
X85731Y83435D01*
X85372Y83128D01*
X85065Y82769D01*
X85000Y82662D01*
X84935Y82769D01*
X84628Y83128D01*
X84269Y83435D01*
X84000Y83599D01*
Y98941D01*
X84005Y99000D01*
X83986Y99235D01*
X83931Y99465D01*
X83841Y99683D01*
X83717Y99884D01*
X83564Y100064D01*
X83519Y100102D01*
X79399Y104223D01*
X79472Y104529D01*
X79500Y105000D01*
X79472Y105471D01*
X79362Y105930D01*
X79181Y106366D01*
X78935Y106769D01*
X78737Y107000D01*
X83941D01*
X84000Y106995D01*
X84235Y107014D01*
X84235Y107014D01*
X84465Y107069D01*
X84683Y107159D01*
X84884Y107283D01*
X85064Y107436D01*
X85102Y107481D01*
X86723Y109101D01*
X87029Y109028D01*
X87500Y108991D01*
X87971Y109028D01*
X88430Y109138D01*
X88866Y109319D01*
X89269Y109565D01*
X89628Y109872D01*
X89935Y110231D01*
X90181Y110634D01*
X90362Y111070D01*
X90472Y111529D01*
X90500Y112000D01*
X90472Y112471D01*
X90362Y112930D01*
X90181Y113366D01*
X89935Y113769D01*
X89628Y114128D01*
X89269Y114435D01*
X88866Y114681D01*
X88430Y114862D01*
X87971Y114972D01*
X87500Y115009D01*
X87029Y114972D01*
X86570Y114862D01*
X86134Y114681D01*
X85731Y114435D01*
X85372Y114128D01*
X85065Y113769D01*
X85000Y113662D01*
X84935Y113769D01*
X84628Y114128D01*
X84269Y114435D01*
X83866Y114681D01*
X83430Y114862D01*
X82971Y114972D01*
X82500Y115009D01*
X82029Y114972D01*
X81570Y114862D01*
X81134Y114681D01*
X80731Y114435D01*
X80372Y114128D01*
X80065Y113769D01*
X79901Y113500D01*
X67559D01*
X67500Y113505D01*
X67495Y113504D01*
Y142491D01*
X67500Y142491D01*
X67971Y142528D01*
X68430Y142638D01*
X68866Y142819D01*
X69269Y143065D01*
X69628Y143372D01*
X69935Y143731D01*
X70181Y144134D01*
X70362Y144570D01*
X70472Y145029D01*
X70500Y145500D01*
X70472Y145971D01*
X70362Y146430D01*
X70181Y146866D01*
X69935Y147269D01*
X69628Y147628D01*
X69269Y147935D01*
X69000Y148099D01*
Y157401D01*
X69269Y157565D01*
X69628Y157872D01*
X69935Y158231D01*
X70181Y158634D01*
X70362Y159070D01*
X70472Y159529D01*
X70500Y160000D01*
X70472Y160471D01*
X70362Y160930D01*
X70181Y161366D01*
X69935Y161769D01*
X69628Y162128D01*
X69269Y162435D01*
X68866Y162681D01*
X68430Y162862D01*
X67971Y162972D01*
X67500Y163009D01*
X67495Y163009D01*
Y267500D01*
G37*
G36*
Y80670D02*X67435Y80769D01*
X67128Y81128D01*
X66769Y81435D01*
X66500Y81599D01*
Y108879D01*
X67495Y109874D01*
Y80670D01*
G37*
G36*
X55000Y57500D02*X67495D01*
Y13000D01*
X55000D01*
Y17507D01*
X59235Y17514D01*
X59465Y17569D01*
X59683Y17659D01*
X59884Y17783D01*
X60064Y17936D01*
X60217Y18116D01*
X60341Y18317D01*
X60431Y18535D01*
X60486Y18765D01*
X60500Y19000D01*
X60486Y27235D01*
X60431Y27465D01*
X60341Y27683D01*
X60217Y27884D01*
X60064Y28064D01*
X59884Y28217D01*
X59683Y28341D01*
X59465Y28431D01*
X59235Y28486D01*
X59000Y28500D01*
X55000Y28493D01*
Y57500D01*
G37*
G36*
Y267500D02*X67495D01*
Y163009D01*
X67029Y162972D01*
X66570Y162862D01*
X66134Y162681D01*
X65731Y162435D01*
X65372Y162128D01*
X65065Y161769D01*
X64819Y161366D01*
X64638Y160930D01*
X64528Y160471D01*
X64491Y160000D01*
X64528Y159529D01*
X64638Y159070D01*
X64819Y158634D01*
X65065Y158231D01*
X65372Y157872D01*
X65731Y157565D01*
X66000Y157401D01*
Y148099D01*
X65731Y147935D01*
X65372Y147628D01*
X65065Y147269D01*
X64819Y146866D01*
X64638Y146430D01*
X64528Y145971D01*
X64491Y145500D01*
X64528Y145029D01*
X64638Y144570D01*
X64819Y144134D01*
X65065Y143731D01*
X65372Y143372D01*
X65731Y143065D01*
X66134Y142819D01*
X66570Y142638D01*
X67029Y142528D01*
X67495Y142491D01*
Y113504D01*
X67265Y113486D01*
X67035Y113431D01*
X66817Y113341D01*
X66616Y113217D01*
X66615Y113217D01*
X66436Y113064D01*
X66398Y113019D01*
X63981Y110602D01*
X63936Y110564D01*
X63783Y110384D01*
X63659Y110183D01*
X63569Y109965D01*
X63514Y109735D01*
X63514Y109735D01*
X63495Y109500D01*
X63500Y109441D01*
Y81599D01*
X63231Y81435D01*
X62872Y81128D01*
X62565Y80769D01*
X62319Y80366D01*
X62138Y79930D01*
X62028Y79471D01*
X61991Y79000D01*
X62028Y78529D01*
X62138Y78070D01*
X62319Y77634D01*
X62565Y77231D01*
X62872Y76872D01*
X63231Y76565D01*
X63634Y76319D01*
X64070Y76138D01*
X64529Y76028D01*
X65000Y75991D01*
X65471Y76028D01*
X65930Y76138D01*
X66366Y76319D01*
X66769Y76565D01*
X67128Y76872D01*
X67435Y77231D01*
X67495Y77330D01*
Y67596D01*
X67231Y67435D01*
X66872Y67128D01*
X66565Y66769D01*
X66401Y66500D01*
X61599D01*
X61435Y66769D01*
X61128Y67128D01*
X60769Y67435D01*
X60366Y67681D01*
X59930Y67862D01*
X59471Y67972D01*
X59000Y68009D01*
X58529Y67972D01*
X58070Y67862D01*
X57634Y67681D01*
X57231Y67435D01*
X56872Y67128D01*
X56565Y66769D01*
X56319Y66366D01*
X56138Y65930D01*
X56028Y65471D01*
X55991Y65000D01*
X56028Y64529D01*
X56138Y64070D01*
X56319Y63634D01*
X56565Y63231D01*
X56872Y62872D01*
X57231Y62565D01*
X57634Y62319D01*
X58070Y62138D01*
X58529Y62028D01*
X59000Y61991D01*
X59471Y62028D01*
X59930Y62138D01*
X60366Y62319D01*
X60769Y62565D01*
X61128Y62872D01*
X61435Y63231D01*
X61599Y63500D01*
X66401D01*
X66565Y63231D01*
X66872Y62872D01*
X67231Y62565D01*
X67495Y62404D01*
Y60500D01*
X55000D01*
Y267500D01*
G37*
G36*
X13964D02*X55000D01*
Y60500D01*
X39599D01*
X39435Y60769D01*
X39128Y61128D01*
X38769Y61435D01*
X38366Y61681D01*
X37930Y61862D01*
X37471Y61972D01*
X37000Y62009D01*
X36529Y61972D01*
X36070Y61862D01*
X35634Y61681D01*
X35231Y61435D01*
X34872Y61128D01*
X34565Y60769D01*
X34319Y60366D01*
X34138Y59930D01*
X34028Y59471D01*
X33991Y59000D01*
X34028Y58529D01*
X34138Y58070D01*
X34319Y57634D01*
X34565Y57231D01*
X34872Y56872D01*
X35231Y56565D01*
X35634Y56319D01*
X36070Y56138D01*
X36529Y56028D01*
X37000Y55991D01*
X37471Y56028D01*
X37930Y56138D01*
X38366Y56319D01*
X38769Y56565D01*
X39128Y56872D01*
X39435Y57231D01*
X39599Y57500D01*
X55000D01*
Y28493D01*
X50765Y28486D01*
X50535Y28431D01*
X50317Y28341D01*
X50116Y28217D01*
X49936Y28064D01*
X49783Y27884D01*
X49659Y27683D01*
X49569Y27465D01*
X49514Y27235D01*
X49500Y27000D01*
X49514Y18765D01*
X49569Y18535D01*
X49659Y18317D01*
X49783Y18116D01*
X49936Y17936D01*
X50116Y17783D01*
X50317Y17659D01*
X50535Y17569D01*
X50765Y17514D01*
X51000Y17500D01*
X55000Y17507D01*
Y13000D01*
X37958D01*
X37597Y13871D01*
X36898Y15012D01*
X36029Y16029D01*
X35012Y16898D01*
X33871Y17597D01*
X32635Y18109D01*
X31334Y18421D01*
X30000Y18526D01*
X28666Y18421D01*
X27365Y18109D01*
X26129Y17597D01*
X24988Y16898D01*
X23971Y16029D01*
X23102Y15012D01*
X22403Y13871D01*
X22042Y13000D01*
X13964D01*
Y17096D01*
X13976Y17111D01*
X14379Y17769D01*
X14675Y18481D01*
X14855Y19231D01*
X14900Y20000D01*
X14855Y20769D01*
X14675Y21519D01*
X14379Y22231D01*
X13976Y22889D01*
X13964Y22904D01*
Y27096D01*
X13976Y27111D01*
X14379Y27769D01*
X14675Y28481D01*
X14855Y29231D01*
X14900Y30000D01*
X14855Y30769D01*
X14675Y31519D01*
X14379Y32231D01*
X13976Y32889D01*
X13964Y32904D01*
Y37096D01*
X13976Y37111D01*
X14379Y37769D01*
X14675Y38481D01*
X14855Y39231D01*
X14900Y40000D01*
X14855Y40769D01*
X14675Y41519D01*
X14379Y42231D01*
X13976Y42889D01*
X13964Y42904D01*
Y47096D01*
X13976Y47111D01*
X14379Y47769D01*
X14675Y48481D01*
X14855Y49231D01*
X14900Y50000D01*
X14855Y50769D01*
X14675Y51519D01*
X14379Y52231D01*
X13976Y52889D01*
X13964Y52904D01*
Y57096D01*
X13976Y57111D01*
X14379Y57769D01*
X14675Y58481D01*
X14855Y59231D01*
X14900Y60000D01*
X14855Y60769D01*
X14675Y61519D01*
X14379Y62231D01*
X13976Y62889D01*
X13964Y62904D01*
Y67096D01*
X13976Y67111D01*
X14379Y67769D01*
X14675Y68481D01*
X14855Y69231D01*
X14900Y70000D01*
X14855Y70769D01*
X14675Y71519D01*
X14379Y72231D01*
X13976Y72889D01*
X13964Y72904D01*
Y87096D01*
X13976Y87111D01*
X14379Y87769D01*
X14675Y88481D01*
X14855Y89231D01*
X14900Y90000D01*
X14855Y90769D01*
X14675Y91519D01*
X14379Y92231D01*
X13976Y92889D01*
X13964Y92904D01*
Y97564D01*
X14049Y97589D01*
X14155Y97639D01*
X14253Y97706D01*
X14339Y97787D01*
X14411Y97880D01*
X14466Y97984D01*
X14641Y98412D01*
X14770Y98855D01*
X14857Y99309D01*
X14900Y99769D01*
Y100231D01*
X14857Y100691D01*
X14770Y101145D01*
X14641Y101588D01*
X14471Y102018D01*
X14415Y102122D01*
X14342Y102216D01*
X14255Y102297D01*
X14157Y102364D01*
X14050Y102414D01*
X13964Y102440D01*
Y107564D01*
X14049Y107589D01*
X14155Y107639D01*
X14253Y107706D01*
X14339Y107787D01*
X14411Y107880D01*
X14466Y107984D01*
X14641Y108412D01*
X14770Y108855D01*
X14857Y109309D01*
X14900Y109769D01*
Y110231D01*
X14857Y110691D01*
X14770Y111145D01*
X14641Y111588D01*
X14471Y112018D01*
X14415Y112122D01*
X14342Y112216D01*
X14255Y112297D01*
X14157Y112364D01*
X14050Y112414D01*
X13964Y112440D01*
Y117096D01*
X13976Y117111D01*
X14379Y117769D01*
X14675Y118481D01*
X14855Y119231D01*
X14900Y120000D01*
X14855Y120769D01*
X14675Y121519D01*
X14379Y122231D01*
X13976Y122889D01*
X13964Y122904D01*
Y127096D01*
X13976Y127111D01*
X14379Y127769D01*
X14675Y128481D01*
X14855Y129231D01*
X14900Y130000D01*
X14855Y130769D01*
X14675Y131519D01*
X14379Y132231D01*
X13976Y132889D01*
X13964Y132904D01*
Y137096D01*
X13976Y137111D01*
X14379Y137769D01*
X14675Y138481D01*
X14855Y139231D01*
X14900Y140000D01*
X14855Y140769D01*
X14675Y141519D01*
X14379Y142231D01*
X13976Y142889D01*
X13964Y142904D01*
Y147096D01*
X13976Y147111D01*
X14379Y147769D01*
X14675Y148481D01*
X14855Y149231D01*
X14900Y150000D01*
X14855Y150769D01*
X14675Y151519D01*
X14379Y152231D01*
X13976Y152889D01*
X13964Y152904D01*
Y155210D01*
X14083Y155259D01*
X14284Y155383D01*
X14464Y155536D01*
X14617Y155716D01*
X14741Y155917D01*
X14831Y156135D01*
X14886Y156365D01*
X14900Y156600D01*
X14886Y163635D01*
X14831Y163865D01*
X14741Y164083D01*
X14617Y164284D01*
X14464Y164464D01*
X14284Y164617D01*
X14083Y164741D01*
X13964Y164790D01*
Y207460D01*
X15012Y208102D01*
X16029Y208971D01*
X16898Y209988D01*
X17597Y211129D01*
X18109Y212365D01*
X18421Y213666D01*
X18500Y215000D01*
X18421Y216334D01*
X18109Y217635D01*
X17597Y218871D01*
X16898Y220012D01*
X16029Y221029D01*
X15012Y221898D01*
X13964Y222540D01*
Y267500D01*
G37*
G36*
Y164790D02*X13865Y164831D01*
X13635Y164886D01*
X13400Y164900D01*
X9992Y164893D01*
Y206474D01*
X10000Y206474D01*
X11334Y206579D01*
X12635Y206891D01*
X13871Y207403D01*
X13964Y207460D01*
Y164790D01*
G37*
G36*
Y152904D02*X13476Y153476D01*
X12889Y153976D01*
X12231Y154379D01*
X11519Y154675D01*
X10769Y154855D01*
X10000Y154915D01*
X9992Y154915D01*
Y155107D01*
X13635Y155114D01*
X13865Y155169D01*
X13964Y155210D01*
Y152904D01*
G37*
G36*
Y142904D02*X13476Y143476D01*
X12889Y143976D01*
X12231Y144379D01*
X11519Y144675D01*
X10769Y144855D01*
X10000Y144915D01*
X9992Y144915D01*
Y145085D01*
X10000Y145085D01*
X10769Y145145D01*
X11519Y145325D01*
X12231Y145621D01*
X12889Y146024D01*
X13476Y146524D01*
X13964Y147096D01*
Y142904D01*
G37*
G36*
Y132904D02*X13476Y133476D01*
X12889Y133976D01*
X12231Y134379D01*
X11519Y134675D01*
X10769Y134855D01*
X10000Y134915D01*
X9992Y134915D01*
Y135085D01*
X10000Y135085D01*
X10769Y135145D01*
X11519Y135325D01*
X12231Y135621D01*
X12889Y136024D01*
X13476Y136524D01*
X13964Y137096D01*
Y132904D01*
G37*
G36*
Y122904D02*X13476Y123476D01*
X12889Y123976D01*
X12231Y124379D01*
X11519Y124675D01*
X10769Y124855D01*
X10000Y124915D01*
X9992Y124915D01*
Y125085D01*
X10000Y125085D01*
X10769Y125145D01*
X11519Y125325D01*
X12231Y125621D01*
X12889Y126024D01*
X13476Y126524D01*
X13964Y127096D01*
Y122904D01*
G37*
G36*
Y92904D02*X13476Y93476D01*
X12889Y93976D01*
X12231Y94379D01*
X11519Y94675D01*
X10769Y94855D01*
X10000Y94915D01*
X9992Y94915D01*
Y95100D01*
X10231D01*
X10691Y95143D01*
X11145Y95230D01*
X11588Y95359D01*
X12018Y95529D01*
X12122Y95585D01*
X12216Y95658D01*
X12297Y95745D01*
X12364Y95843D01*
X12414Y95950D01*
X12448Y96064D01*
X12462Y96182D01*
X12459Y96300D01*
X12436Y96417D01*
X12396Y96528D01*
X12339Y96632D01*
X12266Y96726D01*
X12180Y96807D01*
X12082Y96874D01*
X11975Y96925D01*
X11861Y96958D01*
X11743Y96973D01*
X11624Y96969D01*
X11508Y96947D01*
X11397Y96904D01*
X11101Y96783D01*
X10793Y96694D01*
X10479Y96634D01*
X10160Y96604D01*
X9992D01*
Y103396D01*
X10160D01*
X10479Y103366D01*
X10793Y103306D01*
X11101Y103217D01*
X11399Y103099D01*
X11509Y103057D01*
X11625Y103035D01*
X11743Y103031D01*
X11860Y103046D01*
X11973Y103079D01*
X12080Y103129D01*
X12178Y103196D01*
X12264Y103276D01*
X12336Y103370D01*
X12393Y103473D01*
X12433Y103584D01*
X12455Y103700D01*
X12459Y103818D01*
X12444Y103935D01*
X12411Y104049D01*
X12361Y104155D01*
X12294Y104253D01*
X12213Y104339D01*
X12120Y104411D01*
X12016Y104466D01*
X11588Y104641D01*
X11145Y104770D01*
X10691Y104857D01*
X10231Y104900D01*
X9992D01*
Y105100D01*
X10231D01*
X10691Y105143D01*
X11145Y105230D01*
X11588Y105359D01*
X12018Y105529D01*
X12122Y105585D01*
X12216Y105658D01*
X12297Y105745D01*
X12364Y105843D01*
X12414Y105950D01*
X12448Y106064D01*
X12462Y106182D01*
X12459Y106300D01*
X12436Y106417D01*
X12396Y106528D01*
X12339Y106632D01*
X12266Y106726D01*
X12180Y106807D01*
X12082Y106874D01*
X11975Y106925D01*
X11861Y106958D01*
X11743Y106973D01*
X11624Y106969D01*
X11508Y106947D01*
X11397Y106904D01*
X11101Y106783D01*
X10793Y106694D01*
X10479Y106634D01*
X10160Y106604D01*
X9992D01*
Y113396D01*
X10160D01*
X10479Y113366D01*
X10793Y113306D01*
X11101Y113217D01*
X11399Y113099D01*
X11509Y113057D01*
X11625Y113035D01*
X11743Y113031D01*
X11860Y113046D01*
X11973Y113079D01*
X12080Y113129D01*
X12178Y113196D01*
X12264Y113276D01*
X12336Y113370D01*
X12393Y113473D01*
X12433Y113584D01*
X12455Y113700D01*
X12459Y113818D01*
X12444Y113935D01*
X12411Y114049D01*
X12361Y114155D01*
X12294Y114253D01*
X12213Y114339D01*
X12120Y114411D01*
X12016Y114466D01*
X11588Y114641D01*
X11145Y114770D01*
X10691Y114857D01*
X10231Y114900D01*
X9992D01*
Y115085D01*
X10000Y115085D01*
X10769Y115145D01*
X11519Y115325D01*
X12231Y115621D01*
X12889Y116024D01*
X13476Y116524D01*
X13964Y117096D01*
Y112440D01*
X13936Y112448D01*
X13818Y112462D01*
X13700Y112459D01*
X13583Y112437D01*
X13472Y112396D01*
X13368Y112339D01*
X13274Y112266D01*
X13193Y112180D01*
X13126Y112082D01*
X13075Y111975D01*
X13042Y111861D01*
X13027Y111743D01*
X13031Y111624D01*
X13053Y111508D01*
X13096Y111397D01*
X13217Y111101D01*
X13306Y110793D01*
X13366Y110479D01*
X13396Y110160D01*
Y109840D01*
X13366Y109521D01*
X13306Y109207D01*
X13217Y108899D01*
X13099Y108601D01*
X13057Y108491D01*
X13035Y108375D01*
X13031Y108257D01*
X13046Y108140D01*
X13079Y108027D01*
X13129Y107920D01*
X13196Y107822D01*
X13276Y107736D01*
X13370Y107664D01*
X13473Y107607D01*
X13584Y107567D01*
X13700Y107545D01*
X13818Y107541D01*
X13935Y107556D01*
X13964Y107564D01*
Y102440D01*
X13936Y102448D01*
X13818Y102462D01*
X13700Y102459D01*
X13583Y102437D01*
X13472Y102396D01*
X13368Y102339D01*
X13274Y102266D01*
X13193Y102180D01*
X13126Y102082D01*
X13075Y101975D01*
X13042Y101861D01*
X13027Y101743D01*
X13031Y101624D01*
X13053Y101508D01*
X13096Y101397D01*
X13217Y101101D01*
X13306Y100793D01*
X13366Y100479D01*
X13396Y100160D01*
Y99840D01*
X13366Y99521D01*
X13306Y99207D01*
X13217Y98899D01*
X13099Y98601D01*
X13057Y98491D01*
X13035Y98375D01*
X13031Y98257D01*
X13046Y98140D01*
X13079Y98027D01*
X13129Y97920D01*
X13196Y97822D01*
X13276Y97736D01*
X13370Y97664D01*
X13473Y97607D01*
X13584Y97567D01*
X13700Y97545D01*
X13818Y97541D01*
X13935Y97556D01*
X13964Y97564D01*
Y92904D01*
G37*
G36*
Y72904D02*X13476Y73476D01*
X12889Y73976D01*
X12231Y74379D01*
X11519Y74675D01*
X10769Y74855D01*
X10000Y74915D01*
X9992Y74915D01*
Y85085D01*
X10000Y85085D01*
X10769Y85145D01*
X11519Y85325D01*
X12231Y85621D01*
X12889Y86024D01*
X13476Y86524D01*
X13964Y87096D01*
Y72904D01*
G37*
G36*
Y62904D02*X13476Y63476D01*
X12889Y63976D01*
X12231Y64379D01*
X11519Y64675D01*
X10769Y64855D01*
X10000Y64915D01*
X9992Y64915D01*
Y65085D01*
X10000Y65085D01*
X10769Y65145D01*
X11519Y65325D01*
X12231Y65621D01*
X12889Y66024D01*
X13476Y66524D01*
X13964Y67096D01*
Y62904D01*
G37*
G36*
Y52904D02*X13476Y53476D01*
X12889Y53976D01*
X12231Y54379D01*
X11519Y54675D01*
X10769Y54855D01*
X10000Y54915D01*
X9992Y54915D01*
Y55085D01*
X10000Y55085D01*
X10769Y55145D01*
X11519Y55325D01*
X12231Y55621D01*
X12889Y56024D01*
X13476Y56524D01*
X13964Y57096D01*
Y52904D01*
G37*
G36*
Y42904D02*X13476Y43476D01*
X12889Y43976D01*
X12231Y44379D01*
X11519Y44675D01*
X10769Y44855D01*
X10000Y44915D01*
X9992Y44915D01*
Y45085D01*
X10000Y45085D01*
X10769Y45145D01*
X11519Y45325D01*
X12231Y45621D01*
X12889Y46024D01*
X13476Y46524D01*
X13964Y47096D01*
Y42904D01*
G37*
G36*
Y32904D02*X13476Y33476D01*
X12889Y33976D01*
X12231Y34379D01*
X11519Y34675D01*
X10769Y34855D01*
X10000Y34915D01*
X9992Y34915D01*
Y35085D01*
X10000Y35085D01*
X10769Y35145D01*
X11519Y35325D01*
X12231Y35621D01*
X12889Y36024D01*
X13476Y36524D01*
X13964Y37096D01*
Y32904D01*
G37*
G36*
Y22904D02*X13476Y23476D01*
X12889Y23976D01*
X12231Y24379D01*
X11519Y24675D01*
X10769Y24855D01*
X10000Y24915D01*
X9992Y24915D01*
Y25085D01*
X10000Y25085D01*
X10769Y25145D01*
X11519Y25325D01*
X12231Y25621D01*
X12889Y26024D01*
X13476Y26524D01*
X13964Y27096D01*
Y22904D01*
G37*
G36*
Y13000D02*X9992D01*
Y15085D01*
X10000Y15085D01*
X10769Y15145D01*
X11519Y15325D01*
X12231Y15621D01*
X12889Y16024D01*
X13476Y16524D01*
X13964Y17096D01*
Y13000D01*
G37*
G36*
X9992Y267500D02*X13964D01*
Y222540D01*
X13871Y222597D01*
X12635Y223109D01*
X11334Y223421D01*
X10000Y223526D01*
X9992Y223526D01*
Y267500D01*
G37*
G36*
X6036Y27096D02*X6524Y26524D01*
X7111Y26024D01*
X7769Y25621D01*
X8481Y25325D01*
X9231Y25145D01*
X9992Y25085D01*
Y24915D01*
X9231Y24855D01*
X8481Y24675D01*
X7769Y24379D01*
X7111Y23976D01*
X6524Y23476D01*
X6036Y22904D01*
Y27096D01*
G37*
G36*
Y37096D02*X6524Y36524D01*
X7111Y36024D01*
X7769Y35621D01*
X8481Y35325D01*
X9231Y35145D01*
X9992Y35085D01*
Y34915D01*
X9231Y34855D01*
X8481Y34675D01*
X7769Y34379D01*
X7111Y33976D01*
X6524Y33476D01*
X6036Y32904D01*
Y37096D01*
G37*
G36*
Y47096D02*X6524Y46524D01*
X7111Y46024D01*
X7769Y45621D01*
X8481Y45325D01*
X9231Y45145D01*
X9992Y45085D01*
Y44915D01*
X9231Y44855D01*
X8481Y44675D01*
X7769Y44379D01*
X7111Y43976D01*
X6524Y43476D01*
X6036Y42904D01*
Y47096D01*
G37*
G36*
Y57096D02*X6524Y56524D01*
X7111Y56024D01*
X7769Y55621D01*
X8481Y55325D01*
X9231Y55145D01*
X9992Y55085D01*
Y54915D01*
X9231Y54855D01*
X8481Y54675D01*
X7769Y54379D01*
X7111Y53976D01*
X6524Y53476D01*
X6036Y52904D01*
Y57096D01*
G37*
G36*
Y67096D02*X6524Y66524D01*
X7111Y66024D01*
X7769Y65621D01*
X8481Y65325D01*
X9231Y65145D01*
X9992Y65085D01*
Y64915D01*
X9231Y64855D01*
X8481Y64675D01*
X7769Y64379D01*
X7111Y63976D01*
X6524Y63476D01*
X6036Y62904D01*
Y67096D01*
G37*
G36*
Y87096D02*X6524Y86524D01*
X7111Y86024D01*
X7769Y85621D01*
X8481Y85325D01*
X9231Y85145D01*
X9992Y85085D01*
Y74915D01*
X9231Y74855D01*
X8481Y74675D01*
X7769Y74379D01*
X7111Y73976D01*
X6524Y73476D01*
X6036Y72904D01*
Y87096D01*
G37*
G36*
Y117096D02*X6524Y116524D01*
X7111Y116024D01*
X7769Y115621D01*
X8481Y115325D01*
X9231Y115145D01*
X9992Y115085D01*
Y114900D01*
X9769D01*
X9309Y114857D01*
X8855Y114770D01*
X8412Y114641D01*
X7982Y114471D01*
X7878Y114415D01*
X7784Y114342D01*
X7703Y114255D01*
X7636Y114157D01*
X7586Y114050D01*
X7552Y113936D01*
X7538Y113818D01*
X7541Y113700D01*
X7563Y113583D01*
X7604Y113472D01*
X7661Y113368D01*
X7734Y113274D01*
X7820Y113193D01*
X7918Y113126D01*
X8025Y113075D01*
X8139Y113042D01*
X8257Y113027D01*
X8376Y113031D01*
X8492Y113053D01*
X8603Y113096D01*
X8899Y113217D01*
X9207Y113306D01*
X9521Y113366D01*
X9840Y113396D01*
X9992D01*
Y106604D01*
X9840D01*
X9521Y106634D01*
X9207Y106694D01*
X8899Y106783D01*
X8601Y106901D01*
X8491Y106943D01*
X8375Y106965D01*
X8257Y106969D01*
X8140Y106954D01*
X8027Y106921D01*
X7920Y106871D01*
X7822Y106804D01*
X7736Y106724D01*
X7664Y106630D01*
X7607Y106527D01*
X7567Y106416D01*
X7545Y106300D01*
X7541Y106182D01*
X7556Y106065D01*
X7589Y105951D01*
X7639Y105845D01*
X7706Y105747D01*
X7787Y105661D01*
X7880Y105589D01*
X7984Y105534D01*
X8412Y105359D01*
X8855Y105230D01*
X9309Y105143D01*
X9769Y105100D01*
X9992D01*
Y104900D01*
X9769D01*
X9309Y104857D01*
X8855Y104770D01*
X8412Y104641D01*
X7982Y104471D01*
X7878Y104415D01*
X7784Y104342D01*
X7703Y104255D01*
X7636Y104157D01*
X7586Y104050D01*
X7552Y103936D01*
X7538Y103818D01*
X7541Y103700D01*
X7563Y103583D01*
X7604Y103472D01*
X7661Y103368D01*
X7734Y103274D01*
X7820Y103193D01*
X7918Y103126D01*
X8025Y103075D01*
X8139Y103042D01*
X8257Y103027D01*
X8376Y103031D01*
X8492Y103053D01*
X8603Y103096D01*
X8899Y103217D01*
X9207Y103306D01*
X9521Y103366D01*
X9840Y103396D01*
X9992D01*
Y96604D01*
X9840D01*
X9521Y96634D01*
X9207Y96694D01*
X8899Y96783D01*
X8601Y96901D01*
X8491Y96943D01*
X8375Y96965D01*
X8257Y96969D01*
X8140Y96954D01*
X8027Y96921D01*
X7920Y96871D01*
X7822Y96804D01*
X7736Y96724D01*
X7664Y96630D01*
X7607Y96527D01*
X7567Y96416D01*
X7545Y96300D01*
X7541Y96182D01*
X7556Y96065D01*
X7589Y95951D01*
X7639Y95845D01*
X7706Y95747D01*
X7787Y95661D01*
X7880Y95589D01*
X7984Y95534D01*
X8412Y95359D01*
X8855Y95230D01*
X9309Y95143D01*
X9769Y95100D01*
X9992D01*
Y94915D01*
X9231Y94855D01*
X8481Y94675D01*
X7769Y94379D01*
X7111Y93976D01*
X6524Y93476D01*
X6036Y92904D01*
Y97560D01*
X6064Y97552D01*
X6182Y97538D01*
X6300Y97541D01*
X6417Y97564D01*
X6528Y97604D01*
X6632Y97661D01*
X6726Y97734D01*
X6807Y97820D01*
X6874Y97918D01*
X6925Y98025D01*
X6958Y98139D01*
X6973Y98257D01*
X6969Y98376D01*
X6947Y98492D01*
X6904Y98603D01*
X6783Y98899D01*
X6694Y99207D01*
X6634Y99521D01*
X6604Y99840D01*
Y100160D01*
X6634Y100479D01*
X6694Y100793D01*
X6783Y101101D01*
X6901Y101399D01*
X6943Y101509D01*
X6965Y101625D01*
X6969Y101743D01*
X6954Y101860D01*
X6921Y101973D01*
X6871Y102080D01*
X6804Y102178D01*
X6724Y102264D01*
X6630Y102336D01*
X6527Y102393D01*
X6416Y102433D01*
X6300Y102455D01*
X6182Y102459D01*
X6065Y102444D01*
X6036Y102436D01*
Y107560D01*
X6064Y107552D01*
X6182Y107538D01*
X6300Y107541D01*
X6417Y107564D01*
X6528Y107604D01*
X6632Y107661D01*
X6726Y107734D01*
X6807Y107820D01*
X6874Y107918D01*
X6925Y108025D01*
X6958Y108139D01*
X6973Y108257D01*
X6969Y108376D01*
X6947Y108492D01*
X6904Y108603D01*
X6783Y108899D01*
X6694Y109207D01*
X6634Y109521D01*
X6604Y109840D01*
Y110160D01*
X6634Y110479D01*
X6694Y110793D01*
X6783Y111101D01*
X6901Y111399D01*
X6943Y111509D01*
X6965Y111625D01*
X6969Y111743D01*
X6954Y111860D01*
X6921Y111973D01*
X6871Y112080D01*
X6804Y112178D01*
X6724Y112264D01*
X6630Y112336D01*
X6527Y112393D01*
X6416Y112433D01*
X6300Y112455D01*
X6182Y112459D01*
X6065Y112444D01*
X6036Y112436D01*
Y117096D01*
G37*
G36*
Y127096D02*X6524Y126524D01*
X7111Y126024D01*
X7769Y125621D01*
X8481Y125325D01*
X9231Y125145D01*
X9992Y125085D01*
Y124915D01*
X9231Y124855D01*
X8481Y124675D01*
X7769Y124379D01*
X7111Y123976D01*
X6524Y123476D01*
X6036Y122904D01*
Y127096D01*
G37*
G36*
Y137096D02*X6524Y136524D01*
X7111Y136024D01*
X7769Y135621D01*
X8481Y135325D01*
X9231Y135145D01*
X9992Y135085D01*
Y134915D01*
X9231Y134855D01*
X8481Y134675D01*
X7769Y134379D01*
X7111Y133976D01*
X6524Y133476D01*
X6036Y132904D01*
Y137096D01*
G37*
G36*
Y147096D02*X6524Y146524D01*
X7111Y146024D01*
X7769Y145621D01*
X8481Y145325D01*
X9231Y145145D01*
X9992Y145085D01*
Y144915D01*
X9231Y144855D01*
X8481Y144675D01*
X7769Y144379D01*
X7111Y143976D01*
X6524Y143476D01*
X6036Y142904D01*
Y147096D01*
G37*
G36*
Y155210D02*X6135Y155169D01*
X6365Y155114D01*
X6600Y155100D01*
X9992Y155107D01*
Y154915D01*
X9231Y154855D01*
X8481Y154675D01*
X7769Y154379D01*
X7111Y153976D01*
X6524Y153476D01*
X6036Y152904D01*
Y155210D01*
G37*
G36*
Y207460D02*X6129Y207403D01*
X7365Y206891D01*
X8666Y206579D01*
X9992Y206474D01*
Y164893D01*
X6365Y164886D01*
X6135Y164831D01*
X6036Y164790D01*
Y207460D01*
G37*
G36*
X9992Y13000D02*X6036D01*
Y17096D01*
X6524Y16524D01*
X7111Y16024D01*
X7769Y15621D01*
X8481Y15325D01*
X9231Y15145D01*
X9992Y15085D01*
Y13000D01*
G37*
G36*
X6036D02*X2500D01*
Y210971D01*
X3102Y209988D01*
X3971Y208971D01*
X4988Y208102D01*
X6036Y207460D01*
Y164790D01*
X5917Y164741D01*
X5716Y164617D01*
X5536Y164464D01*
X5383Y164284D01*
X5259Y164083D01*
X5169Y163865D01*
X5114Y163635D01*
X5100Y163400D01*
X5114Y156365D01*
X5169Y156135D01*
X5259Y155917D01*
X5383Y155716D01*
X5536Y155536D01*
X5716Y155383D01*
X5917Y155259D01*
X6036Y155210D01*
Y152904D01*
X6024Y152889D01*
X5621Y152231D01*
X5325Y151519D01*
X5145Y150769D01*
X5085Y150000D01*
X5145Y149231D01*
X5325Y148481D01*
X5621Y147769D01*
X6024Y147111D01*
X6036Y147096D01*
Y142904D01*
X6024Y142889D01*
X5621Y142231D01*
X5325Y141519D01*
X5145Y140769D01*
X5085Y140000D01*
X5145Y139231D01*
X5325Y138481D01*
X5621Y137769D01*
X6024Y137111D01*
X6036Y137096D01*
Y132904D01*
X6024Y132889D01*
X5621Y132231D01*
X5325Y131519D01*
X5145Y130769D01*
X5085Y130000D01*
X5145Y129231D01*
X5325Y128481D01*
X5621Y127769D01*
X6024Y127111D01*
X6036Y127096D01*
Y122904D01*
X6024Y122889D01*
X5621Y122231D01*
X5325Y121519D01*
X5145Y120769D01*
X5085Y120000D01*
X5145Y119231D01*
X5325Y118481D01*
X5621Y117769D01*
X6024Y117111D01*
X6036Y117096D01*
Y112436D01*
X5951Y112411D01*
X5845Y112361D01*
X5747Y112294D01*
X5661Y112213D01*
X5589Y112120D01*
X5534Y112016D01*
X5359Y111588D01*
X5230Y111145D01*
X5143Y110691D01*
X5100Y110231D01*
Y109769D01*
X5143Y109309D01*
X5230Y108855D01*
X5359Y108412D01*
X5529Y107982D01*
X5585Y107878D01*
X5658Y107784D01*
X5745Y107703D01*
X5843Y107636D01*
X5950Y107586D01*
X6036Y107560D01*
Y102436D01*
X5951Y102411D01*
X5845Y102361D01*
X5747Y102294D01*
X5661Y102213D01*
X5589Y102120D01*
X5534Y102016D01*
X5359Y101588D01*
X5230Y101145D01*
X5143Y100691D01*
X5100Y100231D01*
Y99769D01*
X5143Y99309D01*
X5230Y98855D01*
X5359Y98412D01*
X5529Y97982D01*
X5585Y97878D01*
X5658Y97784D01*
X5745Y97703D01*
X5843Y97636D01*
X5950Y97586D01*
X6036Y97560D01*
Y92904D01*
X6024Y92889D01*
X5621Y92231D01*
X5325Y91519D01*
X5145Y90769D01*
X5085Y90000D01*
X5145Y89231D01*
X5325Y88481D01*
X5621Y87769D01*
X6024Y87111D01*
X6036Y87096D01*
Y72904D01*
X6024Y72889D01*
X5621Y72231D01*
X5325Y71519D01*
X5145Y70769D01*
X5085Y70000D01*
X5145Y69231D01*
X5325Y68481D01*
X5621Y67769D01*
X6024Y67111D01*
X6036Y67096D01*
Y62904D01*
X6024Y62889D01*
X5621Y62231D01*
X5325Y61519D01*
X5145Y60769D01*
X5085Y60000D01*
X5145Y59231D01*
X5325Y58481D01*
X5621Y57769D01*
X6024Y57111D01*
X6036Y57096D01*
Y52904D01*
X6024Y52889D01*
X5621Y52231D01*
X5325Y51519D01*
X5145Y50769D01*
X5085Y50000D01*
X5145Y49231D01*
X5325Y48481D01*
X5621Y47769D01*
X6024Y47111D01*
X6036Y47096D01*
Y42904D01*
X6024Y42889D01*
X5621Y42231D01*
X5325Y41519D01*
X5145Y40769D01*
X5085Y40000D01*
X5145Y39231D01*
X5325Y38481D01*
X5621Y37769D01*
X6024Y37111D01*
X6036Y37096D01*
Y32904D01*
X6024Y32889D01*
X5621Y32231D01*
X5325Y31519D01*
X5145Y30769D01*
X5085Y30000D01*
X5145Y29231D01*
X5325Y28481D01*
X5621Y27769D01*
X6024Y27111D01*
X6036Y27096D01*
Y22904D01*
X6024Y22889D01*
X5621Y22231D01*
X5325Y21519D01*
X5145Y20769D01*
X5085Y20000D01*
X5145Y19231D01*
X5325Y18481D01*
X5621Y17769D01*
X6024Y17111D01*
X6036Y17096D01*
Y13000D01*
G37*
G36*
X2500Y267500D02*X9992D01*
Y223526D01*
X8666Y223421D01*
X7365Y223109D01*
X6129Y222597D01*
X4988Y221898D01*
X3971Y221029D01*
X3102Y220012D01*
X2500Y219029D01*
Y267500D01*
G37*
G54D27*X82500Y81000D02*Y99000D01*
X87500Y81000D02*Y99000D01*
X74500Y77500D02*X103500D01*
X105000Y79000D01*
X59000Y65000D02*X69000D01*
X147000Y59000D02*X37000D01*
X67500Y112000D02*X65000Y109500D01*
X67500Y160000D02*Y145500D01*
X65000Y109500D02*Y79000D01*
X72000Y106500D02*Y80000D01*
X74500Y77500D01*
X82500Y99000D02*X76500Y105000D01*
X82500Y112000D02*X67500D01*
X87500D02*X84000Y108500D01*
X74000D01*
X72000Y106500D01*
X87500Y99000D02*X93500Y105000D01*
X116500D01*
X200000Y126000D02*X183500D01*
X166500Y143000D01*
G54D26*G36*
X196600Y23400D02*Y16600D01*
X203400D01*
Y23400D01*
X196600D01*
G37*
G54D28*X200000Y30000D03*
Y40000D03*
Y50000D03*
Y60000D03*
Y70000D03*
G54D29*X140000Y10000D03*
G54D30*X115000Y23000D03*
G54D28*X10000Y130000D03*
Y120000D03*
Y110000D03*
Y100000D03*
G54D26*G36*
X6600Y163400D02*Y156600D01*
X13400D01*
Y163400D01*
X6600D01*
G37*
G54D28*X10000Y150000D03*
Y140000D03*
G54D29*Y215000D03*
G54D28*X200000Y80000D03*
Y90000D03*
Y106000D03*
Y116000D03*
Y126000D03*
Y136000D03*
Y146000D03*
Y156000D03*
Y166000D03*
Y176000D03*
Y186000D03*
Y196000D03*
G54D29*Y210000D03*
G54D28*X10000Y90000D03*
Y70000D03*
Y60000D03*
Y50000D03*
Y40000D03*
Y30000D03*
Y20000D03*
G54D29*X30000Y10000D03*
G54D26*G36*
X51000Y27000D02*Y19000D01*
X59000D01*
Y27000D01*
X51000D01*
G37*
G54D30*X75000Y23000D03*
G54D26*G36*
X91000Y27000D02*Y19000D01*
X99000D01*
Y27000D01*
X91000D01*
G37*
G54D31*X82500Y81000D03*
X87500D03*
X76500Y105000D03*
X116500D03*
X87500Y112000D03*
X82500D03*
X59000Y65000D03*
X69000D03*
X147000Y59000D03*
X37000D03*
X105000Y79000D03*
X65000D03*
X54000Y169500D03*
Y148500D03*
X67500Y145500D03*
Y160000D03*
X93000Y138500D03*
X77000D03*
X166500Y143000D03*
G54D32*G54D33*G54D34*G54D35*G54D33*G54D34*G54D33*G54D34*G54D33*G54D34*G54D35*M02*
