G04 start of page 2 for group 0 idx 0 *
G04 Title: (unknown), component *
G04 Creator: pcb 20140316 *
G04 CreationDate: Fri 13 Apr 2018 03:31:12 AM GMT UTC *
G04 For: railfan *
G04 Format: Gerber/RS-274X *
G04 PCB-Dimensions (mil): 2100.00 2700.00 *
G04 PCB-Coordinate-Origin: lower left *
%MOIN*%
%FSLAX25Y25*%
%LNTOP*%
%ADD25C,0.0480*%
%ADD24C,0.1285*%
%ADD23C,0.0380*%
%ADD22C,0.0400*%
%ADD21R,0.0500X0.0500*%
%ADD20R,0.0200X0.0200*%
%ADD19R,0.0340X0.0340*%
%ADD18R,0.0512X0.0512*%
%ADD17R,0.0167X0.0167*%
%ADD16C,0.0800*%
%ADD15C,0.1500*%
%ADD14C,0.0680*%
%ADD13C,0.0200*%
%ADD12C,0.0100*%
%ADD11C,0.0001*%
G54D11*G36*
X13964Y94500D02*X54000D01*
Y84000D01*
X13964D01*
Y87564D01*
X14049Y87589D01*
X14155Y87639D01*
X14253Y87706D01*
X14339Y87787D01*
X14411Y87880D01*
X14466Y87984D01*
X14641Y88412D01*
X14770Y88855D01*
X14857Y89309D01*
X14900Y89769D01*
Y90231D01*
X14857Y90691D01*
X14770Y91145D01*
X14641Y91588D01*
X14471Y92018D01*
X14415Y92122D01*
X14342Y92216D01*
X14255Y92297D01*
X14157Y92364D01*
X14050Y92414D01*
X13964Y92440D01*
Y94500D01*
G37*
G36*
X10002Y93396D02*X10160D01*
X10479Y93366D01*
X10793Y93306D01*
X11101Y93217D01*
X11399Y93099D01*
X11509Y93057D01*
X11625Y93035D01*
X11743Y93031D01*
X11860Y93046D01*
X11973Y93079D01*
X12080Y93129D01*
X12178Y93196D01*
X12264Y93276D01*
X12336Y93370D01*
X12393Y93473D01*
X12433Y93584D01*
X12455Y93700D01*
X12459Y93818D01*
X12444Y93935D01*
X12411Y94049D01*
X12361Y94155D01*
X12294Y94253D01*
X12213Y94339D01*
X12120Y94411D01*
X12016Y94466D01*
X11933Y94500D01*
X13964D01*
Y92440D01*
X13936Y92448D01*
X13818Y92462D01*
X13700Y92459D01*
X13583Y92437D01*
X13472Y92396D01*
X13368Y92339D01*
X13274Y92266D01*
X13193Y92180D01*
X13126Y92082D01*
X13075Y91975D01*
X13042Y91861D01*
X13027Y91743D01*
X13031Y91624D01*
X13053Y91508D01*
X13096Y91397D01*
X13217Y91101D01*
X13306Y90793D01*
X13366Y90479D01*
X13396Y90160D01*
Y89840D01*
X13366Y89521D01*
X13306Y89207D01*
X13217Y88899D01*
X13099Y88601D01*
X13057Y88491D01*
X13035Y88375D01*
X13031Y88257D01*
X13046Y88140D01*
X13079Y88027D01*
X13129Y87920D01*
X13196Y87822D01*
X13276Y87736D01*
X13370Y87664D01*
X13473Y87607D01*
X13584Y87567D01*
X13700Y87545D01*
X13818Y87541D01*
X13935Y87556D01*
X13964Y87564D01*
Y84000D01*
X10002D01*
Y85100D01*
X10231D01*
X10691Y85143D01*
X11145Y85230D01*
X11588Y85359D01*
X12018Y85529D01*
X12122Y85585D01*
X12216Y85658D01*
X12297Y85745D01*
X12364Y85843D01*
X12414Y85950D01*
X12448Y86064D01*
X12462Y86182D01*
X12459Y86300D01*
X12436Y86417D01*
X12396Y86528D01*
X12339Y86632D01*
X12266Y86726D01*
X12180Y86807D01*
X12082Y86874D01*
X11975Y86925D01*
X11861Y86958D01*
X11743Y86973D01*
X11624Y86969D01*
X11508Y86947D01*
X11397Y86904D01*
X11101Y86783D01*
X10793Y86694D01*
X10479Y86634D01*
X10160Y86604D01*
X10002D01*
Y93396D01*
G37*
G36*
X6036Y94500D02*X8055D01*
X7982Y94471D01*
X7878Y94415D01*
X7784Y94342D01*
X7703Y94255D01*
X7636Y94157D01*
X7586Y94050D01*
X7552Y93936D01*
X7538Y93818D01*
X7541Y93700D01*
X7563Y93583D01*
X7604Y93472D01*
X7661Y93368D01*
X7734Y93274D01*
X7820Y93193D01*
X7918Y93126D01*
X8025Y93075D01*
X8139Y93042D01*
X8257Y93027D01*
X8376Y93031D01*
X8492Y93053D01*
X8603Y93096D01*
X8899Y93217D01*
X9207Y93306D01*
X9521Y93366D01*
X9840Y93396D01*
X10002D01*
Y86604D01*
X9840D01*
X9521Y86634D01*
X9207Y86694D01*
X8899Y86783D01*
X8601Y86901D01*
X8491Y86943D01*
X8375Y86965D01*
X8257Y86969D01*
X8140Y86954D01*
X8027Y86921D01*
X7920Y86871D01*
X7822Y86804D01*
X7736Y86724D01*
X7664Y86630D01*
X7607Y86527D01*
X7567Y86416D01*
X7545Y86300D01*
X7541Y86182D01*
X7556Y86065D01*
X7589Y85951D01*
X7639Y85845D01*
X7706Y85747D01*
X7787Y85661D01*
X7880Y85589D01*
X7984Y85534D01*
X8412Y85359D01*
X8855Y85230D01*
X9309Y85143D01*
X9769Y85100D01*
X10002D01*
Y84000D01*
X6036D01*
Y87560D01*
X6064Y87552D01*
X6182Y87538D01*
X6300Y87541D01*
X6417Y87564D01*
X6528Y87604D01*
X6632Y87661D01*
X6726Y87734D01*
X6807Y87820D01*
X6874Y87918D01*
X6925Y88025D01*
X6958Y88139D01*
X6973Y88257D01*
X6969Y88376D01*
X6947Y88492D01*
X6904Y88603D01*
X6783Y88899D01*
X6694Y89207D01*
X6634Y89521D01*
X6604Y89840D01*
Y90160D01*
X6634Y90479D01*
X6694Y90793D01*
X6783Y91101D01*
X6901Y91399D01*
X6943Y91509D01*
X6965Y91625D01*
X6969Y91743D01*
X6954Y91860D01*
X6921Y91973D01*
X6871Y92080D01*
X6804Y92178D01*
X6724Y92264D01*
X6630Y92336D01*
X6527Y92393D01*
X6416Y92433D01*
X6300Y92455D01*
X6182Y92459D01*
X6065Y92444D01*
X6036Y92436D01*
Y94500D01*
G37*
G36*
X2500D02*X6036D01*
Y92436D01*
X5951Y92411D01*
X5845Y92361D01*
X5747Y92294D01*
X5661Y92213D01*
X5589Y92120D01*
X5534Y92016D01*
X5359Y91588D01*
X5230Y91145D01*
X5143Y90691D01*
X5100Y90231D01*
Y89769D01*
X5143Y89309D01*
X5230Y88855D01*
X5359Y88412D01*
X5529Y87982D01*
X5585Y87878D01*
X5658Y87784D01*
X5745Y87703D01*
X5843Y87636D01*
X5950Y87586D01*
X6036Y87560D01*
Y84000D01*
X2500D01*
Y94500D01*
G37*
G36*
X38500Y96500D02*X113500D01*
Y92500D01*
X38500D01*
Y96500D01*
G37*
G36*
Y102500D02*X74838D01*
X75134Y102319D01*
X75570Y102138D01*
X76029Y102028D01*
X76500Y101991D01*
X76971Y102028D01*
X77430Y102138D01*
X77866Y102319D01*
X78162Y102500D01*
X113500D01*
Y98500D01*
X38500D01*
Y102500D01*
G37*
G36*
X13964Y115000D02*X37000D01*
Y96000D01*
X13964D01*
Y97564D01*
X14049Y97589D01*
X14155Y97639D01*
X14253Y97706D01*
X14339Y97787D01*
X14411Y97880D01*
X14466Y97984D01*
X14641Y98412D01*
X14770Y98855D01*
X14857Y99309D01*
X14900Y99769D01*
Y100231D01*
X14857Y100691D01*
X14770Y101145D01*
X14641Y101588D01*
X14471Y102018D01*
X14415Y102122D01*
X14342Y102216D01*
X14255Y102297D01*
X14157Y102364D01*
X14050Y102414D01*
X13964Y102440D01*
Y107564D01*
X14049Y107589D01*
X14155Y107639D01*
X14253Y107706D01*
X14339Y107787D01*
X14411Y107880D01*
X14466Y107984D01*
X14641Y108412D01*
X14770Y108855D01*
X14857Y109309D01*
X14900Y109769D01*
Y110231D01*
X14857Y110691D01*
X14770Y111145D01*
X14641Y111588D01*
X14471Y112018D01*
X14415Y112122D01*
X14342Y112216D01*
X14255Y112297D01*
X14157Y112364D01*
X14050Y112414D01*
X13964Y112440D01*
Y115000D01*
G37*
G36*
X10002D02*X13964D01*
Y112440D01*
X13936Y112448D01*
X13818Y112462D01*
X13700Y112459D01*
X13583Y112437D01*
X13472Y112396D01*
X13368Y112339D01*
X13274Y112266D01*
X13193Y112180D01*
X13126Y112082D01*
X13075Y111975D01*
X13042Y111861D01*
X13027Y111743D01*
X13031Y111624D01*
X13053Y111508D01*
X13096Y111397D01*
X13217Y111101D01*
X13306Y110793D01*
X13366Y110479D01*
X13396Y110160D01*
Y109840D01*
X13366Y109521D01*
X13306Y109207D01*
X13217Y108899D01*
X13099Y108601D01*
X13057Y108491D01*
X13035Y108375D01*
X13031Y108257D01*
X13046Y108140D01*
X13079Y108027D01*
X13129Y107920D01*
X13196Y107822D01*
X13276Y107736D01*
X13370Y107664D01*
X13473Y107607D01*
X13584Y107567D01*
X13700Y107545D01*
X13818Y107541D01*
X13935Y107556D01*
X13964Y107564D01*
Y102440D01*
X13936Y102448D01*
X13818Y102462D01*
X13700Y102459D01*
X13583Y102437D01*
X13472Y102396D01*
X13368Y102339D01*
X13274Y102266D01*
X13193Y102180D01*
X13126Y102082D01*
X13075Y101975D01*
X13042Y101861D01*
X13027Y101743D01*
X13031Y101624D01*
X13053Y101508D01*
X13096Y101397D01*
X13217Y101101D01*
X13306Y100793D01*
X13366Y100479D01*
X13396Y100160D01*
Y99840D01*
X13366Y99521D01*
X13306Y99207D01*
X13217Y98899D01*
X13099Y98601D01*
X13057Y98491D01*
X13035Y98375D01*
X13031Y98257D01*
X13046Y98140D01*
X13079Y98027D01*
X13129Y97920D01*
X13196Y97822D01*
X13276Y97736D01*
X13370Y97664D01*
X13473Y97607D01*
X13584Y97567D01*
X13700Y97545D01*
X13818Y97541D01*
X13935Y97556D01*
X13964Y97564D01*
Y96000D01*
X12429D01*
X12448Y96064D01*
X12462Y96182D01*
X12459Y96300D01*
X12436Y96417D01*
X12396Y96528D01*
X12339Y96632D01*
X12266Y96726D01*
X12180Y96807D01*
X12082Y96874D01*
X11975Y96925D01*
X11861Y96958D01*
X11743Y96973D01*
X11624Y96969D01*
X11508Y96947D01*
X11397Y96904D01*
X11101Y96783D01*
X10793Y96694D01*
X10479Y96634D01*
X10160Y96604D01*
X10002D01*
Y103396D01*
X10160D01*
X10479Y103366D01*
X10793Y103306D01*
X11101Y103217D01*
X11399Y103099D01*
X11509Y103057D01*
X11625Y103035D01*
X11743Y103031D01*
X11860Y103046D01*
X11973Y103079D01*
X12080Y103129D01*
X12178Y103196D01*
X12264Y103276D01*
X12336Y103370D01*
X12393Y103473D01*
X12433Y103584D01*
X12455Y103700D01*
X12459Y103818D01*
X12444Y103935D01*
X12411Y104049D01*
X12361Y104155D01*
X12294Y104253D01*
X12213Y104339D01*
X12120Y104411D01*
X12016Y104466D01*
X11588Y104641D01*
X11145Y104770D01*
X10691Y104857D01*
X10231Y104900D01*
X10002D01*
Y105100D01*
X10231D01*
X10691Y105143D01*
X11145Y105230D01*
X11588Y105359D01*
X12018Y105529D01*
X12122Y105585D01*
X12216Y105658D01*
X12297Y105745D01*
X12364Y105843D01*
X12414Y105950D01*
X12448Y106064D01*
X12462Y106182D01*
X12459Y106300D01*
X12436Y106417D01*
X12396Y106528D01*
X12339Y106632D01*
X12266Y106726D01*
X12180Y106807D01*
X12082Y106874D01*
X11975Y106925D01*
X11861Y106958D01*
X11743Y106973D01*
X11624Y106969D01*
X11508Y106947D01*
X11397Y106904D01*
X11101Y106783D01*
X10793Y106694D01*
X10479Y106634D01*
X10160Y106604D01*
X10002D01*
Y113396D01*
X10160D01*
X10479Y113366D01*
X10793Y113306D01*
X11101Y113217D01*
X11399Y113099D01*
X11509Y113057D01*
X11625Y113035D01*
X11743Y113031D01*
X11860Y113046D01*
X11973Y113079D01*
X12080Y113129D01*
X12178Y113196D01*
X12264Y113276D01*
X12336Y113370D01*
X12393Y113473D01*
X12433Y113584D01*
X12455Y113700D01*
X12459Y113818D01*
X12444Y113935D01*
X12411Y114049D01*
X12361Y114155D01*
X12294Y114253D01*
X12213Y114339D01*
X12120Y114411D01*
X12016Y114466D01*
X11588Y114641D01*
X11145Y114770D01*
X10691Y114857D01*
X10231Y114900D01*
X10002D01*
Y115000D01*
G37*
G36*
X6036D02*X10002D01*
Y114900D01*
X9769D01*
X9309Y114857D01*
X8855Y114770D01*
X8412Y114641D01*
X7982Y114471D01*
X7878Y114415D01*
X7784Y114342D01*
X7703Y114255D01*
X7636Y114157D01*
X7586Y114050D01*
X7552Y113936D01*
X7538Y113818D01*
X7541Y113700D01*
X7563Y113583D01*
X7604Y113472D01*
X7661Y113368D01*
X7734Y113274D01*
X7820Y113193D01*
X7918Y113126D01*
X8025Y113075D01*
X8139Y113042D01*
X8257Y113027D01*
X8376Y113031D01*
X8492Y113053D01*
X8603Y113096D01*
X8899Y113217D01*
X9207Y113306D01*
X9521Y113366D01*
X9840Y113396D01*
X10002D01*
Y106604D01*
X9840D01*
X9521Y106634D01*
X9207Y106694D01*
X8899Y106783D01*
X8601Y106901D01*
X8491Y106943D01*
X8375Y106965D01*
X8257Y106969D01*
X8140Y106954D01*
X8027Y106921D01*
X7920Y106871D01*
X7822Y106804D01*
X7736Y106724D01*
X7664Y106630D01*
X7607Y106527D01*
X7567Y106416D01*
X7545Y106300D01*
X7541Y106182D01*
X7556Y106065D01*
X7589Y105951D01*
X7639Y105845D01*
X7706Y105747D01*
X7787Y105661D01*
X7880Y105589D01*
X7984Y105534D01*
X8412Y105359D01*
X8855Y105230D01*
X9309Y105143D01*
X9769Y105100D01*
X10002D01*
Y104900D01*
X9769D01*
X9309Y104857D01*
X8855Y104770D01*
X8412Y104641D01*
X7982Y104471D01*
X7878Y104415D01*
X7784Y104342D01*
X7703Y104255D01*
X7636Y104157D01*
X7586Y104050D01*
X7552Y103936D01*
X7538Y103818D01*
X7541Y103700D01*
X7563Y103583D01*
X7604Y103472D01*
X7661Y103368D01*
X7734Y103274D01*
X7820Y103193D01*
X7918Y103126D01*
X8025Y103075D01*
X8139Y103042D01*
X8257Y103027D01*
X8376Y103031D01*
X8492Y103053D01*
X8603Y103096D01*
X8899Y103217D01*
X9207Y103306D01*
X9521Y103366D01*
X9840Y103396D01*
X10002D01*
Y96604D01*
X9840D01*
X9521Y96634D01*
X9207Y96694D01*
X8899Y96783D01*
X8601Y96901D01*
X8491Y96943D01*
X8375Y96965D01*
X8257Y96969D01*
X8140Y96954D01*
X8027Y96921D01*
X7920Y96871D01*
X7822Y96804D01*
X7736Y96724D01*
X7664Y96630D01*
X7607Y96527D01*
X7567Y96416D01*
X7545Y96300D01*
X7541Y96182D01*
X7556Y96065D01*
X7575Y96000D01*
X6036D01*
Y97560D01*
X6064Y97552D01*
X6182Y97538D01*
X6300Y97541D01*
X6417Y97564D01*
X6528Y97604D01*
X6632Y97661D01*
X6726Y97734D01*
X6807Y97820D01*
X6874Y97918D01*
X6925Y98025D01*
X6958Y98139D01*
X6973Y98257D01*
X6969Y98376D01*
X6947Y98492D01*
X6904Y98603D01*
X6783Y98899D01*
X6694Y99207D01*
X6634Y99521D01*
X6604Y99840D01*
Y100160D01*
X6634Y100479D01*
X6694Y100793D01*
X6783Y101101D01*
X6901Y101399D01*
X6943Y101509D01*
X6965Y101625D01*
X6969Y101743D01*
X6954Y101860D01*
X6921Y101973D01*
X6871Y102080D01*
X6804Y102178D01*
X6724Y102264D01*
X6630Y102336D01*
X6527Y102393D01*
X6416Y102433D01*
X6300Y102455D01*
X6182Y102459D01*
X6065Y102444D01*
X6036Y102436D01*
Y107560D01*
X6064Y107552D01*
X6182Y107538D01*
X6300Y107541D01*
X6417Y107564D01*
X6528Y107604D01*
X6632Y107661D01*
X6726Y107734D01*
X6807Y107820D01*
X6874Y107918D01*
X6925Y108025D01*
X6958Y108139D01*
X6973Y108257D01*
X6969Y108376D01*
X6947Y108492D01*
X6904Y108603D01*
X6783Y108899D01*
X6694Y109207D01*
X6634Y109521D01*
X6604Y109840D01*
Y110160D01*
X6634Y110479D01*
X6694Y110793D01*
X6783Y111101D01*
X6901Y111399D01*
X6943Y111509D01*
X6965Y111625D01*
X6969Y111743D01*
X6954Y111860D01*
X6921Y111973D01*
X6871Y112080D01*
X6804Y112178D01*
X6724Y112264D01*
X6630Y112336D01*
X6527Y112393D01*
X6416Y112433D01*
X6300Y112455D01*
X6182Y112459D01*
X6065Y112444D01*
X6036Y112436D01*
Y115000D01*
G37*
G36*
X2500D02*X6036D01*
Y112436D01*
X5951Y112411D01*
X5845Y112361D01*
X5747Y112294D01*
X5661Y112213D01*
X5589Y112120D01*
X5534Y112016D01*
X5359Y111588D01*
X5230Y111145D01*
X5143Y110691D01*
X5100Y110231D01*
Y109769D01*
X5143Y109309D01*
X5230Y108855D01*
X5359Y108412D01*
X5529Y107982D01*
X5585Y107878D01*
X5658Y107784D01*
X5745Y107703D01*
X5843Y107636D01*
X5950Y107586D01*
X6036Y107560D01*
Y102436D01*
X5951Y102411D01*
X5845Y102361D01*
X5747Y102294D01*
X5661Y102213D01*
X5589Y102120D01*
X5534Y102016D01*
X5359Y101588D01*
X5230Y101145D01*
X5143Y100691D01*
X5100Y100231D01*
Y99769D01*
X5143Y99309D01*
X5230Y98855D01*
X5359Y98412D01*
X5529Y97982D01*
X5585Y97878D01*
X5658Y97784D01*
X5745Y97703D01*
X5843Y97636D01*
X5950Y97586D01*
X6036Y97560D01*
Y96000D01*
X2500D01*
Y115000D01*
G37*
G36*
X35500Y104000D02*X46000D01*
Y98500D01*
X35500D01*
Y104000D01*
G37*
G36*
X79493Y62000D02*X81500D01*
Y16500D01*
X79493D01*
Y20145D01*
X79578Y20181D01*
X79679Y20243D01*
X79769Y20319D01*
X79845Y20409D01*
X79905Y20511D01*
X80122Y20980D01*
X80289Y21469D01*
X80409Y21972D01*
X80482Y22484D01*
X80506Y23000D01*
X80482Y23516D01*
X80409Y24028D01*
X80289Y24531D01*
X80122Y25020D01*
X79910Y25492D01*
X79849Y25593D01*
X79772Y25684D01*
X79682Y25761D01*
X79580Y25823D01*
X79493Y25860D01*
Y62000D01*
G37*
G36*
X75002D02*X79493D01*
Y25860D01*
X79471Y25869D01*
X79355Y25897D01*
X79237Y25906D01*
X79119Y25897D01*
X79003Y25870D01*
X78893Y25824D01*
X78792Y25762D01*
X78702Y25686D01*
X78624Y25595D01*
X78562Y25494D01*
X78516Y25385D01*
X78489Y25269D01*
X78479Y25151D01*
X78488Y25032D01*
X78516Y24917D01*
X78563Y24808D01*
X78721Y24468D01*
X78842Y24112D01*
X78930Y23747D01*
X78982Y23375D01*
X79000Y23000D01*
X78982Y22625D01*
X78930Y22253D01*
X78842Y21888D01*
X78721Y21532D01*
X78567Y21190D01*
X78520Y21082D01*
X78493Y20967D01*
X78483Y20849D01*
X78493Y20732D01*
X78521Y20617D01*
X78566Y20508D01*
X78628Y20407D01*
X78705Y20318D01*
X78795Y20241D01*
X78895Y20180D01*
X79004Y20135D01*
X79119Y20107D01*
X79237Y20098D01*
X79355Y20108D01*
X79469Y20135D01*
X79493Y20145D01*
Y16500D01*
X75002D01*
Y17494D01*
X75516Y17518D01*
X76028Y17591D01*
X76531Y17711D01*
X77020Y17878D01*
X77492Y18090D01*
X77593Y18151D01*
X77684Y18228D01*
X77761Y18318D01*
X77823Y18420D01*
X77869Y18529D01*
X77897Y18645D01*
X77906Y18763D01*
X77897Y18881D01*
X77870Y18997D01*
X77824Y19107D01*
X77762Y19208D01*
X77686Y19298D01*
X77595Y19376D01*
X77494Y19438D01*
X77385Y19484D01*
X77269Y19511D01*
X77151Y19521D01*
X77032Y19512D01*
X76917Y19484D01*
X76808Y19437D01*
X76468Y19279D01*
X76112Y19158D01*
X75747Y19070D01*
X75375Y19018D01*
X75002Y19000D01*
Y27000D01*
X75375Y26982D01*
X75747Y26930D01*
X76112Y26842D01*
X76468Y26721D01*
X76810Y26567D01*
X76918Y26520D01*
X77033Y26493D01*
X77151Y26483D01*
X77268Y26493D01*
X77383Y26521D01*
X77492Y26566D01*
X77593Y26628D01*
X77682Y26705D01*
X77759Y26795D01*
X77820Y26895D01*
X77865Y27004D01*
X77893Y27119D01*
X77902Y27237D01*
X77892Y27355D01*
X77865Y27469D01*
X77819Y27578D01*
X77757Y27679D01*
X77681Y27769D01*
X77591Y27845D01*
X77489Y27905D01*
X77020Y28122D01*
X76531Y28289D01*
X76028Y28409D01*
X75516Y28482D01*
X75002Y28506D01*
Y62000D01*
G37*
G36*
X70507D02*X75002D01*
Y28506D01*
X75000Y28506D01*
X74484Y28482D01*
X73972Y28409D01*
X73469Y28289D01*
X72980Y28122D01*
X72508Y27910D01*
X72407Y27849D01*
X72316Y27772D01*
X72239Y27682D01*
X72177Y27580D01*
X72131Y27471D01*
X72103Y27355D01*
X72094Y27237D01*
X72103Y27119D01*
X72130Y27003D01*
X72176Y26893D01*
X72238Y26792D01*
X72314Y26702D01*
X72405Y26624D01*
X72506Y26562D01*
X72615Y26516D01*
X72731Y26489D01*
X72849Y26479D01*
X72968Y26488D01*
X73083Y26516D01*
X73192Y26563D01*
X73532Y26721D01*
X73888Y26842D01*
X74253Y26930D01*
X74625Y26982D01*
X75000Y27000D01*
X75002Y27000D01*
Y19000D01*
X75000Y19000D01*
X74625Y19018D01*
X74253Y19070D01*
X73888Y19158D01*
X73532Y19279D01*
X73190Y19433D01*
X73082Y19480D01*
X72967Y19507D01*
X72849Y19517D01*
X72732Y19507D01*
X72617Y19479D01*
X72508Y19434D01*
X72407Y19372D01*
X72318Y19295D01*
X72241Y19205D01*
X72180Y19105D01*
X72135Y18996D01*
X72107Y18881D01*
X72098Y18763D01*
X72108Y18645D01*
X72135Y18531D01*
X72181Y18422D01*
X72243Y18321D01*
X72319Y18231D01*
X72409Y18155D01*
X72511Y18095D01*
X72980Y17878D01*
X73469Y17711D01*
X73972Y17591D01*
X74484Y17518D01*
X75000Y17494D01*
X75002Y17494D01*
Y16500D01*
X70507D01*
Y20140D01*
X70529Y20131D01*
X70645Y20103D01*
X70763Y20094D01*
X70881Y20103D01*
X70997Y20130D01*
X71107Y20176D01*
X71208Y20238D01*
X71298Y20314D01*
X71376Y20405D01*
X71438Y20506D01*
X71484Y20615D01*
X71511Y20731D01*
X71521Y20849D01*
X71512Y20968D01*
X71484Y21083D01*
X71437Y21192D01*
X71279Y21532D01*
X71158Y21888D01*
X71070Y22253D01*
X71018Y22625D01*
X71000Y23000D01*
X71018Y23375D01*
X71070Y23747D01*
X71158Y24112D01*
X71279Y24468D01*
X71433Y24810D01*
X71480Y24918D01*
X71507Y25033D01*
X71517Y25151D01*
X71507Y25268D01*
X71479Y25383D01*
X71434Y25492D01*
X71372Y25593D01*
X71295Y25682D01*
X71205Y25759D01*
X71105Y25820D01*
X70996Y25865D01*
X70881Y25893D01*
X70763Y25902D01*
X70645Y25892D01*
X70531Y25865D01*
X70507Y25855D01*
Y62000D01*
G37*
G36*
X66000D02*X68882D01*
X69000Y61991D01*
X69118Y62000D01*
X70507D01*
Y25855D01*
X70422Y25819D01*
X70321Y25757D01*
X70231Y25681D01*
X70155Y25591D01*
X70095Y25489D01*
X69878Y25020D01*
X69711Y24531D01*
X69591Y24028D01*
X69518Y23516D01*
X69494Y23000D01*
X69518Y22484D01*
X69591Y21972D01*
X69711Y21469D01*
X69878Y20980D01*
X70090Y20508D01*
X70151Y20407D01*
X70228Y20316D01*
X70318Y20239D01*
X70420Y20177D01*
X70507Y20140D01*
Y16500D01*
X66119D01*
X66064Y16564D01*
X66000Y16619D01*
Y50964D01*
X66006Y51043D01*
X66000Y51121D01*
Y62000D01*
G37*
G36*
X119493D02*X121500D01*
Y16500D01*
X119493D01*
Y20145D01*
X119578Y20181D01*
X119679Y20243D01*
X119769Y20319D01*
X119845Y20409D01*
X119905Y20511D01*
X120122Y20980D01*
X120289Y21469D01*
X120409Y21972D01*
X120482Y22484D01*
X120506Y23000D01*
X120482Y23516D01*
X120409Y24028D01*
X120289Y24531D01*
X120122Y25020D01*
X119910Y25492D01*
X119849Y25593D01*
X119772Y25684D01*
X119682Y25761D01*
X119580Y25823D01*
X119493Y25860D01*
Y62000D01*
G37*
G36*
X115002D02*X119493D01*
Y25860D01*
X119471Y25869D01*
X119355Y25897D01*
X119237Y25906D01*
X119119Y25897D01*
X119003Y25870D01*
X118893Y25824D01*
X118792Y25762D01*
X118702Y25686D01*
X118624Y25595D01*
X118562Y25494D01*
X118516Y25385D01*
X118489Y25269D01*
X118479Y25151D01*
X118488Y25032D01*
X118516Y24917D01*
X118563Y24808D01*
X118721Y24468D01*
X118842Y24112D01*
X118930Y23747D01*
X118982Y23375D01*
X119000Y23000D01*
X118982Y22625D01*
X118930Y22253D01*
X118842Y21888D01*
X118721Y21532D01*
X118567Y21190D01*
X118520Y21082D01*
X118493Y20967D01*
X118483Y20849D01*
X118493Y20732D01*
X118521Y20617D01*
X118566Y20508D01*
X118628Y20407D01*
X118705Y20318D01*
X118795Y20241D01*
X118895Y20180D01*
X119004Y20135D01*
X119119Y20107D01*
X119237Y20098D01*
X119355Y20108D01*
X119469Y20135D01*
X119493Y20145D01*
Y16500D01*
X115002D01*
Y17494D01*
X115516Y17518D01*
X116028Y17591D01*
X116531Y17711D01*
X117020Y17878D01*
X117492Y18090D01*
X117593Y18151D01*
X117684Y18228D01*
X117761Y18318D01*
X117823Y18420D01*
X117869Y18529D01*
X117897Y18645D01*
X117906Y18763D01*
X117897Y18881D01*
X117870Y18997D01*
X117824Y19107D01*
X117762Y19208D01*
X117686Y19298D01*
X117595Y19376D01*
X117494Y19438D01*
X117385Y19484D01*
X117269Y19511D01*
X117151Y19521D01*
X117032Y19512D01*
X116917Y19484D01*
X116808Y19437D01*
X116468Y19279D01*
X116112Y19158D01*
X115747Y19070D01*
X115375Y19018D01*
X115002Y19000D01*
Y27000D01*
X115375Y26982D01*
X115747Y26930D01*
X116112Y26842D01*
X116468Y26721D01*
X116810Y26567D01*
X116918Y26520D01*
X117033Y26493D01*
X117151Y26483D01*
X117268Y26493D01*
X117383Y26521D01*
X117492Y26566D01*
X117593Y26628D01*
X117682Y26705D01*
X117759Y26795D01*
X117820Y26895D01*
X117865Y27004D01*
X117893Y27119D01*
X117902Y27237D01*
X117892Y27355D01*
X117865Y27469D01*
X117819Y27578D01*
X117757Y27679D01*
X117681Y27769D01*
X117591Y27845D01*
X117489Y27905D01*
X117020Y28122D01*
X116531Y28289D01*
X116028Y28409D01*
X115516Y28482D01*
X115002Y28506D01*
Y62000D01*
G37*
G36*
X110507D02*X115002D01*
Y28506D01*
X115000Y28506D01*
X114484Y28482D01*
X113972Y28409D01*
X113469Y28289D01*
X112980Y28122D01*
X112508Y27910D01*
X112407Y27849D01*
X112316Y27772D01*
X112239Y27682D01*
X112177Y27580D01*
X112131Y27471D01*
X112103Y27355D01*
X112094Y27237D01*
X112103Y27119D01*
X112130Y27003D01*
X112176Y26893D01*
X112238Y26792D01*
X112314Y26702D01*
X112405Y26624D01*
X112506Y26562D01*
X112615Y26516D01*
X112731Y26489D01*
X112849Y26479D01*
X112968Y26488D01*
X113083Y26516D01*
X113192Y26563D01*
X113532Y26721D01*
X113888Y26842D01*
X114253Y26930D01*
X114625Y26982D01*
X115000Y27000D01*
X115002Y27000D01*
Y19000D01*
X115000Y19000D01*
X114625Y19018D01*
X114253Y19070D01*
X113888Y19158D01*
X113532Y19279D01*
X113190Y19433D01*
X113082Y19480D01*
X112967Y19507D01*
X112849Y19517D01*
X112732Y19507D01*
X112617Y19479D01*
X112508Y19434D01*
X112407Y19372D01*
X112318Y19295D01*
X112241Y19205D01*
X112180Y19105D01*
X112135Y18996D01*
X112107Y18881D01*
X112098Y18763D01*
X112108Y18645D01*
X112135Y18531D01*
X112181Y18422D01*
X112243Y18321D01*
X112319Y18231D01*
X112409Y18155D01*
X112511Y18095D01*
X112980Y17878D01*
X113469Y17711D01*
X113972Y17591D01*
X114484Y17518D01*
X115000Y17494D01*
X115002Y17494D01*
Y16500D01*
X110507D01*
Y20140D01*
X110529Y20131D01*
X110645Y20103D01*
X110763Y20094D01*
X110881Y20103D01*
X110997Y20130D01*
X111107Y20176D01*
X111208Y20238D01*
X111298Y20314D01*
X111376Y20405D01*
X111438Y20506D01*
X111484Y20615D01*
X111511Y20731D01*
X111521Y20849D01*
X111512Y20968D01*
X111484Y21083D01*
X111437Y21192D01*
X111279Y21532D01*
X111158Y21888D01*
X111070Y22253D01*
X111018Y22625D01*
X111000Y23000D01*
X111018Y23375D01*
X111070Y23747D01*
X111158Y24112D01*
X111279Y24468D01*
X111433Y24810D01*
X111480Y24918D01*
X111507Y25033D01*
X111517Y25151D01*
X111507Y25268D01*
X111479Y25383D01*
X111434Y25492D01*
X111372Y25593D01*
X111295Y25682D01*
X111205Y25759D01*
X111105Y25820D01*
X110996Y25865D01*
X110881Y25893D01*
X110763Y25902D01*
X110645Y25892D01*
X110531Y25865D01*
X110507Y25855D01*
Y62000D01*
G37*
G36*
X106000D02*X110507D01*
Y25855D01*
X110422Y25819D01*
X110321Y25757D01*
X110231Y25681D01*
X110155Y25591D01*
X110095Y25489D01*
X109878Y25020D01*
X109711Y24531D01*
X109591Y24028D01*
X109518Y23516D01*
X109494Y23000D01*
X109518Y22484D01*
X109591Y21972D01*
X109711Y21469D01*
X109878Y20980D01*
X110090Y20508D01*
X110151Y20407D01*
X110228Y20316D01*
X110318Y20239D01*
X110420Y20177D01*
X110507Y20140D01*
Y16500D01*
X106000D01*
Y50964D01*
X106006Y51043D01*
X106000Y51121D01*
Y62000D01*
G37*
G54D12*X80276Y149348D02*X83425D01*
X81652Y160425D02*Y155000D01*
X80276Y149348D02*X64348D01*
X62500Y147500D01*
X67500Y160000D02*Y163575D01*
X77000Y138500D02*X80276Y141776D01*
X86575Y149348D02*X89724D01*
X61043Y155000D02*X105000D01*
X107500Y152500D01*
X89724Y149348D02*X100652D01*
X83425Y142652D02*Y129348D01*
X86575Y142652D02*Y129348D01*
X107500Y152500D02*Y107750D01*
X100652Y149348D02*X102500Y147500D01*
Y107750D01*
X93000Y138500D02*X89724Y141776D01*
X81652Y163575D02*X61043D01*
G54D13*X54000Y169500D02*X53957Y169457D01*
X54000Y169500D02*Y163000D01*
G54D12*X62500Y147500D02*Y107750D01*
X67500D02*Y145500D01*
G54D13*X54000Y148500D02*Y154500D01*
G54D12*X88348Y163575D02*X136075D01*
X138000Y165500D01*
Y191000D01*
X88348Y160425D02*X136075D01*
X138000Y158500D01*
Y165500D02*X147000Y156500D01*
X138000Y158500D02*Y133000D01*
X155740D02*X165000D01*
X169000Y129000D01*
X155740Y153000D02*X168500D01*
X155740Y143000D02*X166500D01*
X147000Y156500D02*Y103000D01*
X168500Y153000D02*X172500Y149000D01*
X155740Y171000D02*X172000D01*
X176000Y167000D01*
X155740Y181000D02*X175500D01*
X179500Y177000D01*
X183000Y140000D02*Y187000D01*
X179000Y191000D01*
X155740D01*
X143850Y103000D02*Y133000D01*
Y96304D02*Y85850D01*
X133000Y75000D01*
X147000Y96304D02*Y59000D01*
X169000Y129000D02*Y54000D01*
X172500Y149000D02*Y74000D01*
X176000Y167000D02*Y84000D01*
X179500Y177000D02*Y120000D01*
X183500Y116000D01*
X169000Y54000D02*X173000Y50000D01*
X200000D01*
X172500Y74000D02*X176500Y70000D01*
X200000D01*
X176000Y84000D02*X180000Y80000D01*
X200000D01*
X183500Y116000D02*X200000D01*
Y136000D02*X187000D01*
X183000Y140000D01*
G54D13*X64000Y51043D02*Y68000D01*
G54D12*X57500Y74500D01*
Y87250D01*
X62500D02*X67500D01*
G54D13*X57500Y107750D02*Y100500D01*
G54D12*X65000Y79000D02*Y87250D01*
X60100Y59800D02*X59000Y60900D01*
Y65000D01*
X69000D02*X72152Y68152D01*
X83425D01*
Y74848D02*Y77575D01*
X82500Y78500D01*
Y81000D01*
X76500Y105000D02*X72500D01*
G54D13*Y87250D02*Y94500D01*
X95000Y23000D02*X101457Y29457D01*
Y48500D01*
G54D12*X100100Y59800D02*X91748Y68152D01*
X86575D01*
G54D13*X55000Y23000D02*X61457Y29457D01*
Y48500D01*
X64000Y51043D01*
X101457Y48500D02*X104000Y51043D01*
G54D12*X133000Y75000D02*Y30543D01*
X121000Y23000D02*X133000D01*
X37000Y59000D02*Y30543D01*
Y23457D02*X44957Y15500D01*
X65000D01*
X68000Y18500D01*
G54D13*X104000Y51043D02*Y68000D01*
G54D12*X97500Y74500D01*
X86575Y74848D02*Y77575D01*
X87500Y78500D01*
Y81000D01*
X97500Y74500D02*Y87250D01*
X102500D02*X107500D01*
X116500Y105000D02*X112500D01*
G54D13*Y87250D02*Y94500D01*
X97500Y107750D02*Y100500D01*
G54D12*X105000Y79000D02*Y87250D01*
X86575Y122652D02*Y115425D01*
X83425Y122652D02*Y115425D01*
X82500Y114500D01*
Y112000D01*
X86575Y115425D02*X87500Y114500D01*
Y112000D01*
G54D11*G36*
X196600Y23400D02*Y16600D01*
X203400D01*
Y23400D01*
X196600D01*
G37*
G54D14*X200000Y30000D03*
Y40000D03*
Y50000D03*
Y60000D03*
Y70000D03*
G54D15*X140000Y10000D03*
G54D16*X115000Y23000D03*
G54D14*X10000Y130000D03*
Y120000D03*
Y110000D03*
Y100000D03*
G54D11*G36*
X6600Y163400D02*Y156600D01*
X13400D01*
Y163400D01*
X6600D01*
G37*
G54D14*X10000Y150000D03*
Y140000D03*
G54D15*Y215000D03*
G54D14*X200000Y80000D03*
Y90000D03*
Y106000D03*
Y116000D03*
Y126000D03*
Y136000D03*
Y146000D03*
Y156000D03*
Y166000D03*
Y176000D03*
Y186000D03*
Y196000D03*
G54D15*Y210000D03*
G54D14*X10000Y90000D03*
Y70000D03*
Y60000D03*
Y50000D03*
Y40000D03*
Y30000D03*
Y20000D03*
G54D15*X30000Y10000D03*
G54D11*G36*
X51000Y27000D02*Y19000D01*
X59000D01*
Y27000D01*
X51000D01*
G37*
G54D16*X75000Y23000D03*
G54D11*G36*
X91000Y27000D02*Y19000D01*
X99000D01*
Y27000D01*
X91000D01*
G37*
G54D17*X86575Y75783D02*Y73913D01*
X83425Y75783D02*Y73913D01*
Y69087D02*Y67217D01*
X86575Y69087D02*Y67217D01*
G54D18*X101457Y48893D02*Y48107D01*
X108543Y48893D02*Y48107D01*
X61457Y48893D02*Y48107D01*
X68543Y48893D02*Y48107D01*
G54D19*X100100Y60100D02*Y59500D01*
G54D18*X132607Y23457D02*X133393D01*
X132607Y30543D02*X133393D01*
G54D19*X107900Y60100D02*Y59500D01*
G54D20*X112500Y111000D02*Y104500D01*
X107500Y111000D02*Y104500D01*
Y90500D02*Y84000D01*
X112500Y90500D02*Y84000D01*
G54D19*X104000Y68300D02*Y67700D01*
G54D20*X102500Y111000D02*Y104500D01*
X97500Y111000D02*Y104500D01*
Y90500D02*Y84000D01*
X102500Y90500D02*Y84000D01*
X62500Y111000D02*Y104500D01*
Y90500D02*Y84000D01*
X67500Y90500D02*Y84000D01*
X72500Y90500D02*Y84000D01*
G54D17*X87413Y160425D02*X89283D01*
X87413Y163575D02*X89283D01*
X80717D02*X82587D01*
X80717Y160425D02*X82587D01*
X89724Y150283D02*Y148413D01*
Y143587D02*Y141717D01*
X86575Y150283D02*Y148413D01*
Y143587D02*Y141717D01*
X83425Y150283D02*Y148413D01*
Y143587D02*Y141717D01*
X80276Y150283D02*Y148413D01*
Y143587D02*Y141717D01*
G54D19*X60100Y60100D02*Y59500D01*
X67900Y60100D02*Y59500D01*
X64000Y68300D02*Y67700D01*
G54D18*X41107Y101043D02*X41893D01*
X41107Y93957D02*X41893D01*
G54D20*X72500Y111000D02*Y104500D01*
X67500Y111000D02*Y104500D01*
X57500Y111000D02*Y104500D01*
Y90500D02*Y84000D01*
G54D18*X36607Y23457D02*X37393D01*
X36607Y30543D02*X37393D01*
G54D17*X86575Y130283D02*Y128413D01*
X83425Y130283D02*Y128413D01*
Y123587D02*Y121717D01*
X86575Y123587D02*Y121717D01*
G54D18*X61043Y163893D02*Y163107D01*
X53957Y163893D02*Y163107D01*
X61043Y154893D02*Y154107D01*
X53957Y154893D02*Y154107D01*
G54D21*X150996Y171000D02*X160484D01*
X150996Y181000D02*X160484D01*
X150996Y191000D02*X160484D01*
X133516D02*X143004D01*
X133516Y181000D02*X143004D01*
X133516Y171000D02*X143004D01*
X150996Y133000D02*X160484D01*
X133516D02*X143004D01*
X150996Y143000D02*X160484D01*
G54D17*X147000Y103935D02*Y102065D01*
X143850Y103935D02*Y102065D01*
Y97239D02*Y95369D01*
X147000Y97239D02*Y95369D01*
G54D21*X150996Y153000D02*X160484D01*
X133516D02*X143004D01*
X133516Y143000D02*X143004D01*
G54D22*X82500Y81000D03*
X87500D03*
X76500Y105000D03*
X116500D03*
X87500Y112000D03*
X82500D03*
X59000Y65000D03*
X69000D03*
X147000Y59000D03*
X37000D03*
X105000Y79000D03*
X65000D03*
X54000Y169500D03*
Y148500D03*
X67500Y145500D03*
Y160000D03*
X93000Y138500D03*
X77000D03*
X166500Y143000D03*
G54D13*G54D23*G54D24*G54D25*G54D23*G54D24*G54D23*G54D24*G54D23*G54D24*G54D25*M02*
